<svg width="32" height="30" viewBox="0 0 32 30" fill="none" xmlns="http://www.w3.org/2000/svg">
<path d="M20.5192 0.0881557C17.092 0.668049 14.2707 3.1049 13.1891 6.40182C12.5245 8.44773 12.5832 10.663 13.3585 12.6633C14.1925 14.8135 15.8345 16.6118 17.913 17.6478C19.1119 18.2473 20.2782 18.547 21.6595 18.6056C22.6955 18.6447 23.4122 18.573 24.4091 18.3254L25.0737 18.156L27.6473 18.8467C29.0612 19.2246 30.2927 19.5374 30.3709 19.5374C30.5533 19.5374 30.6836 19.4266 30.6836 19.2702C30.6836 19.2051 30.436 18.2277 30.1298 17.094C29.8236 15.9603 29.576 14.9894 29.576 14.9373C29.576 14.8852 29.6933 14.6637 29.8431 14.4486C30.4686 13.5299 31.0029 12.2073 31.244 10.9693C31.4069 10.1679 31.4069 8.46076 31.2505 7.6463C30.8791 5.73722 30.0321 4.11482 28.6964 2.75957C28.0187 2.06891 27.491 1.65843 26.7482 1.22839C25.7122 0.635469 24.7088 0.277109 23.549 0.0881557C22.8388 -0.0291252 21.2099 -0.0291252 20.5192 0.0881557ZM22.7932 3.67176C23.9334 3.94542 24.8521 4.81851 25.1779 5.94572C25.2626 6.23892 25.2822 6.49303 25.2626 7.00777C25.2366 7.63327 25.217 7.71798 24.9629 8.21968C24.6567 8.83867 24.168 9.3534 23.562 9.69873C23.1059 9.95284 22.9952 10.1483 22.9952 10.6891C22.9952 11.1843 22.8584 11.4905 22.5456 11.699C22.1547 11.9597 21.5813 11.8489 21.3011 11.458C21.0079 11.0475 21.06 9.9789 21.4119 9.26218C21.6204 8.84518 22.0243 8.44121 22.5912 8.09588C23.1646 7.75055 23.4057 7.37916 23.4122 6.84488C23.4252 5.52872 21.7116 4.94883 20.9558 6.02391C20.845 6.1868 20.7538 6.42788 20.7082 6.69502C20.63 7.21627 20.5062 7.45735 20.2391 7.61372C19.607 7.99815 18.8252 7.50947 18.8252 6.73411C18.8252 5.93269 19.2096 5.07914 19.8416 4.49273C20.6821 3.70434 21.7116 3.41765 22.7932 3.67176ZM22.5456 13.3019C23.1906 13.7319 23.0994 14.6702 22.3827 14.9438C21.5226 15.2696 20.7799 14.2792 21.3141 13.5234C21.5813 13.1455 22.1612 13.0413 22.5456 13.3019Z" fill="url(#paint0_linear_1_2527)"/>
<path d="M1.55171 9.93339C1.10865 10.0702 0.639524 10.4025 0.398445 10.7674C-0.0250716 11.4059 -0.0120404 11.1518 0.00750657 17.6219L0.0270535 23.4794L0.209492 23.8508C0.431023 24.3069 0.984853 24.8216 1.40837 24.9845C1.64945 25.0692 1.98826 25.1018 2.88091 25.1279L4.03417 25.1539V27.0239C4.03417 29.0242 4.04069 29.0503 4.35996 29.0503C4.49679 29.0503 4.89424 28.6724 6.39935 27.0956L8.27586 25.1474L13.4688 25.1279L18.6618 25.1083L19.0332 24.9324C19.4828 24.7239 19.9128 24.3069 20.1278 23.8704C20.2907 23.5511 20.2907 23.525 20.3103 21.5443L20.3298 19.544L20.1799 19.5114C19.5349 19.3746 19.2287 19.2964 18.6683 19.1009C18.0493 18.8859 17.0655 18.4233 16.5116 18.0779C16.3292 17.9672 16.2184 17.9346 16.1533 17.9737C16.0946 18.0128 13.5991 18.0389 10.0742 18.0389H4.0863L3.89735 17.8499C3.69536 17.6414 3.6693 17.5241 3.78658 17.3026C3.94947 16.9898 3.74749 17.0029 9.57247 16.9964H15.0717L14.6482 16.5533C14.1334 16.0255 13.736 15.5368 13.3841 14.9895L13.1235 14.5856H8.62119C4.22964 14.5856 4.11236 14.5856 3.94947 14.4552C3.86477 14.3836 3.76703 14.2533 3.74749 14.162C3.70188 13.9731 3.84522 13.6473 4.0016 13.5822C4.06024 13.5626 6.01493 13.5431 8.34101 13.5431C10.6671 13.5431 12.5697 13.5365 12.5697 13.5235C12.5697 13.517 12.485 13.302 12.3807 13.0544C12.068 12.279 11.7682 10.9498 11.7031 10.0898L11.6901 9.86172L6.77074 9.84869C2.66589 9.84217 1.79931 9.8552 1.55171 9.93339ZM16.251 20.6125C16.466 20.821 16.466 21.1208 16.251 21.3293L16.0946 21.4921H10.0807C3.72142 21.4856 3.94947 21.4987 3.78658 21.1859C3.6693 20.9644 3.69536 20.8471 3.89735 20.6386L4.0863 20.4496H10.0937H16.0946L16.251 20.6125Z" fill="url(#paint1_linear_1_2527)"/>
<defs>
<linearGradient id="paint0_linear_1_2527" x1="21.8106" y1="19.4509" x2="20.3132" y2="0.027654" gradientUnits="userSpaceOnUse">
<stop offset="0.495281" stop-color="white"/>
<stop offset="1" stop-color="#A4A4A4"/>
</linearGradient>
<linearGradient id="paint1_linear_1_2527" x1="9.90509" y1="28.9653" x2="8.5775" y2="9.85297" gradientUnits="userSpaceOnUse">
<stop offset="0.495281" stop-color="white"/>
<stop offset="1" stop-color="#A4A4A4"/>
</linearGradient>
</defs>
</svg>
