<svg width="42" height="30" viewBox="0 0 42 30" fill="none" xmlns="http://www.w3.org/2000/svg">
<path d="M40.4262 8.39344H22.1311C21.2787 8.39344 20.5902 9.08197 20.5902 9.93443V23.6721C20.5902 24.5246 21.2787 25.2131 22.1311 25.2131H28.9836V27.5082H25.1803V29.0492H36.6229V27.5082H32.8197V25.2131H40.459C41.3115 25.2131 42 24.5246 42 23.6721V9.90164C41.9672 9.08197 41.2787 8.39344 40.4262 8.39344ZM40.4262 22.8852C40.4262 23.3115 40.0984 23.6393 39.6721 23.6393H22.8852C22.459 23.6393 22.1311 23.3115 22.1311 22.8852V10.6885C22.1311 10.2623 22.459 9.93443 22.8852 9.93443H39.6721C40.0984 9.93443 40.4262 10.2623 40.4262 10.6885V22.8852ZM8 20.5902C6.95082 20.5902 6.09836 21.4426 6.09836 22.4918C6.09836 23.541 6.95082 24.3934 8 24.3934C9.04918 24.3934 9.90164 23.541 9.90164 22.4918C9.90164 21.4426 9.08197 20.5902 8 20.5902ZM0 28.9836H16.0328V0H0V28.9836ZM8 25.1803C6.52459 25.1803 5.34426 24 5.34426 22.5246C5.34426 21.0492 6.52459 19.8689 8 19.8689C9.47541 19.8689 10.6557 21.0492 10.6557 22.5246C10.6557 24 9.47541 25.1803 8 25.1803ZM11.4426 16.0328H4.59016V15.2787H11.4426V16.0328ZM13.3443 13.7377C12.7213 13.7377 12.1967 13.2131 12.1967 12.5902C12.1967 11.9672 12.7213 11.4426 13.3443 11.4426C13.9672 11.4426 14.4918 11.9672 14.4918 12.5902C14.4918 13.2131 14 13.7377 13.3443 13.7377ZM1.54098 1.5082H14.5246V3.04918H1.54098V1.5082ZM1.54098 4.55738H14.5246V6.09836H1.54098V4.55738ZM1.54098 7.63934H14.5246V9.18033H1.54098V7.63934ZM38.918 10.6885H23.6393C23.2131 10.6885 22.8852 11.0164 22.8852 11.4426V22.1311C22.8852 22.5574 23.2131 22.8852 23.6393 22.8852H38.8852C39.3115 22.8852 39.6393 22.5574 39.6393 22.1311V11.4426C39.6721 11.0164 39.3443 10.6885 38.918 10.6885ZM27.1803 11.5738L27.5738 12.2295L24.6557 14.3934L24.3279 13.7049L27.1803 11.5738ZM24.5574 16.2951L24.0984 15.7049L28.8852 11.9344L29.3443 12.5246L24.5574 16.2951Z" fill="url(#paint0_linear_1_2378)"/>
<defs>
<linearGradient id="paint0_linear_1_2378" x1="20.4633" y1="0.128535" x2="18.9894" y2="29.105" gradientUnits="userSpaceOnUse">
<stop offset="0.495281" stop-color="white"/>
<stop offset="1" stop-color="#A4A4A4"/>
</linearGradient>
</defs>
</svg>
