<svg width="44" height="43" viewBox="0 0 44 43" fill="none" xmlns="http://www.w3.org/2000/svg">
<ellipse cx="21.5894" cy="20.6048" rx="15.0875" ry="15.033" fill="url(#paint0_linear_1_2596)"/>
<path d="M36.1322 20.6048C36.1322 28.6046 29.6231 35.0931 21.5894 35.0931C13.5558 35.0931 7.04663 28.6046 7.04663 20.6048C7.04663 12.605 13.5558 6.11645 21.5894 6.11645C29.6231 6.11645 36.1322 12.605 36.1322 20.6048Z" fill="url(#paint1_linear_1_2596)" stroke="#7047D6" stroke-width="1.08935"/>
<g filter="url(#filter0_d_1_2596)">
<path d="M31.3189 28.5888L31.3338 28.6215L30.965 28.7917C30.6447 28.9395 30.202 29.232 29.9841 29.4432C28.8998 30.4961 28.0302 31.6251 27.6703 33.0532C27.4634 33.9148 27.3587 34.7977 27.3584 35.6838L27.3584 35.6872C27.3446 37.2586 27.3444 38.8302 27.3444 40.4038L32.6454 40.4066C32.6426 39.9331 32.6368 39.1824 32.631 38.4414L32.6288 38.1674C32.624 37.5601 32.6195 36.9842 32.6169 36.6054H31.5729H31.1644V36.1969C31.1644 36.021 31.1615 35.8436 31.1585 35.6658C31.152 35.2728 31.1454 34.8783 31.1707 34.4954L31.1708 34.4948C31.2725 32.9852 32.5992 31.7842 34.1576 31.6735L34.1627 31.6732L34.1627 31.6732C35.4798 31.5959 36.76 31.2084 37.8986 30.5422C39.0193 29.8836 40.0196 29.039 40.8564 28.0447L31.3189 28.5888ZM31.3189 28.5888C31.3514 28.5839 31.3801 28.576 31.4042 28.5676L34.1216 27.9757L34.5402 27.8845L34.5411 27.8867L34.8752 27.8144C35.8002 27.6141 36.716 26.9591 37.4029 26.1323C38.0918 25.303 38.5963 24.2462 38.6362 23.1862L38.6521 22.7624H38.2279H33.0395H32.5257C32.0088 21.4847 31.493 20.2091 30.9771 18.9329M31.3189 28.5888L30.9771 18.9329M30.9771 18.9329H31.2103H42.5774C42.5777 18.938 42.5781 18.9431 42.5784 18.9482C42.5784 19.308 42.5803 19.666 42.5821 20.0228C42.5869 20.9883 42.5918 21.945 42.5614 22.9042C42.5305 23.6197 42.448 24.3321 42.3147 25.0358L42.3139 25.0398C42.1127 26.1629 41.6022 27.1534 40.8571 28.0439L30.9771 18.9329ZM18.2509 24.9991C18.1612 25.2181 18.0713 25.4372 17.9812 25.6561C17.9215 25.5091 17.8618 25.3622 17.8021 25.2152L18.0794 25.0975C18.1449 25.0697 18.2017 25.0363 18.2509 24.9991ZM13.5009 14.489L14.6219 17.3706C14.2377 16.4222 13.8541 15.4755 13.4714 14.5311L13.3309 14.1845L12.9734 14.2939L10.2367 15.1307L9.80991 15.2611L9.81072 15.2632L9.6507 15.3117C8.87274 15.5479 8.18957 15.8135 7.57997 16.2162C6.96519 16.6224 6.4426 17.1562 5.96577 17.9075L5.95197 17.9293L5.94101 17.9526L5.76705 18.3225L5.49322 18.9049H6.13672H6.14718H6.15762H6.16805H6.17846H6.18886H6.19925H6.20962H6.21998H6.23032H6.24065H6.25097H6.26127H6.27155H6.28183H6.29209H6.30233H6.31257H6.32279H6.33299H6.34318H6.35336H6.36353H6.37368H6.38382H6.39394H6.40405H6.41415H6.42424H6.43431H6.44437H6.45442H6.46445H6.47448H6.48449H6.49448H6.50447H6.51444H6.5244H6.53434H6.54428H6.5542H6.56411H6.57401H6.58389H6.59377H6.60363H6.61348H6.62331H6.63314H6.64295H6.65276H6.66255H6.67233H6.68209H6.69185H6.70159H6.71133H6.72105H6.73076H6.74046H6.75015H6.75982H6.76949H6.77914H6.78879H6.79842H6.80804H6.81766H6.82726H6.83685H6.84643H6.856H6.86556H6.8751H6.88464H6.89417H6.90369H6.9132H6.92269H6.93218H6.94166H6.95113H6.96058H6.97003H6.97947H6.9889H6.99831H7.00772H7.01712H7.02651H7.03589H7.04526H7.05463H7.06398H7.07332H7.08265H7.09198H7.10129H7.1106H7.1199H7.12919H7.13847H7.14774H7.157H7.16626H7.1755H7.18474H7.19397H7.20319H7.2124H7.2216H7.2308H7.23999H7.24917H7.25834H7.2675H7.27665H7.2858H7.29494H7.30407H7.31319H7.32231H7.33142H7.34052H7.34961H7.3587H7.36778H7.37685H7.38591H7.39497H7.40402H7.41306H7.42209H7.43112H7.44014H7.44916H7.45817H7.46717H7.47616H7.48515H7.49413H7.5031H7.51207H7.52103H7.52999H7.53894H7.54788H7.55681H7.56574H7.57467H7.58359H7.5925H7.60141H7.61031H7.6192H7.62809H7.63697H7.64585H7.65472H7.66359H7.67245H7.6813H7.69015H7.699H7.70784H7.71667H7.7255H7.73433H7.74314H7.75196H7.76077H7.76957H7.77837H7.78717H7.79596H7.80474H7.81353H7.8223H7.83107H7.83984H7.84861H7.85737H7.86612H7.87487H7.88362H7.89236H7.9011H7.90983H7.91857H7.92729H7.93602H7.94474H7.95345H7.96216H7.97087H7.97958H7.98828H7.99698H8.00568H8.01437H8.02306H8.03174H8.04043H8.04911H8.05778H8.06646H8.07513H8.0838H8.09246H8.10113H8.10979H8.11844H8.1271H8.13575H8.1444H8.15305H8.1617H8.17034H8.17898H8.18762H8.19626H8.20489H8.21353H8.22216H8.23079H8.23942H8.24804H8.25667H8.26529H8.27391H8.28253H8.29115H8.29977H8.30838H8.317H8.32561H8.33422H8.34284H8.35145H8.36005H8.36866H8.37727H8.38588H8.39448H8.40309H8.41169H8.4203H8.4289H8.4375H8.44611H8.45471H8.46331H8.47191H8.48052H8.48912H8.49772H8.50632H8.51492H8.52352H8.53212H8.54073H8.54933H8.55793H8.56654H8.57514H8.58374H8.59235H8.60095H8.60956H8.61817H8.62677H8.63538H8.64399H8.6526H8.66121H8.66982H8.67844H8.68705H8.69567H8.70429H8.7129H8.72152H8.73015H8.73877H8.74739H8.75602H8.76465H8.77328H8.78191H8.79054H8.79918H8.80782H8.81645H8.8251H8.83374H8.84239H8.85103H8.85968H8.86834H8.87699H8.88565H8.89431H8.90297H8.91164H8.92031H8.92898H8.93765H8.94633H8.95501H8.96369H8.97238H8.98107H8.98976H8.99846H9.00715H9.01586H9.02456H9.03327H9.04198H9.0507H9.05942H9.06814H9.07687H9.0856H9.09434H9.10308H9.11182H9.12057H9.12932H9.13807H9.14683H9.15559H9.16436H9.17313H9.18191H9.19069H9.19948H9.20827H9.21706H9.22586H9.23467H9.24348H9.25229H9.26111H9.26994H9.27876H9.2876H9.29644H9.30528H9.31413H9.32299H9.33185H9.34072H9.34959H9.35847H9.36735H9.37624H9.38513H9.39403H9.40294H9.41185H9.42077H9.42969H9.43862H9.44756H9.4565H9.46545H9.4744H9.48337H9.49233H9.50131H9.51029H9.51928H9.52827H9.53727H9.54628H9.55529H9.56431H9.57334H9.58238H9.59142H9.60047H9.60953H9.61859H9.62766H9.63674H9.64582H9.65492H9.66402H9.67313H9.68224H9.69137H9.7005H9.70964H9.71878H9.72794H9.7371H9.74627H9.75545H9.76464H9.77383H9.78304H9.79225H9.80147H9.8107H9.81993H9.82918H9.83843H9.8477H9.85697H9.86625H9.87554H9.88483H9.89414H9.90346H9.91278H9.92212H9.93146H9.94081H9.95017H9.95954H9.96892H9.97831H9.98771H9.99712H10.0065H10.016H10.0254H10.0349H10.0443H10.0538H10.0633H10.0727H10.0822H10.0917H10.1013H10.1108H10.1203H10.1299H10.1394H10.149H10.1586H10.1682H10.1778H10.1874H10.197H10.2066H10.2163H10.2259H10.2356H10.2453H10.255H10.2647H10.2744H10.2841H10.2938H10.3036H10.3133H10.3231H10.3329H10.3427H10.3525H10.3623H10.3721H10.382H10.3918H10.4017H10.4115H10.4214H10.4313H10.4412H10.4512H10.4611H10.471H10.481H10.491H10.501H10.511H10.521H10.531H10.541H10.5511H10.5611H10.5712H10.5813H10.5914H10.6015H10.6116H10.6218H10.6319H10.6421H10.6523H10.6624H10.6727H10.6829H10.6931H10.7033H10.7136H10.7239H10.7342H10.7445H10.7548H10.7651H10.7755H10.7858H10.7962H10.8066H10.817H10.8274H10.8378H10.8483H10.8587H11.2865C11.8034 20.1807 12.3203 21.4565 12.837 22.7322H12.6525H1.4334C1.43063 22.5754 1.42729 22.4196 1.42397 22.2648C1.40187 21.2345 1.38066 20.2457 1.53414 19.2577C1.82922 17.4173 2.67843 15.7103 3.96875 14.3642C5.25903 13.0181 6.92913 12.0967 8.75665 11.7228C9.15773 11.6431 9.56841 11.5876 9.98415 11.5431L9.98435 11.543C10.5581 11.4813 11.1043 11.2648 11.5644 10.9167C12.0245 10.5686 12.3813 10.1019 12.5964 9.56672C12.8115 9.03149 12.8769 8.44786 12.7856 7.87832C12.6942 7.30879 12.4496 6.77483 12.0779 6.33362C11.7062 5.89241 11.2214 5.56056 10.6755 5.37356C10.1296 5.18656 9.54314 5.15145 8.97882 5.27197C8.41449 5.3925 7.89356 5.66412 7.47181 6.05781C7.05006 6.45151 6.74337 6.95244 6.58463 7.50699C6.58104 7.5195 6.57748 7.53206 6.57395 7.54467L3.01989 6.18855C3.29219 5.13881 3.98212 4.10816 4.92253 3.26867C5.95857 2.3438 7.26594 1.68089 8.56793 1.48561C10.0744 1.2614 11.6131 1.52924 12.955 2.24925C14.2968 2.96923 15.37 4.10283 16.015 5.48132C17.1474 7.90816 17.0163 11.5377 13.6402 14.0114L13.3872 14.1968L13.5009 14.489ZM24.1614 10.7074C24.1614 10.7074 24.1611 10.7079 24.1606 10.7088L24.1614 10.7074ZM25.7902 16.1568L25.8371 16.0412L25.844 16.0583L25.7902 16.1568Z" fill="#7047D6" stroke="#433179" stroke-width="0.817012"/>
<path d="M24.573 19.2889H27.6064L25.9046 15.0835L25.7967 15.0781L19.541 30.5056H16.4363C14.4176 25.5238 12.3939 20.5294 10.3651 15.5224L13.1018 14.6856C14.7 18.629 16.3154 22.6134 17.9309 26.5967L18.0388 26.6096C19.0953 24.0497 20.1237 21.4779 21.1683 18.9105C22.2129 16.343 23.2618 13.7507 24.314 11.1584H27.3927C29.6229 16.6665 31.8531 22.1716 34.0833 27.6739L31.2895 28.336C31.2614 28.2745 31.2118 28.1721 31.1697 28.0686C30.4596 26.3232 29.7506 24.5777 29.0427 22.8323C28.8388 22.3266 28.8895 22.3805 28.3715 22.3794C26.8953 22.3794 25.4183 22.3794 23.9406 22.3794H23.3147C23.7485 21.3119 24.1532 20.3209 24.573 19.2889Z" fill="#F5F5F5"/>
</g>
<defs>
<filter id="filter0_d_1_2596" x="0.0740532" y="0.78213" width="43.846" height="41.6672" filterUnits="userSpaceOnUse" color-interpolation-filters="sRGB">
<feFlood flood-opacity="0" result="BackgroundImageFix"/>
<feColorMatrix in="SourceAlpha" type="matrix" values="0 0 0 0 0 0 0 0 0 0 0 0 0 0 0 0 0 0 127 0" result="hardAlpha"/>
<feOffset dy="0.708077"/>
<feGaussianBlur stdDeviation="0.462973"/>
<feComposite in2="hardAlpha" operator="out"/>
<feColorMatrix type="matrix" values="0 0 0 0 0 0 0 0 0 0 0 0 0 0 0 0 0 0 0.51 0"/>
<feBlend mode="normal" in2="BackgroundImageFix" result="effect1_dropShadow_1_2596"/>
<feBlend mode="normal" in="SourceGraphic" in2="effect1_dropShadow_1_2596" result="shape"/>
</filter>
<linearGradient id="paint0_linear_1_2596" x1="21.5894" y1="5.57178" x2="21.5894" y2="35.6378" gradientUnits="userSpaceOnUse">
<stop stop-color="white"/>
<stop offset="1" stop-color="#E8E8E8"/>
</linearGradient>
<linearGradient id="paint1_linear_1_2596" x1="21.5894" y1="5.57178" x2="21.5894" y2="35.6378" gradientUnits="userSpaceOnUse">
<stop stop-color="white"/>
<stop offset="1" stop-color="#E8E8E8"/>
</linearGradient>
</defs>
</svg>
