<svg width="35" height="30" viewBox="0 0 35 30" fill="none" xmlns="http://www.w3.org/2000/svg">
<path d="M2.77612 0.107777C1.49018 0.463301 0.461427 1.51475 0.113466 2.83095C0.0151287 3.21673 0 4.16228 0 9.54054C0 13.8144 0.0226931 15.9249 0.0832081 16.1972C0.400912 17.7176 1.7398 18.9506 3.26024 19.1246C3.91834 19.2002 4.06207 19.2532 4.11502 19.4196C4.13771 19.4953 4.00912 20.5013 3.82757 21.6662C3.53256 23.5498 3.5023 23.7994 3.60064 23.9507C3.85026 24.344 3.95617 24.2684 6.59613 21.6889L9.09237 19.2456L17.4207 19.2078L25.7567 19.17L26.2559 18.996C27.6024 18.5421 28.5933 17.3999 28.8202 16.0459C28.8732 15.6904 28.8959 13.6253 28.8808 9.26066L28.8581 2.98224L28.6841 2.53594C28.2227 1.30295 27.262 0.42548 26.0441 0.107777C25.6659 0.00943947 24.1076 -0.00568962 14.3723 0.00187492C5.31019 0.00943947 3.07113 0.0245686 2.77612 0.107777ZM5.80944 6.71903C5.87752 6.75686 6.10445 7.13507 6.31625 7.55112C6.52049 7.97472 6.73985 8.33025 6.80793 8.35294C6.86845 8.36807 7.25423 8.43615 7.67027 8.49666C8.41158 8.61013 8.69903 8.74629 8.69903 8.98078C8.69903 9.0413 8.40401 9.38926 8.04093 9.75991L7.38282 10.4331L7.51142 11.1669C7.69296 12.1881 7.6854 12.3091 7.44334 12.415C7.2618 12.4982 7.16346 12.468 6.45997 12.0973L5.68084 11.6813L4.85633 12.0897C3.64603 12.6873 3.54012 12.6117 3.75193 11.2652L3.88809 10.4256L3.26781 9.8053C2.6324 9.16989 2.51137 8.90514 2.74587 8.70846C2.79882 8.65551 3.19216 8.5723 3.6082 8.50423C4.02424 8.44371 4.41759 8.37563 4.48567 8.34537C4.55375 8.32268 4.76555 7.97472 4.95466 7.57381C5.3707 6.68878 5.50686 6.56018 5.80944 6.71903ZM14.6144 6.73416C14.6976 6.77955 14.9094 7.12751 15.0909 7.50573C15.2649 7.89151 15.454 8.23947 15.5145 8.29242C15.575 8.33781 15.9986 8.42858 16.4525 8.49666C17.2846 8.61769 17.4737 8.70846 17.4737 8.98835C17.4737 9.04886 17.1862 9.39682 16.8307 9.75991C16.4752 10.1154 16.1878 10.4634 16.1878 10.5163C16.1953 10.5769 16.2558 10.9626 16.339 11.3787C16.4601 12.0444 16.4676 12.1578 16.3693 12.3015C16.3088 12.3999 16.2029 12.4755 16.1272 12.4755C16.0592 12.4755 15.6507 12.3015 15.2271 12.0822L14.4555 11.6813L13.6613 12.0746C13.215 12.294 12.814 12.4755 12.7535 12.4755C12.7006 12.4755 12.5947 12.4074 12.519 12.3242C12.398 12.1881 12.398 12.1427 12.5115 11.5148C12.7157 10.4104 12.7157 10.4331 12.0273 9.76748C11.4071 9.16989 11.286 8.90514 11.5205 8.70846C11.5735 8.65551 11.9744 8.5723 12.4131 8.50423C12.8443 8.44371 13.2376 8.37563 13.2906 8.35294C13.3435 8.33781 13.5402 8.00498 13.7369 7.61919C14.221 6.64339 14.2967 6.56775 14.6144 6.73416ZM23.4647 6.77955C23.5328 6.85519 23.7446 7.23341 23.9337 7.61919C24.1303 8.00498 24.327 8.33781 24.38 8.35294C24.4329 8.37563 24.8263 8.44371 25.2574 8.50423C25.6962 8.5723 26.0971 8.65551 26.15 8.70846C26.3845 8.89757 26.2559 9.15476 25.6432 9.72965C24.9473 10.3878 24.9549 10.3651 25.1591 11.5224C25.265 12.1427 25.265 12.2032 25.144 12.3318C25.0759 12.415 24.97 12.4755 24.917 12.4755C24.8565 12.4755 24.4556 12.294 24.0093 12.0746L23.2075 11.6813L22.4586 12.0746C22.0501 12.294 21.6417 12.4755 21.5585 12.4755C21.4752 12.4755 21.3618 12.3999 21.3013 12.3015C21.1878 12.1276 21.1954 12.0897 21.445 10.6752C21.4904 10.4407 21.4526 10.3802 20.8323 9.74478C20.212 9.11694 20.1742 9.05643 20.2423 8.85975C20.3179 8.64038 20.3557 8.62526 21.5206 8.44371L22.1258 8.35294L22.5116 7.60406C22.9957 6.66608 23.2075 6.48454 23.4647 6.77955Z" fill="url(#paint0_linear_1_2457)"/>
<path d="M30.3327 10.4485C30.3327 16.7194 30.3402 16.5832 29.7578 17.7708C29.1526 18.9962 28.0558 19.9267 26.664 20.4032L26.0588 20.6074L17.8893 20.6301L9.7122 20.6528L8.36574 21.9993L7.01929 23.3457L7.23865 23.5046C7.35968 23.5954 7.64713 23.7391 7.87406 23.8374L8.28254 24.0114L16.7319 24.0492L25.1889 24.0871L26.1118 24.9948C26.6261 25.494 27.7608 26.6136 28.6383 27.4759C30.257 29.072 30.4461 29.2006 30.6958 28.9509C30.8319 28.8148 30.8092 28.5122 30.484 26.3866C30.1284 24.0719 30.1284 24.0492 30.8546 24.0492C31.2555 24.0492 31.959 23.8526 32.4053 23.6105C32.9348 23.3306 33.6534 22.5893 33.9031 22.0674C34.3494 21.1445 34.3418 21.3261 34.3418 14.4803C34.3418 7.65724 34.3494 7.80097 33.9182 6.9235C33.3509 5.76615 32.0195 4.91138 30.779 4.91138H30.3327V10.4485Z" fill="url(#paint1_linear_1_2457)"/>
<defs>
<linearGradient id="paint0_linear_1_2457" x1="14.0735" y1="24.02" x2="12.5971" y2="-0.017756" gradientUnits="userSpaceOnUse">
<stop offset="0.495281" stop-color="white"/>
<stop offset="1" stop-color="#A4A4A4"/>
</linearGradient>
<linearGradient id="paint1_linear_1_2457" x1="20.3314" y1="28.9435" x2="18.7695" y2="4.90415" gradientUnits="userSpaceOnUse">
<stop offset="0.495281" stop-color="white"/>
<stop offset="1" stop-color="#A4A4A4"/>
</linearGradient>
</defs>
</svg>
