<svg width="14" height="13" viewBox="0 0 14 13" fill="none" xmlns="http://www.w3.org/2000/svg">
<path fill-rule="evenodd" clip-rule="evenodd" d="M4.35462 3.05794C3.98705 3.10736 3.79241 3.19775 3.65377 3.33639C3.51514 3.47502 3.42474 3.66967 3.37532 4.03724C3.32445 4.41561 3.32365 4.91709 3.32365 5.63613V7.13891C3.32365 7.85793 3.32445 8.35941 3.37532 8.73778C3.42474 9.10535 3.51513 9.3 3.65377 9.43864C3.79241 9.57728 3.98705 9.66767 4.35462 9.71709C4.73299 9.76797 5.23448 9.76876 5.95351 9.76876H7.45629C8.17532 9.76876 8.6768 9.76797 9.05517 9.71709C9.42273 9.66767 9.61738 9.57728 9.75602 9.43864C9.89467 9.29999 9.98506 9.10535 10.0345 8.73778C10.0853 8.35941 10.0861 7.85793 10.0861 7.13891V5.63613C10.0861 4.91709 10.0853 4.41561 10.0345 4.03724C9.98506 3.66967 9.89467 3.47503 9.75603 3.33639C9.61738 3.19775 9.42273 3.10736 9.05517 3.05794C8.6768 3.00707 8.17532 3.00627 7.45629 3.00627H5.95351C5.23448 3.00627 4.73299 3.00707 4.35462 3.05794ZM5.92602 2.25488H7.48378C8.16883 2.25487 8.721 2.25486 9.15529 2.31325C9.60618 2.37387 9.98581 2.50356 10.2873 2.80508C10.5889 3.10659 10.7185 3.48623 10.7792 3.93711C10.8376 4.3714 10.8375 4.92358 10.8375 5.60865V7.16639C10.8375 7.85144 10.8376 8.40362 10.7792 8.83791C10.7185 9.28879 10.5889 9.66843 10.2873 9.96995C9.98581 10.2715 9.60618 10.4012 9.15529 10.4618C8.721 10.5202 8.16883 10.5202 7.48377 10.5202H5.92603C5.24097 10.5202 4.68878 10.5202 4.2545 10.4618C3.80361 10.4012 3.42397 10.2715 3.12246 9.96995C2.82094 9.66843 2.69126 9.28879 2.63064 8.83791C2.57225 8.40362 2.57226 7.85145 2.57227 7.16639V5.60864C2.57226 4.92358 2.57225 4.3714 2.63064 3.93711C2.69126 3.48623 2.82094 3.10659 3.12246 2.80508C3.12246 2.80508 3.12246 2.80508 3.12246 2.80508M3.12246 2.80508C3.42397 2.50356 3.80361 2.37387 4.2545 2.31325C4.68878 2.25486 5.24096 2.25487 5.92602 2.25488" fill="url(#paint0_linear_1_2125)"/>
<path d="M7.45143 4.88477H5.94865C5.53367 4.88477 5.19727 5.22117 5.19727 5.63615V7.13893C5.19727 7.55391 5.53367 7.89032 5.94865 7.89032H7.45143C7.86641 7.89032 8.20282 7.55391 8.20282 7.13893V5.63615C8.20282 5.22117 7.86641 4.88477 7.45143 4.88477Z" fill="url(#paint1_linear_1_2125)"/>
<path fill-rule="evenodd" clip-rule="evenodd" d="M5.20003 6.10352e-05C5.40752 6.10352e-05 5.57573 0.168265 5.57573 0.375755V2.62992C5.57573 2.83741 5.40752 3.00561 5.20003 3.00561C4.99254 3.00561 4.82434 2.83741 4.82434 2.62992V0.375755C4.82434 0.168265 4.99254 6.10352e-05 5.20003 6.10352e-05Z" fill="url(#paint2_linear_1_2125)"/>
<path fill-rule="evenodd" clip-rule="evenodd" d="M8.20187 0C8.40936 0 8.57756 0.168204 8.57756 0.375694V2.62986C8.57756 2.83735 8.40936 3.00555 8.20187 3.00555C7.99438 3.00555 7.82617 2.83735 7.82617 2.62986V0.375694C7.82617 0.168204 7.99438 0 8.20187 0Z" fill="url(#paint3_linear_1_2125)"/>
<path fill-rule="evenodd" clip-rule="evenodd" d="M10.084 4.88448C10.084 4.67699 10.2522 4.50879 10.4597 4.50879H12.7138C12.9213 4.50879 13.0895 4.67699 13.0895 4.88448C13.0895 5.09197 12.9213 5.26018 12.7138 5.26018H10.4597C10.2522 5.26018 10.084 5.09197 10.084 4.88448Z" fill="url(#paint4_linear_1_2125)"/>
<path fill-rule="evenodd" clip-rule="evenodd" d="M10.084 7.89034C10.084 7.68285 10.2522 7.51465 10.4597 7.51465H12.7138C12.9213 7.51465 13.0895 7.68285 13.0895 7.89034C13.0895 8.09783 12.9213 8.26604 12.7138 8.26604H10.4597C10.2522 8.26604 10.084 8.09783 10.084 7.89034Z" fill="url(#paint5_linear_1_2125)"/>
<path fill-rule="evenodd" clip-rule="evenodd" d="M5.20003 9.76855C5.40752 9.76855 5.57573 9.93676 5.57573 10.1442V12.3984C5.57573 12.6059 5.40752 12.7741 5.20003 12.7741C4.99254 12.7741 4.82434 12.6059 4.82434 12.3984V10.1442C4.82434 9.93676 4.99254 9.76855 5.20003 9.76855Z" fill="url(#paint6_linear_1_2125)"/>
<path fill-rule="evenodd" clip-rule="evenodd" d="M8.20187 9.76855C8.40936 9.76855 8.57756 9.93676 8.57756 10.1442V12.3984C8.57756 12.6059 8.40936 12.7741 8.20187 12.7741C7.99438 12.7741 7.82617 12.6059 7.82617 12.3984V10.1442C7.82617 9.93676 7.99438 9.76855 8.20187 9.76855Z" fill="url(#paint7_linear_1_2125)"/>
<path fill-rule="evenodd" clip-rule="evenodd" d="M0.314697 4.88473C0.314697 4.67724 0.482901 4.50903 0.690391 4.50903H2.94456C3.15205 4.50903 3.32025 4.67724 3.32025 4.88473C3.32025 5.09222 3.15205 5.26042 2.94456 5.26042H0.690391C0.482901 5.26042 0.314697 5.09222 0.314697 4.88473Z" fill="url(#paint8_linear_1_2125)"/>
<path fill-rule="evenodd" clip-rule="evenodd" d="M0.314697 7.89016C0.314697 7.68267 0.482901 7.51447 0.690391 7.51447H2.94456C3.15205 7.51447 3.32025 7.68267 3.32025 7.89016C3.32025 8.09765 3.15205 8.26585 2.94456 8.26585H0.690391C0.482901 8.26585 0.314697 8.09765 0.314697 7.89016Z" fill="url(#paint9_linear_1_2125)"/>
<defs>
<linearGradient id="paint0_linear_1_2125" x1="6.37295" y1="-3.95933" x2="16.0671" y2="1.96972" gradientUnits="userSpaceOnUse">
<stop offset="0.0106" stop-color="#7C53FF" stop-opacity="0.8"/>
<stop offset="0.9298" stop-color="#C27AFF" stop-opacity="0.8"/>
</linearGradient>
<linearGradient id="paint1_linear_1_2125" x1="6.57933" y1="2.62505" x2="10.1045" y2="4.78107" gradientUnits="userSpaceOnUse">
<stop offset="0.0106" stop-color="#7C53FF" stop-opacity="0.8"/>
<stop offset="0.9298" stop-color="#C27AFF" stop-opacity="0.8"/>
</linearGradient>
<linearGradient id="paint2_linear_1_2125" x1="5.16986" y1="-2.25965" x2="6.35314" y2="-2.07873" gradientUnits="userSpaceOnUse">
<stop offset="0.0106" stop-color="#7C53FF" stop-opacity="0.8"/>
<stop offset="0.9298" stop-color="#C27AFF" stop-opacity="0.8"/>
</linearGradient>
<linearGradient id="paint3_linear_1_2125" x1="8.17169" y1="-2.25971" x2="9.35497" y2="-2.07879" gradientUnits="userSpaceOnUse">
<stop offset="0.0106" stop-color="#7C53FF" stop-opacity="0.8"/>
<stop offset="0.9298" stop-color="#C27AFF" stop-opacity="0.8"/>
</linearGradient>
<linearGradient id="paint4_linear_1_2125" x1="11.4661" y1="3.94386" x2="12.1595" y2="5.64034" gradientUnits="userSpaceOnUse">
<stop offset="0.0106" stop-color="#7C53FF" stop-opacity="0.8"/>
<stop offset="0.9298" stop-color="#C27AFF" stop-opacity="0.8"/>
</linearGradient>
<linearGradient id="paint5_linear_1_2125" x1="11.4661" y1="6.94972" x2="12.1595" y2="8.6462" gradientUnits="userSpaceOnUse">
<stop offset="0.0106" stop-color="#7C53FF" stop-opacity="0.8"/>
<stop offset="0.9298" stop-color="#C27AFF" stop-opacity="0.8"/>
</linearGradient>
<linearGradient id="paint6_linear_1_2125" x1="5.16986" y1="7.50884" x2="6.35314" y2="7.68977" gradientUnits="userSpaceOnUse">
<stop offset="0.0106" stop-color="#7C53FF" stop-opacity="0.8"/>
<stop offset="0.9298" stop-color="#C27AFF" stop-opacity="0.8"/>
</linearGradient>
<linearGradient id="paint7_linear_1_2125" x1="8.17169" y1="7.50884" x2="9.35497" y2="7.68977" gradientUnits="userSpaceOnUse">
<stop offset="0.0106" stop-color="#7C53FF" stop-opacity="0.8"/>
<stop offset="0.9298" stop-color="#C27AFF" stop-opacity="0.8"/>
</linearGradient>
<linearGradient id="paint8_linear_1_2125" x1="1.69676" y1="3.9441" x2="2.39021" y2="5.64058" gradientUnits="userSpaceOnUse">
<stop offset="0.0106" stop-color="#7C53FF" stop-opacity="0.8"/>
<stop offset="0.9298" stop-color="#C27AFF" stop-opacity="0.8"/>
</linearGradient>
<linearGradient id="paint9_linear_1_2125" x1="1.69676" y1="6.94954" x2="2.39021" y2="8.64601" gradientUnits="userSpaceOnUse">
<stop offset="0.0106" stop-color="#7C53FF" stop-opacity="0.8"/>
<stop offset="0.9298" stop-color="#C27AFF" stop-opacity="0.8"/>
</linearGradient>
</defs>
</svg>
