<svg width="16" height="11" viewBox="0 0 16 11" fill="none" xmlns="http://www.w3.org/2000/svg">
<path d="M14.5919 1.33871H1.91622C1.91622 0.691547 1.38971 0.165039 0.742546 0.165039C0.612915 0.165039 0.507812 0.270141 0.507812 0.399773C0.507812 0.529405 0.612915 0.634507 0.742546 0.634507C1.13086 0.634507 1.44675 0.9504 1.44675 1.33871V9.78913C1.44675 9.91876 1.55185 10.0239 1.68148 10.0239C1.81111 10.0239 1.91622 9.91876 1.91622 9.78913V9.5544H2.38598C2.77411 9.5544 3.08989 9.23862 3.08989 8.85049V8.8502H14.5919C15.1096 8.8502 15.5308 8.42902 15.5308 7.91135V2.27756C15.5308 1.75988 15.1096 1.33871 14.5919 1.33871ZM15.0613 7.91135C15.0613 8.17017 14.8508 8.38073 14.5919 8.38073H2.85515C2.72552 8.38073 2.62042 8.48583 2.62042 8.61546V8.85049C2.62042 8.97977 2.51526 9.08493 2.38598 9.08493H1.91622V1.80818H14.5919C14.8508 1.80818 15.0613 2.01873 15.0613 2.27756V7.91135Z" fill="url(#paint0_linear_1_2108)"/>
<path d="M7.54804 3.21619C6.87547 3.21619 6.28467 3.57181 5.95293 4.10465C5.92993 4.12957 5.91247 4.15911 5.90197 4.19133C5.75438 4.4594 5.67017 4.76704 5.67017 5.09406C5.67017 5.42873 5.75857 5.74295 5.91265 6.01536C5.91813 6.02704 5.92459 6.03819 5.93189 6.04881C6.25929 6.60087 6.86103 6.97193 7.54804 6.97193C8.58351 6.97193 9.42591 6.12953 9.42591 5.09406C9.42591 4.75939 9.3375 4.44517 9.18343 4.17276C9.17794 4.16108 9.17149 4.14993 9.16418 4.13931C8.83679 3.58724 8.23505 3.21619 7.54804 3.21619ZM6.13963 5.09406C6.13963 4.9651 6.15739 4.84031 6.19001 4.72156C6.29553 4.81481 6.43804 4.91903 6.63117 5.03053C6.81825 5.13854 6.9757 5.20887 7.10674 5.25388C7.0298 5.31436 6.93107 5.38255 6.80722 5.45402C6.55931 5.59715 6.37249 5.66056 6.2685 5.68148C6.18599 5.50255 6.13963 5.30368 6.13963 5.09406ZM8.95644 5.09406C8.95644 5.21445 8.94118 5.33134 8.91263 5.44296C8.8065 5.34827 8.662 5.24203 8.46491 5.12824C8.29003 5.02728 8.14109 4.95929 8.01536 4.91411C8.08822 4.8588 8.17862 4.79774 8.28886 4.73409C8.53671 4.59102 8.72359 4.52756 8.82757 4.50664C8.91008 4.68556 8.95644 4.88444 8.95644 5.09406ZM8.54413 4.09934C8.41027 4.14406 8.24816 4.21554 8.05415 4.32753C7.87071 4.43346 7.7328 4.53284 7.62899 4.62245C7.61582 4.52723 7.60672 4.41089 7.60672 4.27249C7.60672 3.98603 7.64528 3.79243 7.67917 3.69196C8.01557 3.72318 8.31808 3.87297 8.54413 4.09934ZM7.18476 3.73339C7.15647 3.8718 7.13725 4.04814 7.13725 4.27249C7.13725 4.47952 7.1536 4.64575 7.17836 4.77893C7.08969 4.74278 6.985 4.69272 6.86587 4.62394C6.62228 4.48331 6.47475 4.3552 6.40318 4.27528C6.59079 4.0137 6.86552 3.81872 7.18476 3.73339ZM6.55186 6.08869C6.68577 6.04397 6.8478 5.97267 7.04192 5.86058C7.22537 5.75466 7.36327 5.65528 7.46708 5.56567C7.48026 5.66088 7.48935 5.77722 7.48935 5.91563C7.48935 6.20209 7.4508 6.39569 7.41691 6.49615C7.08048 6.46493 6.7779 6.31512 6.55186 6.08869ZM7.91132 6.45472C7.9396 6.31632 7.95882 6.13997 7.95882 5.91563C7.95882 5.69166 7.93966 5.51555 7.91146 5.37729C8.00143 5.41359 8.10829 5.46444 8.2302 5.5348C8.48735 5.68327 8.63782 5.81801 8.70445 5.89658C8.51667 6.16638 8.23716 6.36764 7.91132 6.45472Z" fill="url(#paint1_linear_1_2108)"/>
<path d="M13.4175 2.51233C13.2878 2.51233 13.1827 2.61743 13.1827 2.74706C13.1827 2.87669 13.2878 2.9818 13.4175 2.9818C13.6763 2.9818 13.8869 3.19241 13.8869 3.45126V6.73754C13.8869 6.99639 13.6763 7.20701 13.4175 7.20701H7.54912C6.38422 7.20701 5.43651 6.2593 5.43651 5.0944C5.43651 3.92951 6.38422 2.9818 7.54912 2.9818H12.4785C12.6082 2.9818 12.7133 2.87669 12.7133 2.74706C12.7133 2.61743 12.6082 2.51233 12.4785 2.51233H7.54912C6.12537 2.51233 4.96704 3.67065 4.96704 5.0944C4.96704 6.51815 6.12537 7.67648 7.54912 7.67648H13.4175C13.9352 7.67648 14.3564 7.25527 14.3564 6.73754V3.45126C14.3564 2.93353 13.9352 2.51233 13.4175 2.51233Z" fill="url(#paint2_linear_1_2108)"/>
<path d="M3.79489 4.38983H3.09068C2.83183 4.38983 2.62122 4.60045 2.62122 4.8593V5.32877C2.62122 5.58762 2.83183 5.79824 3.09068 5.79824H3.79489C4.05374 5.79824 4.26435 5.58762 4.26435 5.32877V4.8593C4.26435 4.60045 4.05374 4.38983 3.79489 4.38983ZM3.09068 5.32877V4.8593H3.79489L3.79491 5.32877H3.09068Z" fill="url(#paint3_linear_1_2108)"/>
<path d="M3.79489 2.7467H3.09068C2.83183 2.7467 2.62122 2.95732 2.62122 3.21617V3.68564C2.62122 3.94449 2.83183 4.15511 3.09068 4.15511H3.79489C4.05374 4.15511 4.26435 3.94449 4.26435 3.68564V3.21617C4.26435 2.95732 4.05374 2.7467 3.79489 2.7467ZM3.09068 3.68564V3.21617H3.79489L3.79491 3.68564H3.09068Z" fill="url(#paint4_linear_1_2108)"/>
<path d="M3.79489 6.03278H3.09068C2.83183 6.03278 2.62122 6.24339 2.62122 6.50224V6.97171C2.62122 7.23056 2.83183 7.44118 3.09068 7.44118H3.79489C4.05374 7.44118 4.26435 7.23056 4.26435 6.97171V6.50224C4.26435 6.24339 4.05374 6.03278 3.79489 6.03278ZM3.09068 6.97171V6.50224H3.79489L3.79491 6.97171H3.09068Z" fill="url(#paint5_linear_1_2108)"/>
<path d="M13.1811 3.4502H12.4769C12.3473 3.4502 12.2422 3.5553 12.2422 3.68493C12.2422 3.81456 12.3473 3.91966 12.4769 3.91966H13.1811C13.3108 3.91966 13.4159 3.81456 13.4159 3.68493C13.4159 3.5553 13.3108 3.4502 13.1811 3.4502Z" fill="url(#paint6_linear_1_2108)"/>
<path d="M13.1811 6.26709H12.4769C12.3473 6.26709 12.2422 6.37219 12.2422 6.50182C12.2422 6.63146 12.3473 6.73656 12.4769 6.73656H13.1811C13.3108 6.73656 13.4159 6.63146 13.4159 6.50182C13.4159 6.37219 13.3108 6.26709 13.1811 6.26709Z" fill="url(#paint7_linear_1_2108)"/>
<path d="M13.1811 4.15527H12.4769C12.3473 4.15527 12.2422 4.26038 12.2422 4.39001C12.2422 4.51964 12.3473 4.62474 12.4769 4.62474H13.1811C13.3108 4.62474 13.4159 4.51964 13.4159 4.39001C13.4159 4.26038 13.3108 4.15527 13.1811 4.15527Z" fill="url(#paint8_linear_1_2108)"/>
<path d="M13.1811 4.85889H12.4769C12.3473 4.85889 12.2422 4.96399 12.2422 5.09362C12.2422 5.22325 12.3473 5.32835 12.4769 5.32835H13.1811C13.3108 5.32835 13.4159 5.22325 13.4159 5.09362C13.4159 4.96399 13.3108 4.85889 13.1811 4.85889Z" fill="url(#paint9_linear_1_2108)"/>
<path d="M13.1811 5.56348H12.4769C12.3473 5.56348 12.2422 5.66858 12.2422 5.79821C12.2422 5.92784 12.3473 6.03294 12.4769 6.03294H13.1811C13.3108 6.03294 13.4159 5.92784 13.4159 5.79821C13.4159 5.66858 13.3108 5.56348 13.1811 5.56348Z" fill="url(#paint10_linear_1_2108)"/>
<defs>
<linearGradient id="paint0_linear_1_2108" x1="7.41595" y1="-7.24728" x2="20.3729" y2="4.82834" gradientUnits="userSpaceOnUse">
<stop offset="0.0106" stop-color="#7C53FF" stop-opacity="0.8"/>
<stop offset="0.9298" stop-color="#C27AFF" stop-opacity="0.8"/>
</linearGradient>
<linearGradient id="paint1_linear_1_2108" x1="7.3972" y1="0.392445" x2="11.8022" y2="3.08661" gradientUnits="userSpaceOnUse">
<stop offset="0.0106" stop-color="#7C53FF" stop-opacity="0.8"/>
<stop offset="0.9298" stop-color="#C27AFF" stop-opacity="0.8"/>
</linearGradient>
<linearGradient id="paint2_linear_1_2108" x1="9.28463" y1="-1.37032" x2="16.0503" y2="6.15324" gradientUnits="userSpaceOnUse">
<stop offset="0.0106" stop-color="#7C53FF" stop-opacity="0.8"/>
<stop offset="0.9298" stop-color="#C27AFF" stop-opacity="0.8"/>
</linearGradient>
<linearGradient id="paint3_linear_1_2108" x1="3.37679" y1="3.33093" x2="5.13149" y2="4.58299" gradientUnits="userSpaceOnUse">
<stop offset="0.0106" stop-color="#7C53FF" stop-opacity="0.8"/>
<stop offset="0.9298" stop-color="#C27AFF" stop-opacity="0.8"/>
</linearGradient>
<linearGradient id="paint4_linear_1_2108" x1="3.37679" y1="1.6878" x2="5.13149" y2="2.93986" gradientUnits="userSpaceOnUse">
<stop offset="0.0106" stop-color="#7C53FF" stop-opacity="0.8"/>
<stop offset="0.9298" stop-color="#C27AFF" stop-opacity="0.8"/>
</linearGradient>
<linearGradient id="paint5_linear_1_2108" x1="3.37679" y1="4.97387" x2="5.13149" y2="6.22593" gradientUnits="userSpaceOnUse">
<stop offset="0.0106" stop-color="#7C53FF" stop-opacity="0.8"/>
<stop offset="0.9298" stop-color="#C27AFF" stop-opacity="0.8"/>
</linearGradient>
<linearGradient id="paint6_linear_1_2108" x1="12.7819" y1="3.09723" x2="13.3486" y2="3.96368" gradientUnits="userSpaceOnUse">
<stop offset="0.0106" stop-color="#7C53FF" stop-opacity="0.8"/>
<stop offset="0.9298" stop-color="#C27AFF" stop-opacity="0.8"/>
</linearGradient>
<linearGradient id="paint7_linear_1_2108" x1="12.7819" y1="5.91412" x2="13.3486" y2="6.78057" gradientUnits="userSpaceOnUse">
<stop offset="0.0106" stop-color="#7C53FF" stop-opacity="0.8"/>
<stop offset="0.9298" stop-color="#C27AFF" stop-opacity="0.8"/>
</linearGradient>
<linearGradient id="paint8_linear_1_2108" x1="12.7819" y1="3.80231" x2="13.3486" y2="4.66876" gradientUnits="userSpaceOnUse">
<stop offset="0.0106" stop-color="#7C53FF" stop-opacity="0.8"/>
<stop offset="0.9298" stop-color="#C27AFF" stop-opacity="0.8"/>
</linearGradient>
<linearGradient id="paint9_linear_1_2108" x1="12.7819" y1="4.50592" x2="13.3486" y2="5.37237" gradientUnits="userSpaceOnUse">
<stop offset="0.0106" stop-color="#7C53FF" stop-opacity="0.8"/>
<stop offset="0.9298" stop-color="#C27AFF" stop-opacity="0.8"/>
</linearGradient>
<linearGradient id="paint10_linear_1_2108" x1="12.7819" y1="5.21051" x2="13.3486" y2="6.07696" gradientUnits="userSpaceOnUse">
<stop offset="0.0106" stop-color="#7C53FF" stop-opacity="0.8"/>
<stop offset="0.9298" stop-color="#C27AFF" stop-opacity="0.8"/>
</linearGradient>
</defs>
</svg>
