<svg width="39" height="39" viewBox="0 0 39 39" fill="none" xmlns="http://www.w3.org/2000/svg">
<circle cx="19.2326" cy="19.2326" r="18.7326" fill="url(#paint0_linear_1_3459)" stroke="url(#paint1_linear_1_3459)"/>
<g filter="url(#filter0_d_1_3459)">
<path d="M10.5096 18.2327C9.95736 18.2327 9.50964 18.6804 9.50964 19.2327C9.50964 19.785 9.95736 20.2327 10.5096 20.2327V18.2327ZM28.6628 19.9398C29.0533 19.5492 29.0533 18.9161 28.6628 18.5256L22.2988 12.1616C21.9083 11.7711 21.2751 11.7711 20.8846 12.1616C20.4941 12.5521 20.4941 13.1853 20.8846 13.5758L26.5415 19.2327L20.8846 24.8895C20.4941 25.28 20.4941 25.9132 20.8846 26.3037C21.2751 26.6943 21.9083 26.6943 22.2988 26.3037L28.6628 19.9398ZM10.5096 20.2327H27.9557V18.2327H10.5096V20.2327Z" fill="white"/>
</g>
<defs>
<filter id="filter0_d_1_3459" x="4.96964" y="11.8687" width="28.526" height="23.808" filterUnits="userSpaceOnUse" color-interpolation-filters="sRGB">
<feFlood flood-opacity="0" result="BackgroundImageFix"/>
<feColorMatrix in="SourceAlpha" type="matrix" values="0 0 0 0 0 0 0 0 0 0 0 0 0 0 0 0 0 0 127 0" result="hardAlpha"/>
<feOffset dy="4.54"/>
<feGaussianBlur stdDeviation="2.27"/>
<feComposite in2="hardAlpha" operator="out"/>
<feColorMatrix type="matrix" values="0 0 0 0 0 0 0 0 0 0 0 0 0 0 0 0 0 0 0.25 0"/>
<feBlend mode="normal" in2="BackgroundImageFix" result="effect1_dropShadow_1_3459"/>
<feBlend mode="normal" in="SourceGraphic" in2="effect1_dropShadow_1_3459" result="shape"/>
</filter>
<linearGradient id="paint0_linear_1_3459" x1="17.6878" y1="-28.92" x2="62.8028" y2="-1.32712" gradientUnits="userSpaceOnUse">
<stop offset="0.0106" stop-color="#7C53FF" stop-opacity="0.8"/>
<stop offset="0.9298" stop-color="#C27AFF" stop-opacity="0.8"/>
</linearGradient>
<linearGradient id="paint1_linear_1_3459" x1="17.6878" y1="-28.92" x2="62.8028" y2="-1.32712" gradientUnits="userSpaceOnUse">
<stop offset="0.0106" stop-color="#7C53FF" stop-opacity="0.8"/>
<stop offset="0.9298" stop-color="#C27AFF" stop-opacity="0.8"/>
</linearGradient>
</defs>
</svg>
