<svg width="23" height="19" viewBox="0 0 23 19" fill="none" xmlns="http://www.w3.org/2000/svg">
<path d="M8.28446 4.10505C8.20429 4.06642 8.11689 4.04525 8.02798 4.04292H5.19456C5.00474 4.04454 4.81675 4.00518 4.64353 3.92742C4.46927 3.84922 4.31409 3.73404 4.18874 3.58989C4.06339 3.44575 3.97089 3.27608 3.91763 3.09263C3.86437 2.90919 3.85164 2.71636 3.88032 2.5275L3.88198 2.51662L3.88406 2.50581C3.94483 2.19238 4.11417 1.91042 4.36232 1.70955C4.60903 1.50983 4.91787 1.40298 5.23517 1.40749H14.4967H14.5074L14.518 1.4079C14.9842 1.4263 15.4247 1.62652 15.7451 1.96568L15.7652 1.98693L15.7828 2.01022C15.9216 2.19329 16.0229 2.40195 16.0809 2.62424C16.1389 2.84653 16.1524 3.07808 16.1207 3.30561L16.1194 3.31533L16.1177 3.325L16.1109 3.3638C16.3028 3.3844 16.4904 3.43747 16.6653 3.52113C16.8915 3.62931 17.0911 3.786 17.2499 3.98003L17.2595 3.99182L17.2684 4.00414L20.4998 8.44242L20.6339 8.62653L20.5953 8.851L19.7394 13.8311C19.6732 14.2437 19.4644 14.62 19.1493 14.8945C18.8331 15.1699 18.4301 15.3252 18.0109 15.3332L18.0058 15.3333H18.0006H17.5954C17.3678 15.8441 17.0117 16.2902 16.559 16.6262C15.9963 17.0438 15.3142 17.2692 14.6135 17.2692C13.9128 17.2692 13.2307 17.0438 12.668 16.6262C12.2153 16.2902 11.8593 15.8441 11.6317 15.3333H10.5876C10.36 15.8441 10.0039 16.2902 9.55119 16.6262C8.98851 17.0438 8.30642 17.2692 7.60571 17.2692C6.905 17.2692 6.22291 17.0438 5.66023 16.6262C5.20749 16.2902 4.85146 15.8441 4.62387 15.3333H4.02393H4.01962L4.01527 15.3332C3.78178 15.3294 3.55187 15.2755 3.34105 15.1751C3.13357 15.0763 2.94938 14.9348 2.80054 14.7598C2.64129 14.5827 2.52277 14.3728 2.4534 14.1448C2.38295 13.9134 2.36494 13.6691 2.40069 13.4298L2.40211 13.4203L2.40387 13.4109L2.71533 11.7367L2.71618 11.7322L2.7171 11.7276C2.77871 11.4255 2.94431 11.1546 3.18508 10.962C3.42424 10.7706 3.72256 10.6686 4.02867 10.6734H7.09357C7.2385 10.6695 7.37772 10.6157 7.48758 10.521C7.5986 10.4253 7.6727 10.2939 7.6971 10.1494L7.69753 10.1468L8.63151 4.77651C8.63155 4.77619 8.63162 4.77583 8.63169 4.77547C8.64657 4.68663 8.64219 4.59564 8.61883 4.5086C8.59539 4.42127 8.55338 4.33998 8.49567 4.27033M8.28446 4.10505L8.51849 3.61943M8.28446 4.10505C8.36593 4.1443 8.43799 4.20068 8.49567 4.27033M8.49567 4.27033L8.91078 3.92641M7.60571 14.6444C7.43893 14.6444 7.27897 14.5782 7.16102 14.4603C7.04307 14.3423 6.9768 14.1824 6.9768 14.0155C6.9768 13.8488 7.04307 13.6888 7.16102 13.5708C7.27897 13.4529 7.43893 13.3866 7.60571 13.3866C7.7725 13.3866 7.93249 13.4529 8.0504 13.5708C8.16835 13.6888 8.23462 13.8488 8.23462 14.0155C8.23462 14.1824 8.16835 14.3423 8.0504 14.4603C7.93249 14.5782 7.7725 14.6444 7.60571 14.6444ZM14.6135 14.6444C14.4467 14.6444 14.2868 14.5782 14.1688 14.4603C14.0509 14.3423 13.9846 14.1824 13.9846 14.0155C13.9846 13.8488 14.0509 13.6888 14.1688 13.5708C14.2868 13.4529 14.4467 13.3866 14.6135 13.3866C14.7803 13.3866 14.9403 13.4529 15.0582 13.5708C15.1762 13.6888 15.2424 13.8488 15.2424 14.0155C15.2424 14.1824 15.1762 14.3423 15.0582 14.4603C14.9403 14.5782 14.7803 14.6444 14.6135 14.6444ZM15.6084 6.22957L16.9333 8.02598H15.294L15.6084 6.22957Z" stroke="white" stroke-width="1.07812"/>
<path d="M3.59375 6.28906H7.1875C7.44025 6.28906 7.70999 6.2403 7.9368 6.12691C8.13841 6.02611 8.44531 5.79352 8.44531 5.39062C8.44531 4.98773 8.13841 4.75514 7.9368 4.65437C7.70999 4.54095 7.44025 4.49219 7.1875 4.49219H3.59375C3.34101 4.49219 3.07125 4.54095 2.84444 4.65437C2.64285 4.75514 2.33594 4.98773 2.33594 5.39062C2.33594 5.79352 2.64285 6.02611 2.84444 6.12691C3.07125 6.2403 3.34101 6.28906 3.59375 6.28906Z" stroke="white" stroke-width="1.07812"/>
<path d="M8.08594 7.54688C8.08594 7.14398 7.77903 6.91139 7.57742 6.81062C7.35062 6.69721 7.08087 6.64844 6.82812 6.64844H3.95312C3.70038 6.64844 3.43063 6.69721 3.20382 6.81062C3.00223 6.91139 2.69531 7.14398 2.69531 7.54688C2.69531 7.94977 3.00223 8.18236 3.20382 8.28316C3.43063 8.39655 3.70038 8.44531 3.95312 8.44531H6.82812C7.08087 8.44531 7.35062 8.39655 7.57742 8.28316C7.77903 8.18236 8.08594 7.94977 8.08594 7.54688Z" stroke="white" stroke-width="1.07812"/>
<path d="M4.3125 8.80469C4.05975 8.80469 3.79 8.85346 3.56319 8.96687C3.3616 9.06764 3.05469 9.30023 3.05469 9.70312C3.05469 10.106 3.3616 10.3386 3.56319 10.4394C3.79 10.5528 4.05975 10.6016 4.3125 10.6016H6.46875C6.7215 10.6016 6.99124 10.5528 7.21805 10.4394C7.41966 10.3386 7.72656 10.106 7.72656 9.70312C7.72656 9.30023 7.41966 9.06764 7.21805 8.96687C6.99124 8.85346 6.7215 8.80469 6.46875 8.80469H4.3125Z" stroke="white" stroke-width="1.07812"/>
</svg>
