<svg width="47" height="38" viewBox="0 0 47 38" fill="none" xmlns="http://www.w3.org/2000/svg">
<path d="M16.931 8.34733C16.7672 8.26877 16.5886 8.22573 16.4069 8.22098H10.6168C10.2289 8.22427 9.84478 8.14425 9.49082 7.98611C9.13472 7.8271 8.81761 7.59288 8.56146 7.29978C8.30531 7.00667 8.11629 6.66165 8.00745 6.28863C7.89862 5.9156 7.87262 5.52349 7.93122 5.13947L7.9346 5.11733L7.93886 5.09535C8.06304 4.45802 8.40908 3.88467 8.91617 3.4762C9.42032 3.07009 10.0514 2.85282 10.6998 2.86197H29.6256H29.6474L29.669 2.86282C30.6217 2.90022 31.5218 3.30736 32.1766 3.99704L32.2177 4.04024L32.2537 4.0876C32.5373 4.45986 32.7443 4.88416 32.8628 5.33617C32.9813 5.78819 33.009 6.25903 32.9443 6.72171L32.9415 6.74147L32.938 6.76112L32.9241 6.84004C33.3164 6.88192 33.6996 6.98982 34.057 7.15995C34.5192 7.37994 34.9271 7.69855 35.2516 8.0931L35.2713 8.11707L35.2896 8.14213L41.8928 17.1671L42.1668 17.5415L42.088 17.9979L40.3388 28.1246C40.2037 28.9636 39.777 29.729 39.133 30.2871C38.4869 30.8471 37.6633 31.1629 36.8067 31.179L36.7963 31.1793H36.7858H35.9576C35.4926 32.2181 34.765 33.1251 33.8398 33.8084C32.69 34.6575 31.2962 35.116 29.8643 35.116C28.4324 35.116 27.0386 34.6575 25.8887 33.8084C24.9636 33.1251 24.236 32.2181 23.771 31.1793H21.6373C21.1723 32.2181 20.4447 33.1251 19.5195 33.8084C18.3697 34.6575 16.9759 35.116 15.544 35.116C14.1121 35.116 12.7182 34.6575 11.5684 33.8084C10.6433 33.1251 9.91573 32.2181 9.45065 31.1793H8.22468H8.21587L8.20698 31.1791C7.72986 31.1715 7.26003 31.0619 6.82924 30.8577C6.40526 30.6568 6.02887 30.369 5.72471 30.0132C5.39928 29.6531 5.1571 29.2262 5.01534 28.7627C4.87137 28.292 4.83458 27.7953 4.90763 27.3087L4.91053 27.2893L4.91412 27.2702L5.55059 23.8659L5.55232 23.8567L5.55421 23.8475C5.6801 23.2331 6.0185 22.6822 6.5105 22.2905C6.99924 21.9014 7.60883 21.694 8.23437 21.7036H14.4974C14.7936 21.6959 15.0781 21.5865 15.3026 21.3938C15.5294 21.1993 15.6809 20.932 15.7307 20.6381L15.7316 20.6328L17.6402 9.7127C17.6402 9.71204 17.6404 9.71131 17.6405 9.71058C17.6709 9.52993 17.662 9.3449 17.6143 9.16791C17.5664 8.99033 17.4805 8.82503 17.3626 8.68341M16.931 8.34733L17.4092 7.35984M16.931 8.34733C17.0975 8.42713 17.2447 8.54179 17.3626 8.68341M17.3626 8.68341L18.2109 7.98407M15.544 29.7786C15.2032 29.7786 14.8763 29.6439 14.6353 29.4041C14.3942 29.1642 14.2588 28.839 14.2588 28.4998C14.2588 28.1606 14.3942 27.8353 14.6353 27.5955C14.8763 27.3557 15.2032 27.2209 15.544 27.2209C15.8848 27.2209 16.2117 27.3557 16.4527 27.5955C16.6937 27.8353 16.8291 28.1606 16.8291 28.4998C16.8291 28.839 16.6937 29.1642 16.4527 29.4041C16.2117 29.6439 15.8848 29.7786 15.544 29.7786ZM29.8643 29.7786C29.5235 29.7786 29.1966 29.6439 28.9556 29.4041C28.7145 29.1642 28.5791 28.839 28.5791 28.4998C28.5791 28.1606 28.7145 27.8353 28.9556 27.5955C29.1966 27.3557 29.5235 27.2209 29.8643 27.2209C30.2051 27.2209 30.532 27.3557 30.773 27.5955C31.014 27.8353 31.1494 28.1606 31.1494 28.4998C31.1494 28.839 31.014 29.1642 30.773 29.4041C30.532 29.6439 30.2051 29.7786 29.8643 29.7786ZM31.8973 12.6674L34.6046 16.3203H31.2549L31.8973 12.6674Z" stroke="white" stroke-width="1.07812"/>
<path d="M7.34375 12.7885H14.6875C15.204 12.7885 15.7552 12.6893 16.2187 12.4588C16.6307 12.2538 17.2578 11.7808 17.2578 10.9616C17.2578 10.1423 16.6307 9.66935 16.2187 9.46444C15.7552 9.23381 15.204 9.13464 14.6875 9.13464H7.34375C6.82729 9.13464 6.27603 9.23381 5.81256 9.46444C5.40061 9.66935 4.77344 10.1423 4.77344 10.9616C4.77344 11.7808 5.40061 12.2538 5.81256 12.4588C6.27603 12.6893 6.82729 12.7885 7.34375 12.7885Z" stroke="white" stroke-width="1.07812"/>
<path d="M16.5234 15.3462C16.5234 14.5269 15.8963 14.054 15.4843 13.8491C15.0208 13.6185 14.4696 13.5193 13.9531 13.5193H8.07812C7.56164 13.5193 7.01041 13.6185 6.54693 13.8491C6.13498 14.054 5.50781 14.5269 5.50781 15.3462C5.50781 16.1655 6.13498 16.6384 6.54693 16.8434C7.01041 17.074 7.56164 17.1731 8.07812 17.1731H13.9531C14.4696 17.1731 15.0208 17.074 15.4843 16.8434C15.8963 16.6384 16.5234 16.1655 16.5234 15.3462Z" stroke="white" stroke-width="1.07812"/>
<path d="M8.8125 17.9038C8.29601 17.9038 7.74479 18.003 7.28131 18.2336C6.86936 18.4385 6.24219 18.9115 6.24219 19.7307C6.24219 20.55 6.86936 21.023 7.28131 21.2279C7.74479 21.4585 8.29601 21.5577 8.8125 21.5577H13.2188C13.7352 21.5577 14.2865 21.4585 14.7499 21.2279C15.1619 21.023 15.7891 20.55 15.7891 19.7307C15.7891 18.9115 15.1619 18.4385 14.7499 18.2336C14.2865 18.003 13.7352 17.9038 13.2188 17.9038H8.8125Z" stroke="white" stroke-width="1.07812"/>
</svg>
