<svg width="104" height="112" viewBox="0 0 104 112" fill="none" xmlns="http://www.w3.org/2000/svg">
<path d="M22.9364 30.1871C22.1645 30.4124 21.6339 31.12 21.6339 31.9241V48.9853C21.6339 67.7095 33.6175 84.3321 51.382 90.2495C51.7532 90.3732 52.1546 90.3732 52.5258 90.2495C70.2856 84.3319 82.2655 67.7129 82.2655 48.9932V31.9241C82.2655 31.1202 81.7351 30.4126 80.9634 30.1872L52.4707 21.8639C52.1395 21.7672 51.7876 21.7671 51.4564 21.8638L22.9364 30.1871Z" fill="#2F2D2D" stroke="#7047D6" stroke-width="3.61898" stroke-linejoin="round"/>
<g filter="url(#filter0_f_1_5313)">
<path d="M22.9364 30.1871C22.1645 30.4124 21.6339 31.12 21.6339 31.9241V48.9853C21.6339 67.7095 33.6175 84.3321 51.382 90.2495C51.7532 90.3732 52.1546 90.3732 52.5258 90.2495C70.2856 84.3319 82.2655 67.7129 82.2655 48.9932V31.9241C82.2655 31.1202 81.7351 30.4126 80.9634 30.1872L52.4707 21.8639C52.1395 21.7672 51.7876 21.7671 51.4564 21.8638L22.9364 30.1871Z" stroke="#7047D6" stroke-width="3.61898" stroke-linejoin="round"/>
</g>
<path d="M36.261 58.2177V39.7838L38.2772 41.8H32.2286V38.0557H40.9271V58.2177H36.261ZM43.3926 58.2177V55.1934L51.1694 47.8486C51.7839 47.2918 52.2351 46.7925 52.5231 46.3509C52.8112 45.9092 53.0032 45.506 53.0992 45.1412C53.2144 44.7763 53.272 44.4403 53.272 44.1331C53.272 43.3266 52.9936 42.7121 52.4367 42.2897C51.8991 41.848 51.1022 41.6272 50.0461 41.6272C49.2012 41.6272 48.4139 41.7904 47.6843 42.1169C46.9738 42.4433 46.3689 42.9521 45.8697 43.6434L42.471 41.4544C43.239 40.3023 44.3143 39.3902 45.6969 38.7181C47.0794 38.0461 48.6732 37.71 50.4781 37.71C51.9759 37.71 53.2816 37.9597 54.3953 38.4589C55.5282 38.9389 56.4019 39.6206 57.0164 40.5039C57.6501 41.3872 57.9669 42.4433 57.9669 43.6722C57.9669 44.3251 57.8805 44.9779 57.7077 45.6308C57.554 46.2645 57.2276 46.9365 56.7284 47.647C56.2483 48.3575 55.5378 49.1544 54.597 50.0376L48.1451 56.115L47.2522 54.4157H58.6294V58.2177H43.3926ZM64.0509 55.4408V44.6603H67.061V55.4408H64.0509ZM60.014 51.474V48.6271H71.1212V51.474H60.014Z" fill="white"/>
<path d="M41.0834 69.3704L38.6147 64.8795V69.3704H36.718V61.9924H38.8518L41.8086 67.2225L44.7793 61.9924H46.9132V69.3704H45.0164V64.8655L42.5338 69.3704H41.0834ZM48.3681 65.6884C48.3681 63.2477 50.1533 61.853 52.8032 61.853C55.481 61.853 57.2662 63.2477 57.2662 65.6884V66.1486H50.2928C50.5299 67.2365 51.6317 67.7804 53.0403 67.7804C54.0863 67.7804 55.1324 67.4178 55.5647 66.7623L57.0849 67.8223C56.3178 68.8962 54.7697 69.5098 53.0403 69.5098C50.1254 69.5098 48.3681 68.0733 48.3681 65.6884ZM55.1324 64.6981C54.7558 63.959 53.905 63.5684 52.8032 63.5684C51.6875 63.5684 50.8228 63.9311 50.4462 64.6981H55.1324ZM65.0269 66.7623L66.5472 67.8223C65.7801 68.8962 64.3854 69.5098 62.656 69.5098C59.9224 69.5098 58.1511 68.1151 58.1511 65.6884C58.1511 63.2477 59.9782 61.853 62.6281 61.853C64.3435 61.853 65.7522 62.4248 66.5053 63.4708L64.9433 64.5726C64.5248 63.9311 63.6462 63.5963 62.6281 63.5963C61.1357 63.5963 60.0618 64.3076 60.0618 65.6884C60.0618 67.0691 61.1497 67.7804 62.656 67.7804C63.702 67.7804 64.5946 67.4178 65.0269 66.7623ZM67.172 69.3704V67.5991H69.1246V69.3704H67.172Z" fill="white"/>
<defs>
<filter id="filter0_f_1_5313" x="0.221678" y="0.379087" width="103.456" height="111.375" filterUnits="userSpaceOnUse" color-interpolation-filters="sRGB">
<feFlood flood-opacity="0" result="BackgroundImageFix"/>
<feBlend mode="normal" in="SourceGraphic" in2="BackgroundImageFix" result="shape"/>
<feGaussianBlur stdDeviation="9.80139" result="effect1_foregroundBlur_1_5313"/>
</filter>
</defs>
</svg>
