<svg width="20" height="20" viewBox="0 0 20 20" fill="none" xmlns="http://www.w3.org/2000/svg">
<circle cx="9.76199" cy="9.76199" r="6.89285" fill="white"/>
<path fill-rule="evenodd" clip-rule="evenodd" d="M19.5247 9.76233C19.5247 15.1539 15.1539 19.5247 9.76233 19.5247C4.37074 19.5247 0 15.1539 0 9.76233C0 4.37074 4.37074 0 9.76233 0C15.1539 0 19.5247 4.37074 19.5247 9.76233ZM10.1122 7.20698C9.16268 7.60193 7.26493 8.41936 4.41901 9.65926C3.95688 9.84303 3.7148 10.0228 3.69276 10.1986C3.65551 10.4957 4.02756 10.6127 4.53419 10.772C4.6031 10.7937 4.67451 10.8162 4.74772 10.8399C5.24616 11.002 5.91666 11.1915 6.26523 11.199C6.58141 11.2059 6.93431 11.0755 7.32391 10.808C9.98296 9.01307 11.3555 8.10584 11.4417 8.08628C11.5026 8.07248 11.5868 8.05513 11.6439 8.10587C11.7009 8.15659 11.6954 8.25267 11.6893 8.27846C11.6524 8.43555 10.192 9.79333 9.43619 10.496C9.20059 10.715 9.03349 10.8704 8.99933 10.9058C8.92277 10.9854 8.84476 11.0606 8.76983 11.1328C8.30677 11.5792 7.9595 11.914 8.78903 12.4606C9.18774 12.7233 9.50672 12.9405 9.82497 13.1573C10.1725 13.394 10.5192 13.6301 10.9677 13.9241C11.082 13.999 11.1911 14.0768 11.2974 14.1525C11.7019 14.4409 12.0653 14.7 12.5142 14.6586C12.7751 14.6346 13.0445 14.3894 13.1813 13.6578C13.5047 11.9289 14.1404 8.18287 14.2873 6.63918C14.3003 6.50393 14.2841 6.33085 14.2711 6.25487C14.258 6.17889 14.2309 6.07063 14.1321 5.99049C14.0151 5.89559 13.8346 5.87557 13.7538 5.87699C13.3866 5.88347 12.8233 6.07935 10.1122 7.20698Z" fill="#007CFF"/>
</svg>
