<svg width="12" height="20" viewBox="0 0 12 20" fill="none" xmlns="http://www.w3.org/2000/svg">
<path d="M1.61122 0.00165687C1.66505 0.00129186 1.66505 0.00129186 1.71997 0.000919478C1.83912 0.000301885 1.95823 0.000788358 2.07738 0.0012808C2.16325 0.00106923 2.24912 0.000791383 2.33499 0.000452494C2.56744 -0.000256794 2.79989 1.63393e-05 3.03234 0.000511627C3.27599 0.000907485 3.51964 0.000540037 3.7633 0.000295401C4.1986 -6.26186e-06 4.63389 0.000477468 5.06919 0.00127179C5.46326 0.00196863 5.85732 0.00184756 6.25139 0.00112847C6.70985 0.000292262 7.16831 -1.62755e-05 7.62678 0.000444034C7.86916 0.0006868 8.11153 0.000720802 8.35391 0.000204359C8.58182 -0.000247357 8.80971 6.83724e-05 9.03762 0.000967807C9.12109 0.00117347 9.20457 0.00111585 9.28804 0.000770846C9.40232 0.000342205 9.51655 0.000882061 9.63082 0.00165687C9.66356 0.00130891 9.6963 0.00096094 9.73003 0.000602428C10.1089 0.00555782 10.4611 0.168822 10.7491 0.411436C10.85 0.522298 10.9376 0.638755 11.0221 0.762411C11.0455 0.796192 11.0688 0.829973 11.0928 0.864778C11.2421 1.16343 11.2609 1.49602 11.2611 1.82427C11.2612 1.85095 11.2613 1.87764 11.2613 1.90514C11.2615 1.99405 11.2614 2.08296 11.2613 2.17188C11.2614 2.23648 11.2615 2.30107 11.2616 2.36567C11.2618 2.54281 11.2618 2.71994 11.2618 2.89707C11.2618 3.08826 11.262 3.27945 11.2622 3.47064C11.2625 3.84508 11.2626 4.21951 11.2626 4.59394C11.2626 4.89835 11.2627 5.20275 11.2628 5.50715C11.2632 6.37046 11.2634 7.23376 11.2633 8.09707C11.2633 8.16686 11.2633 8.16686 11.2633 8.23806C11.2633 8.28464 11.2633 8.33123 11.2633 8.37922C11.2633 9.13415 11.2637 9.88909 11.2642 10.644C11.2648 11.4194 11.2651 12.1949 11.265 12.9703C11.265 13.4055 11.2651 13.8407 11.2655 14.276C11.2659 14.6465 11.266 15.0171 11.2657 15.3877C11.2656 15.5767 11.2656 15.7656 11.2659 15.9546C11.2662 16.1278 11.2662 16.301 11.2658 16.4742C11.2658 16.5367 11.2659 16.5991 11.2661 16.6616C11.2682 17.3077 11.2217 17.8594 10.7575 18.3486C10.303 18.767 9.73907 18.8014 9.15026 18.7791C9.15162 18.8261 9.15298 18.8732 9.15438 18.9217C9.15547 18.9846 9.15654 19.0476 9.15757 19.1106C9.15855 19.1414 9.15953 19.1723 9.16054 19.2041C9.16329 19.4276 9.12751 19.5896 9.03327 19.793C8.83558 19.9811 8.70167 19.9995 8.43643 19.9964C8.24911 19.9815 8.1691 19.9083 8.04859 19.7711C7.80887 19.4372 7.94135 19.4163 7.94135 18.7791C6.40993 18.7791 4.87851 18.7791 3.30069 18.7791C3.30069 19.0493 3.30069 19.3196 3.30069 19.598C3.07785 19.9323 3.07785 19.9323 2.91072 19.988C2.70423 20.0078 2.5342 20.0133 2.34526 19.9222C2.1829 19.772 2.09927 19.62 2.08735 19.3989C2.08755 19.3703 2.08776 19.3417 2.08797 19.3123C2.08809 19.2811 2.08822 19.2499 2.08835 19.2178C2.08884 19.1696 2.08884 19.1696 2.08934 19.1203C2.08952 19.0875 2.08969 19.0548 2.08987 19.021C2.09033 18.9404 2.09103 18.8597 2.09178 18.7791C2.05779 18.78 2.02381 18.7809 1.9888 18.7818C1.40053 18.7907 0.8954 18.7287 0.449479 18.3145C0.164047 17.9989 0.0154474 17.6717 0.0147859 17.2443C0.0146375 17.2166 0.0144891 17.1889 0.0143362 17.1604C0.0139351 17.0678 0.0140861 16.9752 0.0142364 16.8827C0.0140627 16.8155 0.0138555 16.7484 0.0136176 16.6812C0.0130649 16.4969 0.0129997 16.3126 0.0130169 16.1282C0.0129526 15.9294 0.012443 15.7305 0.0119955 15.5316C0.0111047 15.0969 0.0107955 14.6621 0.0105983 14.2273C0.0104712 13.9558 0.010217 13.6843 0.0099354 13.4127C0.00917243 12.6608 0.00853257 11.9089 0.00841921 11.1569C0.0084119 11.1088 0.00840458 11.0607 0.00839705 11.0111C0.00838276 10.9136 0.00836858 10.8161 0.0083545 10.7185C0.00834737 10.6701 0.00834027 10.6217 0.00833293 10.5718C0.00832589 10.5234 0.00831891 10.4749 0.00831166 10.425C0.00817354 9.63951 0.0071197 8.85406 0.00566175 8.06861C0.00417651 7.26199 0.00342142 6.45538 0.00340964 5.64876C0.00338685 5.19596 0.00305602 4.74316 0.00192797 4.29035C0.000971846 3.9048 0.000688025 3.51925 0.0012746 3.13369C0.0015541 2.93704 0.00152105 2.74041 0.000634627 2.54377C-0.000169909 2.36356 -6.53741e-05 2.18338 0.000746794 2.00317C0.00088278 1.93816 0.000692882 1.87316 0.000134339 1.80816C-0.00393283 1.30199 0.0832126 0.88695 0.417184 0.48806C0.739385 0.16197 1.1574 -0.00316661 1.61122 0.00165687ZM2.91315 3.59702C2.81851 3.74903 2.782 3.8598 2.79373 4.03817C2.85491 4.24212 2.92885 4.34924 3.1057 4.46714C3.20235 4.51546 3.26694 4.51137 3.37508 4.51188C3.41554 4.51216 3.456 4.51243 3.49768 4.51272C3.56453 4.51288 3.56453 4.51288 3.63274 4.51304C3.70294 4.51342 3.70294 4.51342 3.77456 4.51382C3.93 4.51459 4.08544 4.51504 4.24089 4.51543C4.29441 4.51559 4.34793 4.51575 4.40145 4.51591C4.65294 4.51665 4.90442 4.51721 5.15591 4.51753C5.44612 4.51791 5.73631 4.51894 6.02651 4.52052C6.25086 4.52169 6.4752 4.52227 6.69955 4.5224C6.83352 4.52249 6.96748 4.52284 7.10145 4.52382C7.25101 4.5249 7.40056 4.52474 7.55012 4.52446C7.59438 4.52496 7.63863 4.52546 7.68422 4.52598C7.92534 4.52438 8.07007 4.51223 8.25333 4.35015C8.35253 4.24369 8.40426 4.13521 8.41693 3.98973C8.40443 3.77125 8.34184 3.64101 8.17533 3.49221C7.91897 3.37104 7.69856 3.35845 7.41763 3.36008C7.37396 3.35988 7.3303 3.35967 7.28531 3.35946C7.14163 3.35895 6.99798 3.35929 6.8543 3.35968C6.75408 3.3596 6.65385 3.35949 6.55362 3.35934C6.34382 3.35917 6.13403 3.35941 5.92424 3.35997C5.68234 3.3606 5.44044 3.3604 5.19854 3.35975C4.965 3.35916 4.73147 3.35922 4.49793 3.35956C4.39892 3.35964 4.29991 3.35955 4.2009 3.35927C4.0624 3.35898 3.92391 3.35943 3.78541 3.36008C3.72438 3.35973 3.72438 3.35973 3.66211 3.35936C3.36893 3.36191 3.13757 3.3917 2.91315 3.59702ZM2.91803 5.97584C2.8175 6.12807 2.77704 6.23513 2.79373 6.417C2.84408 6.59802 2.90813 6.69864 3.06113 6.81024C3.26011 6.92025 3.46389 6.90678 3.68609 6.90515C3.7551 6.90556 3.7551 6.90556 3.8255 6.90598C3.95104 6.90654 4.07655 6.90641 4.20209 6.90592C4.33385 6.90552 4.46561 6.90589 4.59736 6.90613C4.81857 6.90642 5.03977 6.90604 5.26098 6.9053C5.51624 6.90445 5.77149 6.90473 6.02675 6.90558C6.24643 6.90629 6.46611 6.90639 6.6858 6.90598C6.81678 6.90574 6.94775 6.90571 7.07873 6.90622C7.22482 6.90662 7.37087 6.90602 7.51695 6.90515C7.56003 6.90546 7.60311 6.90578 7.64749 6.9061C7.89696 6.90336 8.05014 6.87718 8.25333 6.72897C8.36946 6.59348 8.42319 6.43692 8.41419 6.25857C8.37945 6.07884 8.27632 5.94663 8.13634 5.83204C7.99988 5.76806 7.89204 5.74423 7.74182 5.74388C7.68286 5.74346 7.68286 5.74346 7.62271 5.74304C7.58002 5.74314 7.53733 5.74324 7.49335 5.74333C7.44805 5.74314 7.40276 5.74294 7.35609 5.74273C7.20634 5.74219 7.05661 5.74223 6.90686 5.74232C6.82909 5.7422 6.75131 5.74209 6.67354 5.74195C6.42907 5.74152 6.1846 5.7415 5.94013 5.74174C5.68824 5.74197 5.43635 5.74149 5.18446 5.74066C4.9679 5.73997 4.75133 5.73974 4.53476 5.73987C4.40554 5.73994 4.27634 5.73978 4.14712 5.73929C4.00299 5.73881 3.85887 5.73907 3.71474 5.73953C3.67213 5.73923 3.62952 5.73893 3.58562 5.73862C3.30294 5.74058 3.12875 5.77449 2.91803 5.97584ZM5.15839 15.3282C5.04926 15.4894 5.04038 15.6229 5.07384 15.8124C5.11116 15.9581 5.15377 16.0466 5.27766 16.136C5.47873 16.2523 5.61122 16.2604 5.8355 16.2053C5.99805 16.1388 6.07736 16.0457 6.15799 15.889C6.21443 15.743 6.2131 15.6171 6.16073 15.47C6.07052 15.2868 5.94982 15.1818 5.75751 15.1134C5.51093 15.0781 5.32455 15.1444 5.15839 15.3282Z" fill="url(#paint0_linear_1_6219)"/>
<defs>
<linearGradient id="paint0_linear_1_6219" x1="5.48909" y1="0.0884949" x2="2.92169" y2="19.7549" gradientUnits="userSpaceOnUse">
<stop offset="0.495281" stop-color="white"/>
<stop offset="1" stop-color="#A4A4A4"/>
</linearGradient>
</defs>
</svg>
