<svg width="20" height="20" viewBox="0 0 20 20" fill="none" xmlns="http://www.w3.org/2000/svg">
<g clip-path="url(#clip0_1_6261)">
<mask id="mask0_1_6261" style="mask-type:luminance" maskUnits="userSpaceOnUse" x="0" y="0" width="20" height="20">
<path d="M20 0H0V20H20V0Z" fill="white"/>
</mask>
<g mask="url(#mask0_1_6261)">
<path fill-rule="evenodd" clip-rule="evenodd" d="M6.06513 -0.0205487L5.93872 -0.01981C5.52146 -0.0236079 5.18388 0.0581696 4.87486 0.352814C4.46564 0.796359 4.43439 1.29307 4.44353 1.86952C4.44454 1.93262 4.44532 1.99573 4.44591 2.05884C4.447 2.20562 4.44833 2.35239 4.45048 2.49916L4.45236 2.61722C4.26052 2.61642 4.06864 2.61574 3.8768 2.61531C3.79847 2.61515 3.72014 2.61497 3.64181 2.61478C3.52639 2.61428 3.41098 2.61379 3.29556 2.61357L3.18588 2.61341L3.07957 2.61279L2.98007 2.61278L2.8928 2.61252C2.65474 2.62632 2.53305 2.73768 2.36984 2.9053C2.34181 2.96551 2.32325 3.00538 2.31141 3.04715C2.28818 3.12905 2.29077 3.21826 2.29843 3.48239L2.30392 3.59378C2.21789 3.59298 2.13185 3.59234 2.04582 3.59187L1.94015 3.59134L1.83586 3.59035L1.73553 3.58997C1.46951 3.58818 1.30555 3.70924 1.10519 3.87698C0.928531 4.08706 0.884438 4.30667 0.882387 4.57351L0.883477 4.67366C0.883437 4.74507 0.883465 4.81651 0.883555 4.88796C0.884547 4.99948 0.885461 5.11101 0.88534 5.22253C0.885168 5.29593 0.885188 5.36933 0.885414 5.44269L0.885918 5.54769C0.885793 5.66585 0.889512 5.7803 0.897668 5.89847C0.982523 6.02573 1.03325 6.07019 1.17111 6.13284V6.61847C1.08674 6.62077 1.04947 6.64437 0.972137 6.70894C0.879762 6.86652 0.879762 6.86651 0.876953 7.18585L0.87809 7.33042C0.877398 7.49335 0.876828 7.65628 0.877465 7.81921C0.878062 7.96964 0.87798 8.12003 0.877648 8.27046C0.876965 8.56523 0.876992 8.85999 0.877566 9.1548C0.87825 9.5012 0.87834 9.84761 0.878203 10.1941C0.877941 10.8111 0.878316 11.4282 0.87927 12.0452C0.880203 12.6461 0.880711 13.247 0.880324 13.8479C0.879875 14.5046 0.87966 15.1612 0.880199 15.8178L0.880379 16.0279L0.880465 16.1325C0.880676 16.3746 0.880731 16.6168 0.880574 16.859C0.880371 17.1571 0.880402 17.4551 0.881074 17.7532L0.881215 17.8067C0.881578 17.9411 0.881941 18.0756 0.881777 18.21C0.881488 18.351 0.881324 18.492 0.881887 18.633L0.882527 18.7876C0.880785 19.1391 0.889535 19.4098 1.08077 19.7144C1.27627 19.9099 1.46467 20.0215 1.74405 20.0256L1.84045 20.0241C1.95086 20.0248 2.0612 20.0251 2.17161 20.0244C2.25236 20.0237 2.33311 20.0235 2.41386 20.0235C2.63407 20.0242 2.85425 20.0241 3.07446 20.0231C3.30852 20.0219 3.54256 20.0216 3.77662 20.0216C4.16849 20.0216 4.56032 20.021 4.9522 20.0196C5.40864 20.018 5.86513 20.0168 6.32161 20.0167C6.8113 20.0165 7.30099 20.016 7.79068 20.015C7.93103 20.0148 8.07142 20.0145 8.21177 20.0144C8.43646 20.0142 8.66118 20.0139 8.88587 20.013C8.96849 20.0126 9.05114 20.0123 9.1338 20.012C9.24919 20.012 9.36458 20.0119 9.47997 20.0114L9.58411 20.0107C9.59857 20.0108 9.61298 20.0109 9.62728 20.011C9.76103 20.0119 9.8881 20.0129 10.0159 19.9631L10.0774 19.9219C10.1517 19.8737 10.2158 19.8226 10.2813 19.763C10.3708 19.6658 10.4284 19.6033 10.4652 19.5303C10.5313 19.3991 10.5301 19.2338 10.5268 18.7712C10.5263 18.7114 10.5261 18.6517 10.5262 18.5919C10.5268 18.4264 10.5269 18.2609 10.5262 18.0953C10.5254 17.9147 10.5254 17.7341 10.5256 17.5534C10.5259 17.1992 10.5256 16.845 10.5248 16.4909C10.5238 16.075 10.5234 15.659 10.5233 15.2431C10.5232 14.5023 10.5225 13.7616 10.5212 13.0208C10.5199 12.2992 10.519 11.5777 10.5186 10.8562L10.5186 10.7212L10.5183 10.1838C10.5181 9.49323 10.5175 8.80269 10.5168 8.11218L10.5168 8.03019L10.5167 8.01976C10.5166 7.84284 10.5164 7.66589 10.5163 7.48898C10.5159 7.04788 10.5155 6.60679 10.5147 6.16569L10.5146 6.09495C10.5143 5.93589 10.514 5.77683 10.5139 5.61776C10.5138 5.44839 10.5136 5.27898 10.5132 5.1096C10.5131 5.048 10.5129 4.9864 10.5128 4.9248V4.9237C10.5128 4.83894 10.5128 4.75421 10.5126 4.66944L10.5123 4.59257C10.5118 4.27944 10.4716 4.08687 10.2654 3.84525C10.0435 3.65299 9.84571 3.57549 9.55169 3.58005L9.45236 3.58401C9.38564 3.5854 9.31888 3.58682 9.25216 3.58829L9.10079 3.59378L9.10216 3.4769L9.10325 3.32523C9.10556 3.06833 9.082 2.96357 8.90548 2.77347C8.71654 2.64572 8.54579 2.59943 8.31935 2.59951L8.22068 2.60196C8.11439 2.60265 8.00814 2.60352 7.90185 2.60543C7.82818 2.60679 7.75454 2.60785 7.68087 2.60864C7.57435 2.60956 7.46782 2.6105 7.3613 2.61173L7.03048 2.61722L7.06954 1.95316L15.1164 1.91409V8.71097C14.8808 8.74042 14.8228 8.74769 14.7709 8.76933C14.754 8.7764 14.7376 8.78499 14.716 8.79644C14.5216 8.9978 14.4734 9.13612 14.4638 9.41378L14.4621 9.5264C14.4588 9.63437 14.4556 9.74234 14.4535 9.8503L14.4524 9.92191C14.4456 9.9253 14.439 9.92859 14.4327 9.93179C14.3578 9.96948 14.3073 9.99491 14.218 10L14.1301 9.91702C14.0008 9.78179 13.886 9.67765 13.7102 9.60941C13.4517 9.57558 13.1828 9.56292 12.968 9.72659C12.7581 9.90874 12.6514 10.0816 12.6176 10.3595C12.6138 10.6996 12.7515 10.9079 12.9818 11.1478L13.0461 11.211L13.007 11.3282C12.6254 12.1989 12.5243 13.0841 12.8728 13.9893C12.9367 14.1426 12.9952 14.295 13.0461 14.4532C12.8646 14.6246 12.7146 14.7912 12.6433 15.0342C12.5889 15.2888 12.6306 15.5217 12.7727 15.7422C12.944 15.9096 13.1242 16.0372 13.3677 16.0645C13.659 16.0723 13.8325 16.0133 14.0495 15.8155L14.0496 15.8154C14.0944 15.7706 14.1156 15.7495 14.1379 15.7297C14.1577 15.7121 14.1786 15.6955 14.2179 15.6641L14.218 15.6641C14.3397 15.6641 14.4156 15.6941 14.5259 15.7415L14.6013 15.774C15.4015 16.1012 16.2882 16.1323 17.0915 15.7959C17.227 15.7339 17.3498 15.6783 17.4992 15.6641L17.5847 15.7471C17.7383 15.9191 17.9524 16.0339 18.1804 16.0697C18.4238 16.0754 18.6177 16.0257 18.8127 15.8765C19.0007 15.7052 19.1059 15.487 19.1179 15.232C19.0815 14.9046 18.9761 14.7361 18.7354 14.5105L18.6711 14.4532L18.7102 14.336L18.7666 14.2046C18.7885 14.1532 18.8104 14.1017 18.8322 14.0503C18.8769 13.9499 18.9114 13.8558 18.9445 13.75C18.9355 13.628 18.9259 13.5485 18.8615 13.4449C18.7472 13.3724 18.6488 13.3641 18.5149 13.3594C18.4133 13.4172 18.3654 13.4642 18.3089 13.5669C18.1077 14.0577 17.8835 14.4601 17.4773 14.8072C16.8886 15.2602 16.2373 15.4095 15.507 15.3516C14.9477 15.2735 14.3489 14.9853 13.9787 14.5511L13.9055 14.4532C13.6976 14.1848 13.5441 13.9167 13.4367 13.5938C13.2574 12.9505 13.2717 12.311 13.5763 11.7035L13.632 11.6016C13.6706 11.5292 13.7105 11.4576 13.7517 11.3867C14.1148 10.8378 14.6615 10.5028 15.2934 10.3406C15.9763 10.1991 16.6576 10.3137 17.2575 10.6739C17.8687 11.0894 18.2086 11.6709 18.361 12.3828L18.3625 12.3903C18.3909 12.541 18.4147 12.6668 18.511 12.7918C18.6336 12.8812 18.7189 12.8726 18.8664 12.8516C18.9128 12.8199 18.936 12.804 18.9555 12.7844C18.9751 12.7649 18.9909 12.7417 19.0227 12.6953C19.0572 12.5537 19.0805 12.4581 19.0826 12.3619C19.0868 12.1616 18.9987 11.9594 18.7268 11.3356L18.6711 11.211L18.7254 11.1649C18.9631 10.9482 19.087 10.7185 19.113 10.3955C19.0887 10.1528 19.0176 10.0048 18.8542 9.81937C18.6307 9.62183 18.4518 9.58956 18.1593 9.59859C17.9234 9.62116 17.7897 9.70292 17.6335 9.87308C17.576 9.95038 17.576 9.95038 17.4992 10H17.4992C17.4349 9.99577 17.404 9.99374 17.3737 9.98843C17.3456 9.98355 17.318 9.97581 17.2649 9.96097C17.2663 9.8821 17.2677 9.80323 17.2687 9.72437L17.2697 9.62652C17.27 9.61601 17.2702 9.6055 17.2704 9.59499V9.59464C17.2758 9.35378 17.2812 9.10956 17.1289 8.9078L17.0622 8.85257C16.9614 8.76425 16.9077 8.74917 16.7713 8.72765L16.6399 8.71097C16.6416 7.75265 16.643 6.79429 16.6438 5.83597C16.6442 5.37007 16.6446 4.90413 16.6455 4.43823C16.6463 4.02901 16.6469 3.6198 16.6472 3.21059V3.14764C16.6472 2.95248 16.6474 2.75732 16.6478 2.56215C16.6483 2.3554 16.6488 2.14865 16.6488 1.94189C16.6487 1.86566 16.6487 1.78943 16.6487 1.71319V1.71182C16.6492 1.60613 16.6496 1.50041 16.6495 1.39472L16.6493 1.29841C16.6522 0.92287 16.5533 0.630921 16.2965 0.354493C16.0297 0.106291 15.7579 -0.0167206 15.392 -0.0208662L15.2756 -0.01981C15.1427 -0.0205879 15.0098 -0.0211254 14.8768 -0.0206975C14.7795 -0.0203526 14.6822 -0.0202938 14.5849 -0.0205003C14.3196 -0.0214025 14.0543 -0.0217501 13.789 -0.021265C13.592 -0.0208967 13.395 -0.0206699 13.198 -0.0208045L13.1131 -0.0208776L12.9423 -0.0210249C12.4086 -0.0215042 11.875 -0.0211763 11.3414 -0.0203393C10.8824 -0.0196191 10.4235 -0.0194976 9.96454 -0.0201958C9.42915 -0.0210363 8.89372 -0.021547 8.35829 -0.0211021L8.18677 -0.0209501L8.1015 -0.0208776C7.90419 -0.0207078 7.70689 -0.0207545 7.50954 -0.0211082C7.26689 -0.0215621 7.02419 -0.0216538 6.7815 -0.0210164C6.68157 -0.0206769 6.58165 -0.0203986 6.48169 -0.0201867C6.34282 -0.0206795 6.204 -0.0211686 6.06513 -0.0205487ZM5.06794 1.86887C5.06099 1.54728 5.05435 1.23844 5.19454 0.937531C5.427 0.652273 5.75997 0.573421 6.11415 0.570476L6.22329 0.571351C6.34829 0.570855 6.47329 0.570538 6.59829 0.570948C6.68974 0.571269 6.78114 0.571378 6.87259 0.571284C7.12196 0.570777 7.37134 0.570698 7.62075 0.571191C7.88591 0.571745 8.15107 0.571839 8.41622 0.571765C8.88888 0.57162 9.3615 0.571941 9.83411 0.572698C10.294 0.573441 10.7538 0.573882 11.2137 0.573679C11.7168 0.573441 12.2199 0.573355 12.723 0.573781L12.8841 0.573921L12.9642 0.573991C13.1496 0.574159 13.335 0.57423 13.5204 0.574159C13.7485 0.574066 13.9765 0.574167 14.2046 0.574636C14.2984 0.574866 14.3921 0.57507 14.4859 0.575241C14.6165 0.575085 14.747 0.574929 14.8776 0.575331L14.996 0.575784C15.2936 0.574573 15.5376 0.577097 15.7902 0.751984C15.9635 0.925281 16.0279 1.07702 16.03 1.3234L16.029 1.41114C16.0293 1.51114 16.0294 1.61111 16.0288 1.7111C16.0284 1.78432 16.0281 1.85755 16.0281 1.93077C16.0283 2.13026 16.0281 2.32975 16.0272 2.52923C16.0264 2.74119 16.026 2.95315 16.0259 3.16511C16.0256 3.56537 16.0249 3.96562 16.0237 4.36589C16.0224 4.82515 16.0215 5.28437 16.0209 5.74362C16.0197 6.73276 16.0176 7.72187 16.0149 8.71097H15.7414C15.7401 7.85601 15.7379 7.00105 15.7347 6.14609C15.7331 5.7303 15.7316 5.31456 15.731 4.89882C15.7305 4.53374 15.7297 4.16866 15.7281 3.80358L15.7279 3.74811V3.74724C15.727 3.57307 15.7262 3.39891 15.7261 3.22474C15.7261 3.04034 15.726 2.85596 15.7249 2.67157C15.7244 2.6034 15.724 2.53524 15.7237 2.46707C15.7238 2.42223 15.7246 2.37734 15.7254 2.33253C15.7307 2.03207 15.736 1.73544 15.5461 1.48441C15.3659 1.35808 15.2379 1.31027 15.0188 1.30726L14.9228 1.30832C14.8131 1.30754 14.7036 1.307 14.5939 1.30743C14.5136 1.30777 14.4334 1.30783 14.3531 1.30762C14.1343 1.30672 13.9156 1.30641 13.6968 1.30686C13.464 1.30738 13.2313 1.30734 12.9986 1.3071C12.6089 1.30669 12.2192 1.30679 11.8294 1.3075C11.3756 1.30836 10.9218 1.30864 10.468 1.30778C10.0754 1.30704 9.68283 1.30667 9.29025 1.30695L9.19368 1.30706C8.99208 1.30728 8.79044 1.30751 8.58884 1.30717C8.36552 1.30667 8.1422 1.3064 7.91892 1.30711C7.83657 1.30745 7.75423 1.30773 7.67189 1.30794C7.55732 1.30744 7.44275 1.30696 7.32818 1.30758L7.22411 1.30832C6.96712 1.30549 6.81536 1.33755 6.60079 1.48441C6.44669 1.66078 6.42544 1.87923 6.41712 2.10544C6.41462 2.23339 6.41337 2.29737 6.41193 2.36134C6.41044 2.42531 6.4088 2.48928 6.40548 2.61722H5.07736L5.07005 1.97513C5.06947 1.93955 5.06868 1.90414 5.06794 1.86887ZM2.92892 3.59378V3.24222H8.47579V3.59378H2.92892ZM15.1164 9.72659V9.33597H16.6399V9.72659C16.1713 9.65222 15.7424 9.65132 15.2711 9.70675L15.1164 9.72659ZM13.2414 10.4297L13.2878 10.3321C13.3763 10.2101 13.4093 10.2085 13.5539 10.2344C13.6302 10.3107 13.6652 10.3724 13.7102 10.4688L13.6199 10.5664C13.5694 10.6251 13.5457 10.6527 13.5158 10.6638C13.4891 10.6737 13.4575 10.6704 13.3977 10.6641C13.3536 10.6055 13.332 10.5768 13.3122 10.5469C13.2931 10.5182 13.2757 10.4883 13.2414 10.4297ZM18.2805 10.7032C18.1538 10.6098 18.0653 10.5389 18.007 10.3907C18.1193 10.2575 18.1819 10.2065 18.3586 10.2344C18.4023 10.2739 18.4217 10.2915 18.4366 10.3123C18.4484 10.3288 18.4573 10.3475 18.4734 10.3809C18.4513 10.4688 18.4399 10.5143 18.4175 10.5536C18.3934 10.5958 18.3567 10.6307 18.2805 10.7032ZM13.2804 15.1173C13.2918 15.0909 13.3126 15.0686 13.3537 15.0244C13.3949 14.9857 13.4137 14.968 13.4359 14.9612C13.4547 14.9554 13.4758 14.9573 13.5149 14.961C13.5307 14.9926 13.5401 15.0115 13.5524 15.0282C13.5704 15.0528 13.5945 15.0728 13.654 15.1221L13.7492 15.1953L13.7456 15.2007C13.6699 15.31 13.6212 15.3803 13.4929 15.4273C13.4462 15.4325 13.4201 15.4355 13.3963 15.4295C13.3664 15.4219 13.3401 15.4003 13.2805 15.3516L13.2634 15.2393C13.267 15.1758 13.2688 15.1444 13.2804 15.1173ZM18.1218 15.0782L18.1863 15.0123C18.2142 14.9794 18.2257 14.9659 18.24 14.9613C18.2499 14.9581 18.2613 14.9591 18.2805 14.961C18.3465 15.0383 18.4117 15.1164 18.4758 15.1953C18.4641 15.2426 18.458 15.2672 18.4489 15.2906C18.439 15.3161 18.4256 15.3403 18.3977 15.3906L18.3977 15.3907C18.3505 15.4119 18.327 15.4224 18.3025 15.4273C18.2782 15.4321 18.2528 15.4313 18.2024 15.4297H18.2024C18.0847 15.3513 18.0606 15.3188 18.007 15.1953L18.0569 15.1441L18.1218 15.0782ZM16.5764 11.5869C16.4568 11.5125 16.3372 11.4417 16.2127 11.3758C15.9154 11.2575 15.642 11.3047 15.3752 11.4673C15.302 11.5122 15.2288 11.5569 15.1555 11.6016C15.0883 11.6403 15.0211 11.6791 14.9543 11.7183L14.8869 11.7578C14.8222 11.7953 14.7906 11.8136 14.7601 11.8336C14.7309 11.8528 14.7027 11.8735 14.6477 11.9141C14.5231 12.0667 14.4734 12.1792 14.4697 12.3775L14.4707 12.4622C14.4704 12.5226 14.4702 12.5832 14.4701 12.6436C14.4711 12.738 14.4719 12.8323 14.4711 12.9267C14.4704 12.9887 14.4701 13.0507 14.4702 13.1127L14.4707 13.2019C14.4701 13.2571 14.4702 13.3122 14.4712 13.3673C14.4978 13.5624 14.5675 13.6844 14.7202 13.8094L14.7945 13.8515L14.8777 13.8997L14.9651 13.9478C15.0249 13.9816 15.0849 14.0153 15.1448 14.0489C15.1785 14.0674 15.2122 14.0859 15.2458 14.1044C15.2678 14.1165 15.2898 14.1286 15.3117 14.1407C15.4398 14.2149 15.5629 14.2858 15.7024 14.336C15.9593 14.3944 16.1399 14.3103 16.3594 14.1785C16.4261 14.1372 16.4931 14.0962 16.5612 14.0572C16.6174 14.0254 16.6733 13.9932 16.729 13.9607L16.8132 13.9112C16.9193 13.8515 17.0167 13.7912 17.1086 13.711C17.1708 13.638 17.2109 13.5908 17.2367 13.5368C17.2836 13.4385 17.2827 13.3175 17.2805 12.976L17.2771 12.8223C17.2767 12.7773 17.277 12.7322 17.2772 12.6869C17.2782 12.5168 17.2792 12.3453 17.2492 12.1786C17.2226 12.1 17.2049 12.0476 17.1759 12.0022C17.1175 11.9108 17.0138 11.8483 16.7011 11.66L16.5764 11.5869ZM15.5785 12.0901L15.668 12.0372C15.6718 12.035 15.6756 12.0327 15.6793 12.0305C15.6822 12.0288 15.6851 12.0271 15.6879 12.0254L15.6927 12.0225C15.7632 11.98 15.8078 11.9532 15.8977 11.9532C16.1656 12.0408 16.4552 12.1642 16.6399 12.3828C16.7323 12.6711 16.6857 12.987 16.6399 13.2813C16.5604 13.3176 16.4826 13.3574 16.4055 13.3985C16.3465 13.4465 16.2876 13.4946 16.2281 13.542C16.0785 13.6512 15.9501 13.7235 15.7609 13.6976C15.5075 13.6228 15.2726 13.4992 15.1164 13.2813C15.029 12.9952 15.0576 12.6734 15.1164 12.3828L15.1165 12.3828C15.1808 12.3323 15.2131 12.3069 15.2472 12.2843C15.2817 12.2615 15.3181 12.2416 15.3911 12.2015L15.4851 12.146L15.5785 12.0901ZM15.8586 12.2437C15.9765 12.2511 16.009 12.2611 16.1052 12.3365L16.1711 12.4219L16.2322 12.483L16.2883 12.5391L16.3518 12.5879C16.4384 12.6982 16.4422 12.7918 16.4445 12.9297C16.4085 12.9903 16.3914 13.0189 16.3705 13.0442C16.3517 13.0669 16.3298 13.087 16.2883 13.125H16.1711L16.1394 13.2178C16.1186 13.2637 16.1071 13.2891 16.0902 13.3101C16.0695 13.336 16.0405 13.3553 15.9758 13.3985C15.9219 13.4067 15.8939 13.4109 15.8658 13.4113C15.8354 13.4116 15.8049 13.4074 15.7415 13.3985H15.7414C15.6825 13.3498 15.6545 13.3267 15.6292 13.3009C15.6063 13.2775 15.5856 13.2519 15.5461 13.2032V13.125L15.4533 13.0957C15.3956 13.0682 15.3704 13.0562 15.3497 13.0388C15.3338 13.0252 15.3206 13.0084 15.2971 12.9785C15.2621 12.8526 15.2711 12.7809 15.3117 12.6563C15.3832 12.5912 15.4081 12.5684 15.4346 12.5476C15.4489 12.5363 15.4635 12.5257 15.4861 12.5092L15.4861 12.5092C15.5152 12.4879 15.5322 12.4754 15.5467 12.4605C15.567 12.4395 15.5824 12.4135 15.6193 12.3511C15.7117 12.256 15.7321 12.2502 15.8586 12.2437ZM8.83216 7.85237C8.78435 7.06593 8.37841 6.30425 7.80439 5.7764C7.06435 5.18675 6.26005 4.94976 5.31415 5.0098C4.56915 5.12734 3.82777 5.4514 3.34457 6.04952L3.28048 6.13284C2.80542 6.71241 2.57098 7.37437 2.56271 8.12503C2.57212 8.97909 2.89005 9.78132 3.5015 10.3835C4.18251 11.0248 5.0004 11.2723 5.91841 11.258C6.71603 11.2318 7.48095 10.8373 8.02169 10.2613C8.6363 9.58015 8.86458 8.75323 8.83216 7.85237ZM5.74142 6.67972C5.67353 6.30085 5.68657 5.95386 5.89767 5.62503C5.92544 5.62964 5.95364 5.63421 5.98212 5.63882C6.35243 5.69878 6.77275 5.76687 7.03048 6.05472C6.67759 6.30655 6.40739 6.51894 6.20775 6.90921H6.20771C6.18243 6.96745 6.17032 6.99523 6.15513 7.02116C6.14118 7.04487 6.12466 7.06698 6.09302 7.10937L6.09298 7.10941C6.03931 7.128 6.01415 7.13675 5.98825 7.14144C5.96536 7.14558 5.94189 7.14659 5.89767 7.14847C5.83876 6.9939 5.78622 6.83898 5.74142 6.67972ZM4.06173 6.28909L4.13986 6.17191C4.414 5.96456 4.80165 5.70316 5.15548 5.70316C5.1013 6.19761 5.10267 6.67417 5.24841 7.15319L5.27267 7.22659C5.22404 7.24151 5.19786 7.24956 5.17107 7.25456C5.13982 7.26038 5.10779 7.26202 5.03829 7.26566C4.57384 7.06562 4.2845 6.73253 4.06173 6.28909ZM6.56173 7.50003C6.65716 7.253 6.83013 7.04757 7.00361 6.85062L7.01763 6.83823L7.02669 6.83019C7.20372 6.67335 7.3729 6.52347 7.61642 6.52347C7.73876 6.64702 7.81732 6.79116 7.89556 6.94476L7.93626 7.0264C8.04009 7.22581 8.10454 7.39214 8.12423 7.61722C8.02693 7.59542 7.93423 7.57843 7.83454 7.57312L7.73728 7.57296L7.6297 7.5728L7.51876 7.57327L7.40782 7.5728L7.30025 7.57296C7.19751 7.57312 7.10564 7.5787 7.00443 7.59722C6.95857 7.60792 6.93603 7.61316 6.91329 7.61722C6.89138 7.62112 6.86927 7.62398 6.82587 7.62956L6.74486 7.63917L6.60079 7.65628C6.56935 7.58984 6.56935 7.58984 6.56173 7.50003ZM3.20236 7.96878C3.23105 7.53835 3.36725 7.16327 3.59298 6.79691H3.63204L3.67339 6.86144C3.88562 7.21316 4.15892 7.45105 4.51583 7.6514C4.57962 7.68319 4.60892 7.6978 4.63693 7.71452C4.66071 7.7287 4.68357 7.74444 4.72579 7.77347V7.89066C4.69626 7.92187 4.68052 7.93855 4.66267 7.95253C4.64228 7.96855 4.61915 7.98105 4.56954 8.00784C4.06029 8.17351 3.70176 8.14167 3.20236 7.96878ZM5.31173 8.24222C5.29978 8.11773 5.29482 8.04167 5.35079 7.92972C5.50814 7.77605 5.59017 7.70312 5.81954 7.73441C5.94169 7.7955 6.02216 7.89343 6.09298 8.00784C6.11474 8.19636 6.08935 8.27526 5.97337 8.42288C5.87814 8.48163 5.82978 8.51144 5.77736 8.52343C5.72325 8.53577 5.66482 8.52913 5.54611 8.51566C5.4745 8.4623 5.43814 8.43519 5.40907 8.40175C5.37911 8.36726 5.35689 8.32601 5.31173 8.24222ZM6.68458 8.42933C6.68079 8.41159 6.68013 8.39316 6.67892 8.35941C7.1106 8.07163 7.759 8.06237 8.20236 8.32034C8.14247 8.75956 8.03216 9.10573 7.81173 9.49222C7.77185 9.45444 7.75157 9.43523 7.73361 9.41409C7.71497 9.39218 7.6988 9.36819 7.66587 9.31933C7.45482 9.0171 7.26247 8.83069 6.94017 8.64991H6.94013C6.87564 8.61722 6.84513 8.60175 6.81614 8.5839C6.79005 8.56784 6.76517 8.54984 6.71798 8.51566C6.69814 8.47093 6.68911 8.45062 6.68458 8.42933ZM3.28048 8.67191C3.67 8.71921 4.02708 8.73319 4.41329 8.65237C4.4231 8.65019 4.43286 8.64804 4.44251 8.64589L4.44278 8.64581C4.56536 8.61851 4.67642 8.59378 4.80392 8.59378L4.82833 8.6603C4.82216 8.75804 4.819 8.80788 4.80486 8.85444C4.79017 8.90288 4.76357 8.94777 4.70931 9.03933C4.49739 9.38761 4.18986 9.66269 3.78829 9.76566C3.53379 9.43628 3.34923 9.08444 3.28048 8.67191ZM6.23243 9.41851C6.20841 9.28726 6.18939 9.15566 6.17111 9.02347C6.23482 8.99847 6.26739 8.98569 6.29974 8.98632C6.33361 8.98698 6.3672 9.00241 6.43599 9.03398V9.03401C6.88365 9.27464 7.18665 9.5528 7.34298 10.0391C7.19228 10.1575 7.03825 10.2552 6.86806 10.344L6.79611 10.3809C6.61091 10.476 6.45685 10.5268 6.24923 10.5469C6.28161 10.1612 6.29888 9.80159 6.23243 9.41851ZM5.30333 9.19038L5.35079 9.10159L5.42404 9.11136C5.469 9.12253 5.49072 9.12792 5.50685 9.1405C5.52189 9.15226 5.53208 9.1703 5.55177 9.20519C5.73169 9.69901 5.73689 10.1391 5.54611 10.625H5.54603C5.51075 10.6279 5.49052 10.6295 5.47021 10.6299C5.44282 10.6305 5.41536 10.6289 5.35087 10.625H5.35079C5.00185 10.5759 4.61368 10.4626 4.37423 10.1953C4.79943 9.94808 5.0663 9.61714 5.30333 9.19038ZM7.77267 13.125L7.86818 13.2097C8.45786 13.7625 8.80528 14.5124 8.83439 15.3218C8.83556 15.3806 8.83646 15.4393 8.83712 15.4981L8.83825 15.5806C8.83685 15.7976 8.81341 16.0187 8.70529 16.211C8.58009 16.2778 8.45517 16.2779 8.31954 16.25C8.2731 16.2152 8.24876 16.1969 8.2297 16.1742C8.20864 16.1492 8.19404 16.1187 8.16329 16.0547C8.15126 15.9234 8.15411 15.7955 8.16329 15.6641C7.6756 15.4587 7.20357 15.5197 6.71798 15.7032V15.8203C6.75884 15.8473 6.78107 15.8619 6.80411 15.8751C6.83157 15.891 6.86017 15.9048 6.9229 15.935L6.92306 15.9351C7.12294 16.0464 7.27993 16.168 7.44064 16.3306L7.4988 16.3891C7.62122 16.5165 7.71806 16.6482 7.81173 16.7969L7.92892 16.7188C7.99489 16.7104 8.02845 16.7061 8.06204 16.706C8.09681 16.7058 8.13157 16.7101 8.20236 16.7188C8.31525 16.8172 8.35443 16.8761 8.37083 17.0253C8.33638 17.3726 7.95068 17.713 7.69454 17.9297C6.94079 18.4967 6.07654 18.6912 5.1415 18.5832C4.53837 18.4855 3.99907 18.1833 3.55392 17.7735L3.4793 17.7097C2.95203 17.2317 2.61651 16.4428 2.57244 15.7421C2.53747 14.7945 2.78825 14.0303 3.42239 13.3228C3.95028 12.7693 4.66509 12.4043 5.4338 12.3464C6.28739 12.3267 7.12868 12.5382 7.77267 13.125ZM5.85861 13.0078C5.68798 13.3936 5.66501 13.7742 5.78048 14.1797L5.80642 14.272V14.2721C5.81857 14.3122 5.8256 14.3356 5.83431 14.3583C5.8463 14.3897 5.8615 14.42 5.89763 14.4921V14.4922H5.89767V14.4922H5.89771C5.93939 14.5078 5.95927 14.5153 5.97974 14.5201C5.99833 14.5246 6.01743 14.5269 6.05392 14.5313L6.09282 14.451C6.3206 14.0054 6.63224 13.6961 7.03048 13.3985C6.83864 13.1732 6.45177 13.0672 6.17111 13.0078C6.06595 13.0024 5.96404 13.0041 5.85861 13.0078ZM4.13986 13.5157L4.06173 13.6328C4.24357 14.0598 4.53185 14.3344 4.92904 14.5671C5.05169 14.6146 5.10997 14.6094 5.23361 14.5703L5.2179 14.4969C5.12114 14.0119 5.10161 13.5384 5.15548 13.0469C4.80907 13.0469 4.40595 13.3111 4.13986 13.5157ZM6.98411 14.2066C6.7847 14.4171 6.59689 14.6664 6.56173 14.961L6.60079 15.0391L6.69435 15.0135C7.15954 14.8986 7.65142 14.867 8.12423 14.961C8.10454 14.7359 8.04009 14.5696 7.93626 14.3701L7.8956 14.2885C7.81716 14.1346 7.737 13.9929 7.61642 13.8672C7.36943 13.8672 7.15739 14.0423 6.98411 14.2066ZM3.59298 14.1407C3.39164 14.5086 3.20236 14.8819 3.20236 15.3125L3.32687 15.3687L3.39691 15.4003C3.77246 15.5405 4.20032 15.4849 4.56954 15.3516C4.61802 15.3247 4.64083 15.3121 4.66118 15.2963C4.67923 15.2822 4.69536 15.2657 4.72579 15.2344V15.1172L4.64829 15.081C4.21771 14.8651 3.86499 14.5664 3.63204 14.1407H3.59298ZM5.35814 15.2637C5.2904 15.392 5.29419 15.4821 5.31173 15.625C5.38189 15.7326 5.43099 15.8018 5.54611 15.8594C5.66126 15.87 5.71802 15.8752 5.77212 15.8655C5.82466 15.856 5.8747 15.8325 5.97333 15.7862H5.97337C6.07548 15.6809 6.09068 15.6451 6.10763 15.4981C6.0888 15.3096 6.03794 15.2426 5.89767 15.1172C5.65529 15.0436 5.53466 15.0932 5.35814 15.2637ZM4.4597 15.9961C4.06642 16.0891 3.67828 16.0705 3.28048 16.0157C3.30017 16.2407 3.36462 16.4071 3.46847 16.6065L3.50914 16.6881C3.58814 16.8432 3.67369 16.977 3.78829 17.1094C4.1506 17.04 4.44087 16.7836 4.64767 16.4844C4.72404 16.3689 4.7613 16.3126 4.78372 16.2509C4.80509 16.192 4.81302 16.1283 4.82849 16.0039L4.80392 15.9375C4.67962 15.9375 4.58466 15.9628 4.46548 15.9946L4.4597 15.9961ZM6.17111 16.3672C6.18798 16.5105 6.20509 16.6524 6.23153 16.7943C6.3013 17.1794 6.29376 17.5468 6.21017 17.9297C6.64157 17.8389 7.03892 17.6703 7.34298 17.3438C7.1545 16.8901 6.84825 16.5814 6.40548 16.3672C6.34478 16.3457 6.31493 16.3351 6.28517 16.3354C6.25634 16.3357 6.22763 16.3463 6.17111 16.3672ZM5.35079 16.4453L5.30333 16.5341C5.08146 16.9337 4.83704 17.2597 4.43876 17.4939L4.37423 17.5391V17.6172C4.65583 17.7595 4.79556 17.8301 4.94325 17.8739C5.08876 17.9172 5.24196 17.9344 5.54611 17.9688C5.75513 17.4962 5.72798 17.0319 5.55177 16.5491C5.53208 16.5141 5.52193 16.496 5.50685 16.4842C5.49072 16.4717 5.469 16.4662 5.42404 16.4551L5.35079 16.4453ZM9.35841 11.5139C9.33853 11.4927 9.31236 11.4775 9.25704 11.4453C9.06603 11.4172 8.89357 11.4084 8.72239 11.5039C8.69212 11.5616 8.67974 11.5852 8.67146 11.6102C8.66568 11.6275 8.66193 11.6455 8.65556 11.676C8.64388 11.825 8.65423 11.893 8.74923 12.0117C8.86029 12.0673 8.90818 12.0801 9.02755 12.0826C9.0338 12.0821 9.03997 12.0816 9.04599 12.0811L9.04661 12.081C9.17884 12.0706 9.26216 12.064 9.36204 11.9678C9.43407 11.8375 9.43161 11.7482 9.41329 11.6016C9.38904 11.5566 9.37626 11.5328 9.35841 11.5139ZM2.46018 11.4453C2.56516 11.5064 2.56516 11.5064 2.61643 11.6016C2.63475 11.7482 2.63718 11.8375 2.56516 11.9678C2.4653 12.064 2.38196 12.0706 2.24975 12.081L2.24918 12.0811L2.23907 12.0819C2.2363 12.0821 2.2335 12.0823 2.23068 12.0826C2.11129 12.0801 2.06343 12.0673 1.95236 12.0117C1.85736 11.893 1.84701 11.825 1.85867 11.676C1.86505 11.6455 1.86882 11.6275 1.87457 11.6102M2.46018 11.4453C2.26917 11.4172 2.09668 11.4084 1.9255 11.5039L2.46018 11.4453ZM2.53692 18.3287C2.51219 18.3035 2.4823 18.2834 2.4211 18.2422C2.2042 18.1975 2.01623 18.2152 1.87422 18.3985C1.83873 18.5531 1.85157 18.6698 1.92793 18.8086C2.06418 18.8865 2.1715 18.8891 2.32664 18.882C2.46573 18.8602 2.53057 18.8226 2.61641 18.711C2.62841 18.645 2.63452 18.6114 2.63471 18.5778C2.63493 18.543 2.62882 18.5083 2.61641 18.4375C2.57945 18.3815 2.56054 18.3528 2.53692 18.3287ZM9.21798 18.2422C9.35482 18.3372 9.40368 18.3915 9.43771 18.5547C9.40337 18.7194 9.35736 18.7725 9.21798 18.8672C9.03786 18.9007 8.88544 18.9004 8.72482 18.8086C8.64845 18.6698 8.6356 18.5531 8.67111 18.3985C8.81294 18.2155 9.00126 18.1971 9.21798 18.2422ZM2.61641 5.07816C2.63807 4.92655 2.64034 4.84261 2.55782 4.71194C2.40085 4.60991 2.24118 4.60183 2.05733 4.61675C1.95948 4.66386 1.92495 4.70835 1.87423 4.80472C1.85578 4.95234 1.85452 5.04155 1.9255 5.17339C2.09591 5.27245 2.26833 5.26265 2.46016 5.23441C2.51549 5.20226 2.54166 5.18702 2.56154 5.16589C2.57938 5.14694 2.59216 5.12319 2.61641 5.07816ZM9.3547 4.71194C9.4372 4.84261 9.43493 4.92655 9.41329 5.07816C9.38904 5.12319 9.37626 5.14694 9.35841 5.16589C9.33853 5.18702 9.31236 5.20226 9.25704 5.23441C9.06521 5.26265 8.89279 5.27245 8.72236 5.17339C8.65138 5.04155 8.65267 4.95234 8.67111 4.80472C8.72181 4.70835 8.75634 4.66386 8.85419 4.61675C9.03806 4.60183 9.19771 4.60991 9.3547 4.71194Z" fill="url(#paint0_linear_1_6261)"/>
</g>
</g>
<defs>
<linearGradient id="paint0_linear_1_6261" x1="9.76432" y1="0.067219" x2="8.1545" y2="19.9858" gradientUnits="userSpaceOnUse">
<stop offset="0.495281" stop-color="white"/>
<stop offset="1" stop-color="#A4A4A4"/>
</linearGradient>
<clipPath id="clip0_1_6261">
<rect width="20" height="20" fill="white"/>
</clipPath>
</defs>
</svg>
