<svg width="20" height="20" viewBox="0 0 20 20" fill="none" xmlns="http://www.w3.org/2000/svg">
<path d="M10.5212 11.0935C11.2855 11.522 12.0799 11.331 12.8508 10.5128L12.8452 10.5036L12.8438 10.5015L12.8419 10.4991C12.8244 10.497 12.8067 10.497 12.7893 10.4991C11.8907 10.6216 11.1227 10.3577 10.4786 9.72306C10.4527 9.69147 10.418 9.66856 10.3789 9.65729C10.165 9.63836 9.95036 9.62746 9.73616 9.61426C9.71067 9.9102 9.77117 10.2073 9.91047 10.4697C10.0497 10.7321 10.2617 10.9488 10.5212 11.0935Z" fill="url(#paint0_linear_1_6225)"/>
<path d="M7.64868 5.2434C8.16889 4.58417 8.9894 4.28859 9.66858 4.50381C10.378 4.72845 10.8485 5.41982 10.7752 6.12735C10.5605 6.11406 10.3453 6.10371 10.1311 6.08432C10.0965 6.08145 10.061 6.0446 10.0327 6.01669C9.38806 5.38204 8.61956 5.11814 7.72147 5.24293L7.69939 5.24395C7.69053 5.24422 7.68166 5.24432 7.67279 5.24413L7.64868 5.2434Z" fill="url(#paint1_linear_1_6225)"/>
<path d="M11.9315 7.26478L11.947 7.29656C11.9778 7.35964 12.0103 7.42642 12.045 7.49875C12.1064 7.44176 12.1695 7.38818 12.2317 7.33544C12.3067 7.2718 12.3804 7.20927 12.448 7.14304C12.4997 7.0927 12.5477 7.04032 12.5903 6.9838C12.9681 6.48011 13.0258 5.9188 12.7643 5.3451C12.4673 4.69483 11.8592 4.48202 11.2225 4.2692C11.2285 4.29147 11.2363 4.31317 11.2462 4.33395C11.8094 5.05802 11.9872 5.86107 11.7508 6.75158C11.7383 6.80183 11.7419 6.85476 11.7612 6.90288C11.8128 7.01982 11.8684 7.13482 11.9315 7.26478Z" fill="url(#paint2_linear_1_6225)"/>
<path d="M11.4961 9.19656C11.62 9.01681 11.7278 8.85563 11.8423 8.69907C11.8608 8.67348 11.8838 8.65196 11.9102 8.63534C11.9263 8.62517 11.9437 8.61687 11.9619 8.61059C12.8477 8.36562 13.4639 7.82037 13.8091 6.96819C13.8117 6.96422 13.8145 6.96043 13.8175 6.95683C13.8201 6.95379 13.8228 6.95082 13.8256 6.94796L13.8319 6.94214C14.1469 7.53376 13.9997 8.5075 13.5245 8.98707C13.287 9.22954 12.9785 9.38999 12.6436 9.44494C12.3088 9.49999 11.965 9.44679 11.6625 9.29309C11.6124 9.2675 11.5644 9.23841 11.5155 9.20848L11.51 9.20515L11.4961 9.19656Z" fill="url(#paint3_linear_1_6225)"/>
<path d="M8.59009 8.50102C8.55711 8.43312 8.52349 8.36385 8.48931 8.29199C7.88014 8.55071 7.49617 9.27377 7.61256 9.94906C7.74538 10.7209 8.4326 11.3405 9.2725 11.4445L9.27231 11.4402L9.27222 11.4346C9.27222 11.4313 9.27222 11.4281 9.27194 11.425C9.27166 11.4209 9.27074 11.4171 9.26871 11.4142C8.70166 10.6854 8.52053 9.87813 8.76171 8.97958C8.77214 8.92896 8.76613 8.87631 8.74471 8.8292C8.69576 8.71946 8.64384 8.61196 8.59009 8.50102Z" fill="url(#paint4_linear_1_6225)"/>
<path d="M9.01218 6.5482L8.90623 6.70254C8.82486 6.8216 8.74782 6.93401 8.66839 7.04477C8.64318 7.08227 8.60678 7.11072 8.56429 7.12614C7.65483 7.36824 7.04004 7.9339 6.66548 8.85231C6.63195 8.70101 6.59408 8.59932 6.58983 8.49624C6.58706 8.43379 6.58281 8.37098 6.5782 8.30799L6.57293 8.23733C6.55492 7.99893 6.53673 7.7596 6.57662 7.53099C6.7634 6.46266 8.0692 5.92305 8.97478 6.52077C8.98946 6.53027 9.00267 6.54108 9.01218 6.5482Z" fill="url(#paint5_linear_1_6225)"/>
<path d="M10.8559 8.27286C10.9353 8.1539 10.9776 8.01396 10.9775 7.87089C10.978 7.77639 10.9598 7.68264 10.924 7.59517C10.8881 7.50768 10.8354 7.42816 10.7687 7.36119C10.729 7.3212 10.6848 7.28619 10.6371 7.25673C10.6048 7.23678 10.5708 7.21932 10.5355 7.20463C10.4482 7.16833 10.3546 7.14967 10.26 7.14967C10.117 7.14874 9.97693 7.19031 9.85749 7.26919C9.73807 7.34799 9.64478 7.46049 9.58945 7.59239C9.53412 7.7243 9.51915 7.86977 9.54659 8.01017C9.57393 8.15057 9.64247 8.2797 9.74333 8.38112C9.84429 8.48254 9.97305 8.55172 10.1133 8.5799C10.2009 8.59745 10.2906 8.59846 10.3778 8.5835C10.4302 8.57445 10.4816 8.55966 10.5312 8.53916C10.6196 8.50267 10.6993 8.44919 10.7663 8.38213C10.7996 8.34889 10.8296 8.31231 10.8559 8.27286Z" fill="url(#paint6_linear_1_6225)"/>
<path fill-rule="evenodd" clip-rule="evenodd" d="M7.98631 18.5472H12.5263C12.9321 18.3726 12.9248 18.0429 12.9175 17.7146C12.9166 17.6758 12.9157 17.6369 12.9155 17.5983C12.9154 17.5758 12.9155 17.5534 12.916 17.5313C12.9166 17.5083 12.9175 17.4854 12.9189 17.4629C13.0063 17.4578 13.0926 17.4549 13.178 17.452C13.364 17.4458 13.5452 17.4397 13.7229 17.4118C14.4194 17.3031 14.9785 16.69 15.0116 15.9878C15.0353 15.4865 15.022 14.9838 15.0248 14.482V14.2545H16.0487L16.1194 14.2547L16.2435 14.2557C16.3734 14.2566 16.5034 14.2577 16.6333 14.2545C16.9449 14.247 17.1625 14.0266 17.1728 13.7145V2.15342C17.1728 1.66628 16.987 1.48089 16.4989 1.48089H15.029C15.029 1.43378 15.028 1.38797 15.0268 1.34271L15.0266 1.3355C15.0257 1.30494 15.025 1.27473 15.0246 1.2448C15.0237 1.18457 15.0243 1.12546 15.029 1.06662C15.0561 0.738442 14.9316 0.506229 14.6219 0.381348H14.3736C14.0609 0.502903 13.9389 0.737425 13.9616 1.06376C13.9693 1.19289 13.9616 1.3248 13.9616 1.46667H6.55388C6.55388 1.4215 6.55286 1.37643 6.55175 1.33144C6.54962 1.24184 6.5475 1.15271 6.55388 1.06422C6.5765 0.737425 6.45449 0.503365 6.14191 0.381348H5.89548C5.5853 0.506229 5.46135 0.738442 5.48831 1.06662C5.49728 1.20001 5.48831 1.33477 5.48831 1.48089H3.96083C3.54601 1.48136 3.33984 1.68614 3.33984 2.09994V13.6393C3.33984 14.0446 3.54841 14.254 3.94994 14.254H5.49026C5.49026 14.7194 5.48361 15.1673 5.49026 15.6151C5.48601 15.8213 5.50282 16.0272 5.54033 16.2299C5.61994 16.5691 5.80957 16.8724 6.07966 17.0924C6.34974 17.3125 6.68513 17.4369 7.03335 17.4463C7.14937 17.4491 7.26557 17.4483 7.38981 17.4473L7.41271 17.4471L7.50664 17.4465L7.59329 17.4463C7.59329 17.4679 7.59356 17.4893 7.59403 17.5106L7.59606 17.5803C7.59883 17.6666 7.60142 17.7507 7.59329 17.834C7.56068 18.1651 7.67845 18.4053 7.98631 18.5472ZM6.27428 10.5315C5.74834 9.7443 5.46763 8.81877 5.46754 7.87201C5.46708 5.23168 7.62404 3.07794 10.2639 3.08264C11.2107 3.08422 12.1359 3.3663 12.9223 3.89336C13.7089 4.4205 14.3214 5.16887 14.6828 6.04404C15.0441 6.91914 15.1379 7.88179 14.9522 8.81018C14.7667 9.73867 14.31 10.5912 13.6401 11.2602C12.97 11.9292 12.1168 12.3845 11.1881 12.5689C10.2594 12.753 9.29693 12.6578 8.42229 12.2952C7.54775 11.9326 6.80022 11.3189 6.27428 10.5315ZM6.56422 14.2645H13.9603L13.9579 14.9251C13.9579 15.0234 13.9585 15.1219 13.959 15.2203C13.96 15.4172 13.961 15.6143 13.9579 15.8114C13.9517 16.1723 13.7389 16.3818 13.3809 16.3851H12.9141V15.9236C12.9089 15.5778 12.6906 15.356 12.3466 15.356C10.9521 15.354 9.55749 15.354 8.16274 15.356C7.81701 15.356 7.59948 15.5758 7.59523 15.9201V16.3751C7.52974 16.3751 7.46527 16.3767 7.40162 16.3784C7.26095 16.382 7.12406 16.3856 6.98893 16.3709C6.769 16.3463 6.57558 16.1638 6.5694 15.9505C6.55388 15.3914 6.56422 14.832 6.56422 14.2645ZM4.83001 2.8097C4.869 2.78513 4.91083 2.76582 4.95434 2.75215C5.01022 2.73461 5.06888 2.72638 5.128 2.72795C5.15671 2.72897 5.18508 2.73229 5.21288 2.73774C5.24161 2.74347 5.26968 2.7515 5.29694 2.76176C5.31882 2.76989 5.34016 2.77949 5.36076 2.79049C5.41063 2.81709 5.45646 2.85163 5.49617 2.8932C5.5926 2.99416 5.64581 3.12893 5.64442 3.26858C5.64248 3.37378 5.60933 3.47604 5.54918 3.56241C5.53838 3.57793 5.52683 3.5928 5.51455 3.60702C5.49894 3.62494 5.48213 3.64184 5.4643 3.65754C5.4426 3.67667 5.41941 3.69394 5.39494 3.70927C5.3881 3.71361 5.38117 3.71776 5.37406 3.72174C5.36233 3.72829 5.35023 3.7344 5.33803 3.74011C5.32769 3.74493 5.31726 3.74944 5.30654 3.75361C5.25758 3.77263 5.20641 3.78427 5.15469 3.78834C5.10268 3.7924 5.05003 3.7888 4.99849 3.77743C4.89578 3.75462 4.80211 3.70188 4.72942 3.62576C4.68361 3.57783 4.64749 3.52213 4.62247 3.46154C4.60777 3.4258 4.59688 3.38838 4.59014 3.34996C4.57951 3.28862 4.5797 3.22618 4.5906 3.1655C4.59808 3.12365 4.61055 3.08264 4.62801 3.04338C4.65969 2.97189 4.7067 2.90862 4.76536 2.85773C4.78558 2.84018 4.8072 2.8241 4.83001 2.8097ZM15.8386 2.96035C15.854 2.9827 15.8674 3.00616 15.879 3.03036C15.8862 3.04514 15.8926 3.0602 15.8982 3.07554C15.9194 3.13262 15.9308 3.19321 15.9314 3.25482C15.9323 3.3954 15.8777 3.53063 15.7795 3.63122C15.6814 3.73181 15.5474 3.78963 15.4069 3.79203C15.3609 3.79268 15.3153 3.78731 15.271 3.77623C15.2143 3.7621 15.16 3.73855 15.1103 3.70631C15.0221 3.64904 14.9529 3.56683 14.9114 3.47013C14.87 3.37351 14.858 3.26674 14.8773 3.16328C14.8966 3.05983 14.9461 2.9645 15.0195 2.88923C15.093 2.81395 15.1872 2.76222 15.2901 2.74042C15.393 2.71871 15.5001 2.72804 15.5977 2.76711C15.6953 2.80628 15.7792 2.87353 15.8386 2.96035ZM5.62955 12.3549C5.63953 12.3945 5.64488 12.4354 5.64535 12.4769L5.64442 12.4759C5.64451 12.6154 5.59038 12.7497 5.49358 12.8503C5.39669 12.9509 5.26461 13.0099 5.12513 13.0151C5.01983 13.0172 4.9162 12.9881 4.82751 12.9314C4.73875 12.8746 4.66883 12.7929 4.62671 12.6964C4.60057 12.6367 4.58589 12.5731 4.58283 12.5087C4.58098 12.469 4.58357 12.4289 4.59069 12.3892C4.60935 12.2856 4.6584 12.1898 4.73164 12.1141C4.8048 12.0384 4.89891 11.9861 5.00182 11.9639C5.01964 11.96 5.03756 11.9572 5.05557 11.9552C5.08088 11.9525 5.10629 11.9514 5.13169 11.9523C5.16753 11.9536 5.20318 11.9584 5.23809 11.9667C5.26248 11.9726 5.28649 11.9801 5.30996 11.9894C5.40787 12.0284 5.49201 12.0954 5.55168 12.1821C5.58798 12.2349 5.61422 12.2934 5.62955 12.3549ZM15.1107 12.0378C15.1992 11.9805 15.3026 11.9507 15.4079 11.9524L15.4069 11.9514C15.5467 11.9552 15.6795 12.0131 15.7774 12.1131C15.8753 12.213 15.9305 12.347 15.9314 12.4867C15.9309 12.5921 15.899 12.6949 15.8399 12.7821C15.7808 12.8693 15.697 12.937 15.5994 12.9765C15.5432 12.9993 15.4836 13.0121 15.4236 13.0149C15.3795 13.0169 15.335 13.0133 15.2914 13.0043C15.1883 12.9827 15.0939 12.9311 15.0201 12.8559C15.0093 12.8449 14.999 12.8333 14.9893 12.8214C14.9681 12.7957 14.9494 12.7679 14.9335 12.7389C14.9067 12.69 14.8876 12.6369 14.8773 12.5816C14.867 12.5267 14.8656 12.4711 14.8726 12.4164L14.8749 12.4001C14.8794 12.3725 14.886 12.3451 14.8948 12.3183C14.8996 12.3034 14.9052 12.2887 14.9114 12.2743C14.9529 12.1774 15.0223 12.0952 15.1107 12.0378Z" fill="url(#paint7_linear_1_6225)"/>
<path d="M18.4721 4.14719C18.8142 4.16215 19.1506 4.17684 19.3361 3.75657V3.47281C19.1029 3.08071 18.7638 2.9682 18.2483 3.11008V4.14192C18.3222 4.14062 18.3972 4.14395 18.4721 4.14719Z" fill="url(#paint8_linear_1_6225)"/>
<path d="M19.3361 5.88471C19.0966 6.3072 18.955 6.29917 18.2638 6.25963L18.2483 6.2588V5.23823C18.7638 5.09634 19.1029 5.20885 19.3361 5.60096V5.88471Z" fill="url(#paint9_linear_1_6225)"/>
<path d="M18.2638 8.3878C18.955 8.42734 19.0966 8.43537 19.3361 8.01288V7.72913C19.1029 7.33702 18.7638 7.22453 18.2483 7.3664V8.38697L18.2638 8.3878Z" fill="url(#paint10_linear_1_6225)"/>
<path d="M19.3361 10.141C19.1506 10.5613 18.8142 10.5466 18.4721 10.5316C18.3972 10.5284 18.3222 10.5251 18.2483 10.5264V9.49454C18.7638 9.35267 19.1029 9.46517 19.3361 9.85727V10.141Z" fill="url(#paint11_linear_1_6225)"/>
<path d="M18.4721 12.6598C18.8142 12.6747 19.1506 12.6894 19.3361 12.2692V11.9854C19.1029 11.5933 18.7638 11.4808 18.2483 11.6227V12.6545C18.3222 12.6532 18.3972 12.6566 18.4721 12.6598Z" fill="url(#paint12_linear_1_6225)"/>
<path d="M1.17578 3.47282C1.36135 3.0531 1.69766 3.0675 2.04006 3.08219C2.1147 3.08543 2.1897 3.08865 2.2635 3.08736V4.1193C1.75086 4.26117 1.40845 4.14765 1.17578 3.75657V3.47282Z" fill="url(#paint13_linear_1_6225)"/>
<path d="M2.04006 5.21033C1.69766 5.19565 1.36135 5.18124 1.17578 5.60095V5.88471C1.40845 6.27579 1.75086 6.38931 2.2635 6.24744V5.21551C2.1897 5.2168 2.1147 5.21357 2.04006 5.21033Z" fill="url(#paint14_linear_1_6225)"/>
<path d="M2.04006 7.3385C2.1147 7.34174 2.1897 7.34497 2.2635 7.34368V8.37561C1.75086 8.51749 1.40845 8.40396 1.17578 8.01288V7.72913C1.36135 7.30941 1.69766 7.32382 2.04006 7.3385Z" fill="url(#paint15_linear_1_6225)"/>
<path d="M2.2309 9.48124C1.55578 9.44309 1.41317 9.43506 1.17578 9.85727V10.141C1.40845 10.5321 1.75086 10.6456 2.2635 10.5038V9.48319L2.2309 9.48124Z" fill="url(#paint16_linear_1_6225)"/>
<path d="M1.17578 11.9854C1.41317 11.5632 1.55578 11.5712 2.2309 11.6094L2.2635 11.6113V12.6319C1.75086 12.7738 1.40845 12.6603 1.17578 12.2692V11.9854Z" fill="url(#paint17_linear_1_6225)"/>
<defs>
<linearGradient id="paint0_linear_1_6225" x1="11.2508" y1="9.62179" x2="11.1827" y2="11.3204" gradientUnits="userSpaceOnUse">
<stop offset="0.495281" stop-color="white"/>
<stop offset="1" stop-color="#A4A4A4"/>
</linearGradient>
<linearGradient id="paint1_linear_1_6225" x1="9.17562" y1="4.44185" x2="9.10847" y2="6.13231" gradientUnits="userSpaceOnUse">
<stop offset="0.495281" stop-color="white"/>
<stop offset="1" stop-color="#A4A4A4"/>
</linearGradient>
<linearGradient id="paint2_linear_1_6225" x1="12.052" y1="4.28349" x2="11.61" y2="7.45163" gradientUnits="userSpaceOnUse">
<stop offset="0.495281" stop-color="white"/>
<stop offset="1" stop-color="#A4A4A4"/>
</linearGradient>
<linearGradient id="paint3_linear_1_6225" x1="12.7154" y1="6.95331" x2="12.5292" y2="9.46362" gradientUnits="userSpaceOnUse">
<stop offset="0.495281" stop-color="white"/>
<stop offset="1" stop-color="#A4A4A4"/>
</linearGradient>
<linearGradient id="paint4_linear_1_6225" x1="8.41067" y1="8.30594" x2="7.98391" y2="11.3998" gradientUnits="userSpaceOnUse">
<stop offset="0.495281" stop-color="white"/>
<stop offset="1" stop-color="#A4A4A4"/>
</linearGradient>
<linearGradient id="paint5_linear_1_6225" x1="7.75102" y1="6.28418" x2="7.55323" y2="8.84867" gradientUnits="userSpaceOnUse">
<stop offset="0.495281" stop-color="white"/>
<stop offset="1" stop-color="#A4A4A4"/>
</linearGradient>
<linearGradient id="paint6_linear_1_6225" x1="10.2369" y1="7.15605" x2="10.1312" y2="8.59269" gradientUnits="userSpaceOnUse">
<stop offset="0.495281" stop-color="white"/>
<stop offset="1" stop-color="#A4A4A4"/>
</linearGradient>
<linearGradient id="paint7_linear_1_6225" x1="10.0795" y1="0.461727" x2="8.34129" y2="18.4611" gradientUnits="userSpaceOnUse">
<stop offset="0.495281" stop-color="white"/>
<stop offset="1" stop-color="#A4A4A4"/>
</linearGradient>
<linearGradient id="paint8_linear_1_6225" x1="18.7783" y1="3.05614" x2="18.6967" y2="4.1516" gradientUnits="userSpaceOnUse">
<stop offset="0.495281" stop-color="white"/>
<stop offset="1" stop-color="#A4A4A4"/>
</linearGradient>
<linearGradient id="paint9_linear_1_6225" x1="18.7783" y1="5.18427" x2="18.6972" y2="6.27608" gradientUnits="userSpaceOnUse">
<stop offset="0.495281" stop-color="white"/>
<stop offset="1" stop-color="#A4A4A4"/>
</linearGradient>
<linearGradient id="paint10_linear_1_6225" x1="18.7783" y1="7.31244" x2="18.6972" y2="8.40425" gradientUnits="userSpaceOnUse">
<stop offset="0.495281" stop-color="white"/>
<stop offset="1" stop-color="#A4A4A4"/>
</linearGradient>
<linearGradient id="paint11_linear_1_6225" x1="18.7783" y1="9.4406" x2="18.6967" y2="10.5361" gradientUnits="userSpaceOnUse">
<stop offset="0.495281" stop-color="white"/>
<stop offset="1" stop-color="#A4A4A4"/>
</linearGradient>
<linearGradient id="paint12_linear_1_6225" x1="18.7783" y1="11.5687" x2="18.6967" y2="12.6642" gradientUnits="userSpaceOnUse">
<stop offset="0.495281" stop-color="white"/>
<stop offset="1" stop-color="#A4A4A4"/>
</linearGradient>
<linearGradient id="paint13_linear_1_6225" x1="1.70574" y1="3.08168" x2="1.62421" y2="4.17683" gradientUnits="userSpaceOnUse">
<stop offset="0.495281" stop-color="white"/>
<stop offset="1" stop-color="#A4A4A4"/>
</linearGradient>
<linearGradient id="paint14_linear_1_6225" x1="1.70574" y1="5.20983" x2="1.62421" y2="6.30497" gradientUnits="userSpaceOnUse">
<stop offset="0.495281" stop-color="white"/>
<stop offset="1" stop-color="#A4A4A4"/>
</linearGradient>
<linearGradient id="paint15_linear_1_6225" x1="1.70574" y1="7.338" x2="1.62421" y2="8.43315" gradientUnits="userSpaceOnUse">
<stop offset="0.495281" stop-color="white"/>
<stop offset="1" stop-color="#A4A4A4"/>
</linearGradient>
<linearGradient id="paint16_linear_1_6225" x1="1.70574" y1="9.46937" x2="1.62469" y2="10.5613" gradientUnits="userSpaceOnUse">
<stop offset="0.495281" stop-color="white"/>
<stop offset="1" stop-color="#A4A4A4"/>
</linearGradient>
<linearGradient id="paint17_linear_1_6225" x1="1.70574" y1="11.5975" x2="1.62469" y2="12.6895" gradientUnits="userSpaceOnUse">
<stop offset="0.495281" stop-color="white"/>
<stop offset="1" stop-color="#A4A4A4"/>
</linearGradient>
</defs>
</svg>
