<svg width="20" height="20" viewBox="0 0 20 20" fill="none" xmlns="http://www.w3.org/2000/svg">
<path d="M15.8609 0H4.13731C3.50232 0 2.98828 0.514039 2.98828 1.14903V18.851C2.98828 19.486 3.50232 20 4.13731 20H15.8609C16.4958 20 17.0099 19.486 17.0099 18.851V1.14903C17.0099 0.514039 16.4959 0 15.8609 0ZM4.66215 1.19006C4.96452 1.19006 5.21074 1.43629 5.21074 1.73866C5.21074 2.04104 4.96452 2.28726 4.66215 2.28726C4.35977 2.28726 4.11355 2.04104 4.11355 1.73866C4.11355 1.43629 4.35977 1.19006 4.66215 1.19006ZM4.66215 18.9093C4.35977 18.9093 4.11355 18.6631 4.11355 18.3607C4.11355 18.0583 4.35977 17.8121 4.66215 17.8121C4.96452 17.8121 5.21074 18.0583 5.21074 18.3607C5.21074 18.6631 4.96452 18.9093 4.66215 18.9093ZM7.58223 11.6177C7.58223 11.8121 7.42457 11.9698 7.23018 11.9698H7.15027C6.95588 11.9698 6.79822 11.8121 6.79822 11.6177V10.2765H5.26474V11.6177C5.26474 11.8121 5.10707 11.9698 4.91269 11.9698H4.83709C4.64271 11.9698 4.48504 11.8121 4.48504 11.6177V8.44708C4.48504 8.2527 4.64271 8.09503 4.83709 8.09503H4.91701C5.11139 8.09503 5.26906 8.2527 5.26906 8.44708V9.61987H6.80254V8.44708C6.80254 8.2527 6.9602 8.09503 7.15459 8.09503H7.2345C7.42889 8.09503 7.58655 8.2527 7.58655 8.44708V11.6177H7.58223ZM11.5175 10.892C11.4203 11.1728 11.282 11.4017 11.1028 11.5767C10.9667 11.7084 10.7831 11.8121 10.5542 11.8855C10.3814 11.9395 10.1503 11.9676 9.86087 11.9676H8.73994C8.54556 11.9676 8.38789 11.8099 8.38789 11.6156V8.44708C8.38789 8.2527 8.54556 8.09503 8.73994 8.09503H9.81766C10.1395 8.09503 10.3857 8.11881 10.5542 8.16847C10.781 8.23542 10.9753 8.35421 11.1373 8.52484C11.2993 8.69544 11.4224 8.90497 11.5067 9.15335C11.5909 9.40173 11.6341 9.70629 11.6341 10.0691C11.6363 10.3866 11.5974 10.6631 11.5175 10.892ZM13.768 11.9676H12.647C12.4526 11.9676 12.295 11.8099 12.295 11.6156V8.44708C12.295 8.2527 12.4526 8.09503 12.647 8.09503H13.7248C14.0466 8.09503 14.2928 8.11881 14.4613 8.16847C14.6881 8.23542 14.8824 8.35421 15.0444 8.52484C15.2064 8.69544 15.3296 8.90497 15.4138 9.15335C15.498 9.40173 15.5412 9.70629 15.5412 10.0691C15.5412 10.3888 15.5023 10.6631 15.4224 10.8942C15.3252 11.1749 15.187 11.4039 15.0077 11.5788C14.8717 11.7106 14.6881 11.8143 14.4591 11.8877C14.2885 11.9417 14.0574 11.9676 13.768 11.9676ZM15.1719 18.9093C14.8695 18.9093 14.6233 18.6631 14.6233 18.3607C14.6233 18.0583 14.8695 17.8121 15.1719 17.8121C15.4742 17.8121 15.7205 18.0583 15.7205 18.3607C15.7205 18.6631 15.4764 18.9093 15.1719 18.9093ZM15.1719 2.28726C14.8695 2.28726 14.6233 2.04104 14.6233 1.73866C14.6233 1.43629 14.8695 1.19006 15.1719 1.19006C15.4742 1.19006 15.7205 1.43629 15.7205 1.73866C15.7205 2.04104 15.4764 2.28726 15.1719 2.28726Z" fill="url(#paint0_linear_1_6208)"/>
<path d="M14.4345 8.96983C14.3395 8.87912 14.2185 8.81864 14.0716 8.78843C13.9615 8.76465 13.7477 8.75171 13.4302 8.75171H13.0781V11.3176H13.6613C13.8795 11.3176 14.0371 11.3046 14.1343 11.2808C14.2617 11.2484 14.3654 11.1945 14.4496 11.1189C14.5338 11.0433 14.6008 10.918 14.6548 10.7452C14.7066 10.5724 14.7347 10.3348 14.7347 10.0368C14.7347 9.73657 14.7088 9.50763 14.6548 9.3478C14.603 9.18365 14.5296 9.05838 14.4345 8.96983Z" fill="url(#paint1_linear_1_6208)"/>
<path d="M10.526 8.96977C10.431 8.87906 10.3101 8.81858 10.1632 8.78837C10.053 8.76459 9.8392 8.75165 9.52173 8.75165H9.16968V11.3175H9.75283C9.971 11.3175 10.1286 11.3045 10.2258 11.2808C10.3533 11.2484 10.457 11.1944 10.5412 11.1188C10.6254 11.0432 10.6924 10.9179 10.7464 10.7451C10.7982 10.5724 10.8263 10.3348 10.8263 10.0367C10.8263 9.73651 10.8003 9.50757 10.7464 9.34774C10.6967 9.18359 10.6211 9.05832 10.526 8.96977Z" fill="url(#paint2_linear_1_6208)"/>
<defs>
<linearGradient id="paint0_linear_1_6208" x1="9.81988" y1="0.0884949" x2="7.74469" y2="19.8724" gradientUnits="userSpaceOnUse">
<stop offset="0.495281" stop-color="white"/>
<stop offset="1" stop-color="#A4A4A4"/>
</linearGradient>
<linearGradient id="paint1_linear_1_6208" x1="13.8853" y1="8.76306" x2="13.5967" y2="11.2963" gradientUnits="userSpaceOnUse">
<stop offset="0.495281" stop-color="white"/>
<stop offset="1" stop-color="#A4A4A4"/>
</linearGradient>
<linearGradient id="paint2_linear_1_6208" x1="9.97681" y1="8.763" x2="9.68828" y2="11.2962" gradientUnits="userSpaceOnUse">
<stop offset="0.495281" stop-color="white"/>
<stop offset="1" stop-color="#A4A4A4"/>
</linearGradient>
</defs>
</svg>
