<svg width="20" height="20" viewBox="0 0 20 20" fill="none" xmlns="http://www.w3.org/2000/svg">
<path d="M6.19639 14.3137L4.71484 15.7943C8.13692 18.9367 12.9883 18.174 15.2603 15.791L13.7891 14.3169C11.7526 16.1599 8.41659 16.3064 6.19639 14.3137Z" fill="url(#paint0_linear_1_6250)"/>
<path d="M4.22008 4.71558L5.70263 6.20077C4.76365 7.28321 4.25502 8.54824 4.25451 9.99787C4.25391 11.4476 4.75845 12.7152 5.69631 13.7935L4.21325 15.2745C1.61126 12.697 1.25497 7.85388 4.22008 4.71558Z" fill="url(#paint1_linear_1_6250)"/>
<path d="M13.7838 5.69477L15.269 4.20905C12.115 1.23611 7.27196 1.64611 4.74609 4.19918L6.21193 5.6963C7.29437 4.75985 8.549 4.2596 10.0013 4.26021C11.4536 4.26071 12.7171 4.76771 13.7838 5.69477Z" fill="url(#paint2_linear_1_6250)"/>
<path d="M14.3046 6.20266L15.7809 4.73163C18.3777 7.31903 18.7486 12.1157 15.7975 15.2718L14.3139 13.7923C16.1555 11.7433 16.3004 8.4677 14.3046 6.20266Z" fill="url(#paint3_linear_1_6250)"/>
<path fill-rule="evenodd" clip-rule="evenodd" d="M6.18489 6.69578L6.16787 6.68111C4.52464 8.17568 4.52464 11.9211 6.13862 13.3025L6.15329 13.2878C6.24336 13.3947 6.33801 13.498 6.43706 13.5976C7.14699 14.3112 8.05286 14.7981 9.03974 14.9966C10.0266 15.1952 11.0503 15.0963 11.9809 14.7127C12.9116 14.3291 13.7076 13.678 14.268 12.8417C14.8283 12.0055 15.1279 11.0217 15.129 10.015C15.1276 8.66972 14.5945 7.37954 13.6457 6.42578C12.6969 5.47212 11.4093 4.93233 10.0641 4.92418C9.05747 4.92 8.07212 5.21455 7.23309 5.77065C6.84063 6.03076 6.4884 6.34254 6.18489 6.69578ZM9.60695 11.9189L9.81225 11.0548C9.49262 11.0548 9.21488 11.0603 8.9454 11.0492C8.2327 11.0325 7.76167 10.4378 7.92328 9.74841C8.09363 9.01492 8.27519 8.28399 8.46775 7.55561C8.62852 6.95814 9.19257 6.61895 9.74357 6.76761C10.3103 6.92471 10.6253 7.46828 10.4868 8.0685C10.439 8.27818 10.3882 8.48735 10.332 8.71874L10.2723 8.9651H11.0778C11.8778 8.97621 12.3331 9.55788 12.1473 10.3393C11.9809 11.0381 11.8109 11.7358 11.6306 12.4318C11.4699 13.0515 10.9012 13.4046 10.3438 13.2522C9.75937 13.0943 9.45829 12.5489 9.60695 11.9189Z" fill="url(#paint4_linear_1_6250)"/>
<path fill-rule="evenodd" clip-rule="evenodd" d="M0.782489 20H19.2163C19.2432 19.9872 19.2701 19.9742 19.2968 19.9611L19.3035 19.9577L19.3681 19.9263C19.7489 19.7694 19.9478 19.4798 19.9941 19.0786C19.9978 19.0332 19.9988 18.9876 19.9972 18.942V1.06574C19.9972 0.511276 19.6811 0.111677 19.1695 0.0224243C19.1097 0.0146805 19.0497 0.00968821 18.9895 0.00754845C18.9731 0.00693667 18.9564 0.00652979 18.9398 0.00632636C18.9062 0.00602047 18.8724 0.00652981 18.8387 0.00785436C12.9829 0.0144771 7.12686 0.011828 1.27073 9.53832e-06C0.653093 -0.00151992 0.208665 0.180551 0 0.788203V19.2175C0.0561401 19.402 0.156906 19.5701 0.293434 19.7064C0.42986 19.843 0.597869 19.9437 0.782489 20ZM18.5794 9.98408C18.5188 14.7682 14.6774 18.5393 9.99344 18.5283C5.28699 18.5169 1.45025 14.6717 1.47216 9.98978C1.49458 5.27142 5.34904 1.4304 10.0461 1.44914C14.7431 1.468 18.6378 5.31573 18.5794 9.98408ZM17.9604 0.977406C18.0371 0.978018 18.114 0.979139 18.1908 0.979139H18.2576L18.342 0.978324C18.4476 0.977305 18.553 0.976285 18.6577 0.981279C18.7016 0.980667 18.7454 0.989021 18.7863 1.00563C18.827 1.02224 18.8641 1.047 18.8951 1.07817C18.9263 1.10945 18.9508 1.14654 18.9673 1.18749C18.9838 1.22836 18.9918 1.27206 18.991 1.31618C18.9946 1.51383 18.8779 1.64895 18.6693 1.65475C18.5476 1.6579 18.426 1.65985 18.3046 1.66066C18.1072 1.66188 17.91 1.65995 17.713 1.65475C17.6671 1.65639 17.6215 1.64823 17.579 1.63101L17.5639 1.62439L17.5527 1.61898C17.5464 1.61563 17.54 1.61206 17.5337 1.60839C17.5091 1.59351 17.4865 1.57549 17.4665 1.5546C17.4605 1.54848 17.455 1.54217 17.4495 1.53554C17.4421 1.52647 17.4353 1.517 17.4288 1.50721C17.4149 1.48592 17.4035 1.46299 17.3951 1.43895C17.3796 1.39575 17.3734 1.3499 17.3769 1.30415C17.3801 1.20992 17.4167 1.12962 17.4784 1.07237C17.5382 1.01684 17.6216 0.983011 17.7213 0.979139C17.801 0.976795 17.8806 0.976795 17.9604 0.977406ZM18.3614 18.9978L18.2756 18.9965C18.2443 18.996 18.2128 18.9958 18.1813 18.9958C18.0254 18.9958 17.8695 19.002 17.714 18.9972C17.5027 18.9864 17.3713 18.8434 17.3781 18.6466C17.3786 18.6027 17.3879 18.5592 17.4056 18.5189L17.4102 18.509L17.4136 18.5019C17.4187 18.4921 17.4243 18.4823 17.4302 18.4729C17.4445 18.4506 17.4614 18.4301 17.4807 18.4119C17.4947 18.3987 17.5097 18.3868 17.5257 18.3762C17.5464 18.3626 17.5683 18.3514 17.5917 18.3427C17.6329 18.3274 17.6767 18.3203 17.7207 18.3222C18.0301 18.3155 18.3432 18.3149 18.6562 18.3222C18.6998 18.3231 18.7426 18.3323 18.782 18.3491C18.8215 18.3657 18.8577 18.3901 18.8886 18.4208C18.9221 18.4544 18.948 18.4943 18.9646 18.5378C18.9787 18.5743 18.9864 18.6134 18.9872 18.6532C18.9888 18.7405 18.9564 18.825 18.8967 18.889C18.8373 18.9528 18.7552 18.991 18.6681 18.9958C18.6182 18.9981 18.5681 18.9992 18.5179 18.9992C18.4658 18.9995 18.4137 18.9986 18.3614 18.9978ZM1.97192 1.69112L1.89733 1.69021L1.8096 1.68969L1.75123 1.6899L1.65728 1.69093L1.63833 1.69122C1.53951 1.69254 1.44078 1.69388 1.34226 1.69122C1.22824 1.68623 1.13634 1.64048 1.07766 1.56763C1.03292 1.51211 1.00735 1.4409 1.00572 1.36C1.00286 1.31597 1.00909 1.27176 1.02407 1.23019C1.03904 1.18871 1.06237 1.15072 1.09273 1.11862C1.12299 1.08643 1.15957 1.06095 1.20022 1.04363C1.24078 1.02621 1.28448 1.01745 1.3287 1.01775C1.65311 1.00736 1.97762 1.00736 2.30213 1.01775C2.32393 1.01786 2.34563 1.0202 2.36692 1.02468C2.38863 1.02937 2.40992 1.0363 2.4303 1.04547C2.47075 1.0634 2.50702 1.08948 2.53677 1.12209C2.5489 1.13533 2.5599 1.14949 2.56958 1.16446C2.58375 1.18649 2.59526 1.21011 2.60371 1.23498C2.61207 1.25942 2.61737 1.2847 2.61961 1.31027C2.62124 1.3285 2.62133 1.34684 2.61982 1.36518C2.61829 1.45056 2.58375 1.53217 2.52352 1.5927C2.4632 1.65312 2.3818 1.68797 2.29631 1.68969C2.18852 1.69418 2.08021 1.69265 1.97192 1.69112ZM1.96876 18.9972C1.91659 18.9965 1.86443 18.9958 1.81226 18.9958C1.68836 18.9958 1.56447 18.9996 1.442 18.9981C1.41021 18.9978 1.37853 18.9971 1.34693 18.9958C1.13513 18.9848 1.00318 18.8434 1.00787 18.6478C1.00776 18.6037 1.01653 18.5601 1.03374 18.5195C1.05096 18.4789 1.07613 18.4422 1.10782 18.4116C1.1396 18.381 1.17709 18.3571 1.21825 18.3414C1.25952 18.3258 1.30344 18.3185 1.34745 18.3201C1.6577 18.3139 1.96926 18.3139 2.28227 18.3201C2.32628 18.3188 2.37008 18.3262 2.41114 18.3421C2.42866 18.3488 2.44549 18.3569 2.46148 18.3666C2.46902 18.3712 2.47636 18.3759 2.48349 18.381L2.4947 18.3895C2.50396 18.3966 2.51283 18.4043 2.52138 18.4125C2.55307 18.4431 2.57824 18.4797 2.59555 18.5203C2.61278 18.5607 2.62175 18.6043 2.62185 18.6483C2.62653 18.8434 2.49357 18.9852 2.28175 18.9958C2.24467 18.9972 2.20758 18.998 2.1705 18.9983L2.09469 18.9984L2.03111 18.9978L1.97425 18.9972H1.96876Z" fill="url(#paint5_linear_1_6250)"/>
<defs>
<linearGradient id="paint0_linear_1_6250" x1="9.85278" y1="14.3295" x2="9.76441" y2="17.8884" gradientUnits="userSpaceOnUse">
<stop offset="0.495281" stop-color="white"/>
<stop offset="1" stop-color="#A4A4A4"/>
</linearGradient>
<linearGradient id="paint1_linear_1_6250" x1="3.8691" y1="4.7623" x2="1.67923" y2="14.8465" gradientUnits="userSpaceOnUse">
<stop offset="0.495281" stop-color="white"/>
<stop offset="1" stop-color="#A4A4A4"/>
</linearGradient>
<linearGradient id="paint2_linear_1_6250" x1="9.87306" y1="2.14493" x2="9.78418" y2="5.71015" gradientUnits="userSpaceOnUse">
<stop offset="0.495281" stop-color="white"/>
<stop offset="1" stop-color="#A4A4A4"/>
</linearGradient>
<linearGradient id="paint3_linear_1_6250" x1="16.0428" y1="4.77827" x2="13.8558" y2="14.8442" gradientUnits="userSpaceOnUse">
<stop offset="0.495281" stop-color="white"/>
<stop offset="1" stop-color="#A4A4A4"/>
</linearGradient>
<linearGradient id="paint4_linear_1_6250" x1="9.90004" y1="4.96914" x2="9.15774" y2="15.0879" gradientUnits="userSpaceOnUse">
<stop offset="0.495281" stop-color="white"/>
<stop offset="1" stop-color="#A4A4A4"/>
</linearGradient>
<linearGradient id="paint5_linear_1_6250" x1="9.74342" y1="0.0884949" x2="8.2803" y2="19.9825" gradientUnits="userSpaceOnUse">
<stop offset="0.495281" stop-color="white"/>
<stop offset="1" stop-color="#A4A4A4"/>
</linearGradient>
</defs>
</svg>
