<svg width="20" height="20" viewBox="0 0 20 20" fill="none" xmlns="http://www.w3.org/2000/svg">
<path fill-rule="evenodd" clip-rule="evenodd" d="M6.32203 4.78761C5.7465 4.86498 5.44173 5.0065 5.22466 5.22357C5.00758 5.44062 4.86605 5.74538 4.78867 6.32087C4.70901 6.91329 4.70776 7.69845 4.70776 8.82424V11.1771C4.70776 12.3029 4.70901 13.088 4.78867 13.6804C4.86605 14.2559 5.00758 14.5607 5.22466 14.7778C5.44173 14.9948 5.74651 15.1364 6.32203 15.2137C6.91449 15.2934 7.6997 15.2946 8.82556 15.2946H11.1786C12.3044 15.2946 13.0896 15.2934 13.6821 15.2137C14.2576 15.1364 14.5624 14.9948 14.7795 14.7778C14.9966 14.5607 15.1381 14.2559 15.2155 13.6804C15.2951 13.088 15.2964 12.3029 15.2964 11.1771V8.82424C15.2964 7.69845 15.2951 6.91329 15.2155 6.32087C15.1381 5.74538 14.9966 5.44064 14.7795 5.22358C14.5624 5.00651 14.2576 4.86498 13.6821 4.78761C13.0896 4.70796 12.3044 4.70671 11.1786 4.70671H8.82556C7.6997 4.70671 6.91449 4.70796 6.32203 4.78761ZM8.78252 3.53027H11.2216C12.2943 3.53026 13.1589 3.53024 13.8389 3.62166C14.5448 3.71658 15.1393 3.91963 15.6114 4.3917C16.0835 4.86377 16.2866 5.45817 16.3815 6.16411C16.4729 6.84407 16.4729 7.70861 16.4729 8.78121V11.2201C16.4729 12.2927 16.4729 13.1573 16.3815 13.8372C16.2866 14.5432 16.0835 15.1375 15.6114 15.6096C15.1393 16.0817 14.5449 16.2848 13.8389 16.3797C13.1589 16.4711 12.2943 16.4711 11.2216 16.4711H8.78253C7.70987 16.4711 6.84526 16.4711 6.16526 16.3797C5.45927 16.2848 4.86483 16.0817 4.39273 15.6096C3.92063 15.1375 3.71756 14.5432 3.62265 13.8372C3.53122 13.1573 3.53123 12.2927 3.53125 11.2201V8.7812C3.53123 7.70861 3.53122 6.84407 3.62265 6.16412C3.71756 5.45817 3.92063 4.86378 4.39273 4.39171C4.39273 4.39171 4.39274 4.39171 4.39273 4.39171M4.39273 4.39171C4.86484 3.91963 5.45928 3.71658 6.16526 3.62166C6.84526 3.53024 7.70986 3.53026 8.78252 3.53027" fill="url(#paint0_linear_1_6104)"/>
<path d="M11.1759 7.64795H8.82288C8.1731 7.64795 7.64636 8.17466 7.64636 8.82439V11.1773C7.64636 11.827 8.1731 12.3537 8.82288 12.3537H11.1759C11.8257 12.3537 12.3524 11.827 12.3524 11.1773V8.82439C12.3524 8.17466 11.8257 7.64795 11.1759 7.64795Z" fill="url(#paint1_linear_1_6104)"/>
<path fill-rule="evenodd" clip-rule="evenodd" d="M7.64685 0C7.97174 0 8.23511 0.263354 8.23511 0.588218V4.11753C8.23511 4.44239 7.97174 4.70574 7.64685 4.70574C7.32197 4.70574 7.05859 4.44239 7.05859 4.11753V0.588218C7.05859 0.263354 7.32197 0 7.64685 0Z" fill="url(#paint2_linear_1_6104)"/>
<path fill-rule="evenodd" clip-rule="evenodd" d="M12.3536 0C12.6785 0 12.9419 0.263354 12.9419 0.588218V4.11753C12.9419 4.44239 12.6785 4.70574 12.3536 4.70574C12.0288 4.70574 11.7654 4.44239 11.7654 4.11753V0.588218C11.7654 0.263354 12.0288 0 12.3536 0Z" fill="url(#paint3_linear_1_6104)"/>
<path fill-rule="evenodd" clip-rule="evenodd" d="M15.293 7.64779C15.293 7.32292 15.5563 7.05957 15.8812 7.05957H19.4108C19.7356 7.05957 19.999 7.32292 19.999 7.64779C19.999 7.97265 19.7356 8.23601 19.4108 8.23601H15.8812C15.5563 8.23601 15.293 7.97265 15.293 7.64779Z" fill="url(#paint4_linear_1_6104)"/>
<path fill-rule="evenodd" clip-rule="evenodd" d="M15.293 12.3534C15.293 12.0285 15.5563 11.7651 15.8812 11.7651H19.4108C19.7356 11.7651 19.999 12.0285 19.999 12.3534C19.999 12.6782 19.7356 12.9416 19.4108 12.9416H15.8812C15.5563 12.9416 15.293 12.6782 15.293 12.3534Z" fill="url(#paint5_linear_1_6104)"/>
<path fill-rule="evenodd" clip-rule="evenodd" d="M7.64685 15.2939C7.97174 15.2939 8.23511 15.5573 8.23511 15.8822V19.4115C8.23511 19.7363 7.97174 19.9997 7.64685 19.9997C7.32197 19.9997 7.05859 19.7363 7.05859 19.4115V15.8822C7.05859 15.5573 7.32197 15.2939 7.64685 15.2939Z" fill="url(#paint6_linear_1_6104)"/>
<path fill-rule="evenodd" clip-rule="evenodd" d="M12.3536 15.2943C12.6785 15.2943 12.9419 15.5577 12.9419 15.8825V19.4118C12.9419 19.7367 12.6785 20.0001 12.3536 20.0001C12.0288 20.0001 11.7654 19.7367 11.7654 19.4118V15.8825C11.7654 15.5577 12.0288 15.2943 12.3536 15.2943Z" fill="url(#paint7_linear_1_6104)"/>
<path fill-rule="evenodd" clip-rule="evenodd" d="M0 7.64791C0 7.32305 0.263371 7.05969 0.588256 7.05969H4.11779C4.44268 7.05969 4.70605 7.32305 4.70605 7.64791C4.70605 7.97277 4.44268 8.23613 4.11779 8.23613H0.588256C0.263371 8.23613 0 7.97277 0 7.64791Z" fill="url(#paint8_linear_1_6104)"/>
<path fill-rule="evenodd" clip-rule="evenodd" d="M0 12.3533C0 12.0284 0.263371 11.7651 0.588256 11.7651H4.11779C4.44268 11.7651 4.70605 12.0284 4.70605 12.3533C4.70605 12.6782 4.44268 12.9415 4.11779 12.9415H0.588256C0.263371 12.9415 0 12.6782 0 12.3533Z" fill="url(#paint9_linear_1_6104)"/>
<defs>
<linearGradient id="paint0_linear_1_6104" x1="9.83668" y1="3.58753" x2="8.89014" y2="16.4597" gradientUnits="userSpaceOnUse">
<stop offset="0.495281" stop-color="white"/>
<stop offset="1" stop-color="#A4A4A4"/>
</linearGradient>
<linearGradient id="paint1_linear_1_6104" x1="9.93925" y1="7.66877" x2="9.59505" y2="12.3496" gradientUnits="userSpaceOnUse">
<stop offset="0.495281" stop-color="white"/>
<stop offset="1" stop-color="#A4A4A4"/>
</linearGradient>
<linearGradient id="paint2_linear_1_6104" x1="7.63181" y1="0.0208217" x2="6.35781" y2="4.3522" gradientUnits="userSpaceOnUse">
<stop offset="0.495281" stop-color="white"/>
<stop offset="1" stop-color="#A4A4A4"/>
</linearGradient>
<linearGradient id="paint3_linear_1_6104" x1="12.3386" y1="0.0208217" x2="11.0646" y2="4.3522" gradientUnits="userSpaceOnUse">
<stop offset="0.495281" stop-color="white"/>
<stop offset="1" stop-color="#A4A4A4"/>
</linearGradient>
<linearGradient id="paint4_linear_1_6104" x1="17.5859" y1="7.06478" x2="17.5642" y2="8.24091" gradientUnits="userSpaceOnUse">
<stop offset="0.495281" stop-color="white"/>
<stop offset="1" stop-color="#A4A4A4"/>
</linearGradient>
<linearGradient id="paint5_linear_1_6104" x1="17.5859" y1="11.7703" x2="17.5642" y2="12.9465" gradientUnits="userSpaceOnUse">
<stop offset="0.495281" stop-color="white"/>
<stop offset="1" stop-color="#A4A4A4"/>
</linearGradient>
<linearGradient id="paint6_linear_1_6104" x1="7.63181" y1="15.3148" x2="6.35781" y2="19.6461" gradientUnits="userSpaceOnUse">
<stop offset="0.495281" stop-color="white"/>
<stop offset="1" stop-color="#A4A4A4"/>
</linearGradient>
<linearGradient id="paint7_linear_1_6104" x1="12.3386" y1="15.3151" x2="11.0646" y2="19.6465" gradientUnits="userSpaceOnUse">
<stop offset="0.495281" stop-color="white"/>
<stop offset="1" stop-color="#A4A4A4"/>
</linearGradient>
<linearGradient id="paint8_linear_1_6104" x1="2.29288" y1="7.0649" x2="2.27126" y2="8.24103" gradientUnits="userSpaceOnUse">
<stop offset="0.495281" stop-color="white"/>
<stop offset="1" stop-color="#A4A4A4"/>
</linearGradient>
<linearGradient id="paint9_linear_1_6104" x1="2.29288" y1="11.7703" x2="2.27126" y2="12.9464" gradientUnits="userSpaceOnUse">
<stop offset="0.495281" stop-color="white"/>
<stop offset="1" stop-color="#A4A4A4"/>
</linearGradient>
</defs>
</svg>
