<svg width="20" height="20" viewBox="0 0 20 20" fill="none" xmlns="http://www.w3.org/2000/svg">
<mask id="mask0_1_6181" style="mask-type:luminance" maskUnits="userSpaceOnUse" x="0" y="0" width="20" height="20">
<path d="M19.3889 0.617676H0.476562V19.5301H19.3889V0.617676Z" fill="white"/>
</mask>
<g mask="url(#mask0_1_6181)">
<path d="M9.93281 12.0759C7.22499 12.0759 4.51716 12.0759 1.80934 12.0759C1.69341 12.0792 1.57802 12.0591 1.47 12.0168C1.2991 11.9425 1.23655 11.774 1.29467 11.5633C1.49167 10.8461 1.67833 10.1261 1.90636 9.41885C2.01128 9.09477 1.99749 8.82783 1.82018 8.53774C1.66602 8.28755 1.56259 8.00682 1.41779 7.74973C1.31058 7.5556 1.25655 7.3366 1.26118 7.11489C1.26118 6.5613 1.25773 6.00723 1.26118 5.45365C1.26413 5.12317 1.40893 4.98772 1.74137 4.98674C2.56633 4.98674 3.39079 4.98921 4.21574 4.98674C4.44391 4.98111 4.67093 5.02074 4.88371 5.10333C5.09648 5.18592 5.29078 5.30984 5.4554 5.46792C5.56262 5.56904 5.68893 5.64773 5.82695 5.6994C5.96497 5.75108 6.11192 5.77469 6.25917 5.76885C8.70892 5.76557 11.1585 5.76557 13.608 5.76885C13.8818 5.76885 14.1241 5.70729 14.3221 5.52653C14.7865 5.10199 15.3282 4.95177 15.9503 4.97443C16.6694 5.00053 17.3904 4.97985 18.1104 4.98084C18.4656 4.98084 18.603 5.11775 18.603 5.47334C18.603 6.05795 18.6083 6.64256 18.5995 7.22717C18.5961 7.35513 18.5664 7.48102 18.5123 7.59705C18.3216 8.00321 18.1224 8.40526 17.9149 8.80321C17.8874 8.8533 17.8708 8.90861 17.8662 8.96556C17.8615 9.02251 17.8689 9.07979 17.8879 9.13369C18.1179 9.90442 18.342 10.6778 18.567 11.4485C18.6877 11.8617 18.5271 12.072 18.0918 12.072C15.3721 12.0753 12.6524 12.0766 9.93281 12.0759ZM13.0849 9.47795C13.0849 9.60699 13.0849 9.70451 13.0849 9.80251C13.0849 9.90051 13.0795 10.0123 13.0888 10.1158C13.1105 10.3448 13.2764 10.4989 13.4873 10.4955C13.6981 10.492 13.8473 10.3433 13.8749 10.1232C13.8784 10.0863 13.8797 10.0493 13.8788 10.0123C13.8788 9.28111 13.8788 8.5494 13.8788 7.8172C13.8798 7.77419 13.8769 7.73118 13.8704 7.68866C13.8389 7.5148 13.74 7.39315 13.5651 7.36015C13.3902 7.32715 13.2322 7.38429 13.1425 7.54977C13.0169 7.78174 12.9026 8.02011 12.7824 8.25505C12.7569 8.3043 12.7273 8.35354 12.6894 8.41954C12.5417 8.12847 12.4122 7.86449 12.2766 7.60346C12.1698 7.39758 12.0058 7.31533 11.8113 7.36015C11.6295 7.4025 11.5158 7.55223 11.5158 7.77435C11.5131 8.53676 11.5131 9.29933 11.5158 10.062C11.5152 10.1354 11.5294 10.2081 11.5576 10.2758C11.5942 10.3545 11.6566 10.4184 11.7344 10.4569C11.8122 10.4954 11.9008 10.5062 11.9856 10.4876C12.0736 10.4687 12.1525 10.4202 12.2091 10.3502C12.2658 10.2802 12.2967 10.193 12.2968 10.103C12.3028 9.89956 12.2968 9.69566 12.2968 9.46268C12.5855 9.75528 12.7765 9.75823 13.082 9.47795H13.0849ZM7.66727 9.28587L7.80566 9.21101C8.22282 8.98791 8.43213 8.55105 8.33166 8.11517C8.28333 7.89705 8.16169 7.7021 7.987 7.56281C7.81232 7.42353 7.59516 7.34835 7.37176 7.34981C7.05163 7.3439 6.7315 7.34489 6.41186 7.34981C6.15821 7.35375 5.99765 7.49756 5.99519 7.74382C5.98682 8.52544 5.98435 9.30705 6.00011 10.0887C6.00671 10.1539 6.02627 10.2172 6.05764 10.2748C6.08902 10.3324 6.13158 10.3832 6.18284 10.424C6.43205 10.6122 6.76153 10.424 6.78124 10.0911C6.79256 9.90442 6.78124 9.7168 6.78124 9.48435C7.09103 9.79166 7.3629 10.0645 7.63722 10.3344C7.83816 10.5315 8.07013 10.5481 8.23956 10.3793C8.40898 10.2103 8.39126 9.97042 8.19425 9.77642C8.02975 9.6149 7.8554 9.46268 7.66727 9.28587ZM10.7208 10.5023C11.0469 10.4984 11.2044 10.2414 11.1016 9.93061C10.8533 9.17867 10.6023 8.42726 10.3485 7.67634C10.2717 7.44782 10.1515 7.34833 9.95891 7.34686C9.76634 7.34538 9.6378 7.44535 9.55801 7.68619C9.31209 8.41971 9.06748 9.15371 8.82417 9.88823C8.80081 9.95166 8.78559 10.0179 8.77886 10.0852C8.77207 10.1721 8.79538 10.2587 8.84489 10.3304C8.89439 10.4022 8.96708 10.4547 9.05072 10.4792C9.21917 10.5338 9.43883 10.4768 9.49104 10.3088C9.56294 10.0774 9.71611 10.0931 9.88948 10.1005C9.98167 10.1054 10.0741 10.1054 10.1662 10.1005C10.2687 10.094 10.3273 10.1153 10.3633 10.2319C10.3851 10.3099 10.432 10.3786 10.4965 10.4274C10.5611 10.4762 10.6399 10.5026 10.7208 10.5023Z" fill="url(#paint0_linear_1_6181)"/>
<path d="M13.4651 13.6461H2.28859C1.74043 13.6461 1.65473 13.5609 1.65818 13.0177C1.65818 12.9748 1.65818 12.932 1.65818 12.8753H13.4651V13.6461Z" fill="url(#paint1_linear_1_6181)"/>
<path d="M18.1907 12.8709C18.1958 12.8812 18.1997 12.8921 18.202 12.9034C18.2336 13.4589 18.1966 13.6662 17.5076 13.6515C16.5063 13.6299 15.5046 13.6461 14.5033 13.6461H14.2753V12.8709H18.1907Z" fill="url(#paint2_linear_1_6181)"/>
<path d="M6.79675 8.13287C6.99375 8.13287 7.17795 8.13287 7.36117 8.13287C7.48331 8.13287 7.55817 8.19886 7.56507 8.322C7.57196 8.44512 7.49316 8.519 7.37397 8.52442C7.18632 8.53279 6.9977 8.52442 6.79675 8.52442V8.13287Z" fill="url(#paint3_linear_1_6181)"/>
<path d="M9.8404 8.38296C9.87211 8.29715 9.99349 8.29715 10.0252 8.38296L10.225 8.92372C10.2488 8.98805 10.2012 9.05637 10.1326 9.05637H9.73298C9.66441 9.05637 9.61682 8.98805 9.64059 8.92372L9.8404 8.38296Z" fill="url(#paint4_linear_1_6181)"/>
</g>
<defs>
<linearGradient id="paint0_linear_1_6181" x1="9.7111" y1="5.00366" x2="9.49732" y2="12.1018" gradientUnits="userSpaceOnUse">
<stop offset="0.495281" stop-color="white"/>
<stop offset="1" stop-color="#A4A4A4"/>
</linearGradient>
<linearGradient id="paint1_linear_1_6181" x1="7.41071" y1="12.8787" x2="7.40701" y2="13.6495" gradientUnits="userSpaceOnUse">
<stop offset="0.495281" stop-color="white"/>
<stop offset="1" stop-color="#A4A4A4"/>
</linearGradient>
<linearGradient id="paint2_linear_1_6181" x1="16.1922" y1="12.8744" x2="16.1808" y2="13.6556" gradientUnits="userSpaceOnUse">
<stop offset="0.495281" stop-color="white"/>
<stop offset="1" stop-color="#A4A4A4"/>
</linearGradient>
<linearGradient id="paint3_linear_1_6181" x1="7.1713" y1="8.13462" x2="7.15637" y2="8.52935" gradientUnits="userSpaceOnUse">
<stop offset="0.495281" stop-color="white"/>
<stop offset="1" stop-color="#A4A4A4"/>
</linearGradient>
<linearGradient id="paint4_linear_1_6181" x1="9.92517" y1="8.32187" x2="9.85865" y2="9.05364" gradientUnits="userSpaceOnUse">
<stop offset="0.495281" stop-color="white"/>
<stop offset="1" stop-color="#A4A4A4"/>
</linearGradient>
</defs>
</svg>
