<svg width="15" height="20" viewBox="0 0 15 20" fill="none" xmlns="http://www.w3.org/2000/svg">
<path d="M10.544 8.30291C10.4088 8.2918 10.2715 8.30291 10.1256 8.30291L10.1251 9.90817C10.2563 9.90817 10.3751 9.91171 10.4938 9.90817C10.6639 9.90179 10.7899 9.83254 10.8568 9.71241C10.8901 9.6525 10.9086 9.58001 10.9106 9.49632C10.9148 9.33779 10.9165 9.17926 10.9157 9.02073C10.9152 8.91553 10.9135 8.81033 10.9106 8.70524C10.9052 8.4744 10.7703 8.3255 10.544 8.30291Z" fill="url(#paint0_linear_1_6197)"/>
<path fill-rule="evenodd" clip-rule="evenodd" d="M12.9318 16.9071V18.7443C13.9823 18.9067 14.5467 18.2183 14.5457 17.4151C14.5325 13.6582 14.534 9.90158 14.5356 6.14492L14.5367 2.36017C14.536 1.55149 14.0388 1.05261 13.2341 1.05261H2.16211C1.36503 1.05311 0.862128 1.55149 0.862128 2.34504V17.475C0.858592 17.5943 0.868906 17.7136 0.892774 17.8305C1.05219 18.5044 1.68632 18.877 2.46386 18.7428V16.9238C2.46386 16.4697 2.57848 16.353 3.0311 16.353H12.3676C12.4043 16.3519 12.4411 16.352 12.4778 16.3532L12.5055 16.3543C12.5285 16.3553 12.5516 16.3569 12.5748 16.359C12.654 16.3636 12.7298 16.3942 12.7899 16.4461C12.8501 16.498 12.8915 16.5683 12.9077 16.6462C12.9263 16.7319 12.9344 16.8196 12.9318 16.9071ZM9.30838 10.2769C9.30484 9.88714 9.30838 9.49739 9.30838 9.10763L9.30788 7.95999C9.31044 7.64214 9.45522 7.49834 9.76905 7.4953C10.0081 7.49333 10.247 7.49333 10.4857 7.4953C11.1425 7.50138 11.6483 7.9379 11.7048 8.59167C11.7359 8.96 11.7316 9.33051 11.6917 9.69805C11.6313 10.2553 11.1475 10.6802 10.5898 10.7039C10.441 10.7103 10.2919 10.7123 10.1428 10.7121C10.0091 10.712 9.87542 10.7103 9.74184 10.7084C9.45925 10.7044 9.31191 10.5595 9.30838 10.2769ZM4.78243 9.91091C4.94528 9.9115 5.10883 9.91229 5.27355 9.91229L5.27404 9.50594H4.55396C3.99968 9.50289 3.67486 9.18258 3.67132 8.62938C3.67044 8.60749 3.66985 8.58558 3.66946 8.56368C3.66847 8.50975 3.66897 8.45582 3.67094 8.402C3.67339 8.33334 3.6782 8.26478 3.68537 8.19641C3.70718 8.0036 3.79941 7.82572 3.94439 7.69695C4.02827 7.6225 4.1264 7.56749 4.23179 7.53458C4.3086 7.51062 4.38924 7.49834 4.47097 7.49883C4.8667 7.49333 5.26304 7.49432 5.65878 7.49883C5.91633 7.50237 6.08428 7.67436 6.08222 7.9047C6.08026 8.13502 5.91927 8.29297 5.66782 8.29749C5.52667 8.29925 5.38542 8.29945 5.24418 8.29916L5.08722 8.29867C4.96021 8.29808 4.83321 8.29749 4.7063 8.29749H4.49306V8.70276H5.23229C5.75032 8.70532 6.0777 9.03122 6.08428 9.55121V9.55475L6.08586 9.68637C6.08655 9.77949 6.08586 9.8728 6.08075 9.96562C6.0722 10.1594 5.99137 10.3429 5.85415 10.4799C5.71692 10.617 5.53325 10.6976 5.33945 10.7059C5.0056 10.7163 4.67134 10.7156 4.33728 10.7119L4.0762 10.7084C4.04428 10.7091 4.01256 10.706 3.98151 10.6991C3.96187 10.6948 3.94251 10.6889 3.92366 10.6816C3.89636 10.6709 3.87042 10.6573 3.84636 10.641C3.8275 10.6282 3.80973 10.6138 3.79331 10.5979C3.77288 10.5781 3.75471 10.5562 3.73909 10.5327C3.72614 10.513 3.71484 10.4921 3.7055 10.4703C3.70108 10.4599 3.69706 10.4494 3.69353 10.4387C3.68979 10.4274 3.68665 10.416 3.684 10.4045C3.67751 10.3764 3.67407 10.3476 3.67388 10.3186C3.6726 10.2648 3.68232 10.2114 3.70237 10.1615C3.71169 10.1382 3.72319 10.1159 3.73664 10.0949C3.74401 10.0834 3.75197 10.0723 3.76051 10.0616C3.76984 10.0499 3.77986 10.0388 3.79047 10.0282C3.82858 9.99018 3.87396 9.96032 3.92396 9.94038C3.97385 9.92043 4.02739 9.91091 4.08121 9.91229C4.21804 9.91072 4.35506 9.91022 4.49238 9.91032C4.58883 9.91032 4.68548 9.91061 4.78243 9.91091ZM7.51952 8.29896H7.30177L7.30275 8.7058H8.04208C8.56865 8.70884 8.9035 9.03976 8.9035 9.56379C8.9035 9.75139 8.90861 9.94401 8.86834 10.1245C8.83169 10.2889 8.74064 10.436 8.6099 10.5421C8.47927 10.6483 8.31651 10.7072 8.14816 10.7093C7.73424 10.72 7.31935 10.7175 6.90445 10.7119C6.66007 10.7089 6.49211 10.5384 6.49211 10.3146C6.49211 10.2609 6.50282 10.2076 6.52374 10.158C6.54466 10.1085 6.5753 10.0636 6.61381 10.0261C6.65241 9.9886 6.69808 9.95923 6.74818 9.93969C6.79827 9.92014 6.8517 9.91081 6.90554 9.91229C7.16239 9.90963 7.42012 9.91052 7.6814 9.9114H7.6867L7.75104 9.9117C7.86272 9.91199 7.97509 9.91229 8.08835 9.91229V9.50447C7.87314 9.50447 7.65478 9.49081 7.43908 9.50692C6.79435 9.55367 6.43926 9.07896 6.48956 8.56348C6.49918 8.46997 6.48906 8.37489 6.49211 8.28089C6.49634 8.07511 6.58011 7.87885 6.72579 7.73349C6.78501 7.67445 6.85249 7.62564 6.92557 7.58821C7.03254 7.53351 7.15139 7.50315 7.27367 7.5009C7.676 7.49333 8.07832 7.49638 8.48065 7.5009C8.72404 7.50335 8.8975 7.67033 8.90301 7.89163C8.90909 8.12196 8.73554 8.29444 8.48065 8.29896C8.39136 8.29995 8.30207 8.30043 8.21279 8.30053C8.08844 8.30073 7.96419 8.30023 7.83984 8.29975L7.68012 8.29925L7.51952 8.29896Z" fill="url(#paint1_linear_1_6197)"/>
<path d="M3.28333 17.1686V18.7543H9.29757V17.1686H3.28333Z" fill="url(#paint2_linear_1_6197)"/>
<path d="M10.119 18.7548V17.1656H12.108V18.7548H10.119Z" fill="url(#paint3_linear_1_6197)"/>
<defs>
<linearGradient id="paint0_linear_1_6197" x1="10.5104" y1="8.30511" x2="10.2741" y2="9.88158" gradientUnits="userSpaceOnUse">
<stop offset="0.495281" stop-color="white"/>
<stop offset="1" stop-color="#A4A4A4"/>
</linearGradient>
<linearGradient id="paint1_linear_1_6197" x1="7.5287" y1="1.13101" x2="5.85682" y2="18.6906" gradientUnits="userSpaceOnUse">
<stop offset="0.495281" stop-color="white"/>
<stop offset="1" stop-color="#A4A4A4"/>
</linearGradient>
<linearGradient id="paint2_linear_1_6197" x1="6.21359" y1="17.1756" x2="6.18285" y2="18.7608" gradientUnits="userSpaceOnUse">
<stop offset="0.495281" stop-color="white"/>
<stop offset="1" stop-color="#A4A4A4"/>
</linearGradient>
<linearGradient id="paint3_linear_1_6197" x1="11.0881" y1="17.1727" x2="10.995" y2="18.7565" gradientUnits="userSpaceOnUse">
<stop offset="0.495281" stop-color="white"/>
<stop offset="1" stop-color="#A4A4A4"/>
</linearGradient>
</defs>
</svg>
