<svg width="20" height="20" viewBox="0 0 20 20" fill="none" xmlns="http://www.w3.org/2000/svg">
<mask id="mask0_1_6132" style="mask-type:luminance" maskUnits="userSpaceOnUse" x="0" y="0" width="20" height="20">
<path d="M19.0557 0.599426H0V19.6551H19.0557V0.599426Z" fill="white"/>
</mask>
<g mask="url(#mask0_1_6132)">
<path d="M0 3.68187C0.0818799 3.51166 0.214871 3.44864 0.404435 3.45112C0.986527 3.45956 1.56862 3.45112 2.15021 3.45459C2.42513 3.45459 2.53083 3.56129 2.53232 3.8372C2.53232 4.22625 2.53232 4.61481 2.53232 5.02272C2.63157 5.02719 2.71494 5.03463 2.7988 5.03463C7.52236 5.03463 12.2461 5.03463 16.97 5.03463C17.7357 5.03463 18.3416 5.31253 18.7505 5.97253C18.9229 6.24681 19.0146 6.56412 19.015 6.88809C19.0185 8.82592 19.0259 10.7638 19.015 12.7011C19.008 13.6792 18.221 14.4831 17.2454 14.5347C16.8946 14.5531 16.5422 14.5377 16.1745 14.5377C16.1705 14.629 16.1651 14.6945 16.1651 14.76C16.1651 15.2925 16.1651 15.8249 16.1651 16.3574C16.1651 16.6591 16.0658 16.7623 15.7681 16.7628C14.9741 16.7628 14.1818 16.7628 13.3911 16.7628C13.1057 16.7628 13.0015 16.6561 13.0005 16.3693C13.0005 15.8367 13.0005 15.3044 13.0005 14.7724V14.5585H11.7317V14.7694C11.7317 15.3079 11.7317 15.8463 11.7317 16.3852C11.7317 16.6472 11.6155 16.7623 11.358 16.7623C9.06733 16.7623 6.77684 16.7623 4.48652 16.7623C4.2384 16.7623 4.12526 16.6467 4.12427 16.3966C4.12427 15.7902 4.12427 15.1838 4.12427 14.5605H2.53629V16.0343C2.53629 16.1703 2.53977 16.3068 2.53629 16.4428C2.52786 16.6383 2.4028 16.7613 2.22217 16.7603C2.04154 16.7594 1.91301 16.6333 1.90805 16.4378C1.90011 16.0974 1.90805 15.7569 1.90507 15.4165V15.1808C1.60733 15.1808 1.32894 15.1808 1.05154 15.1808C0.744859 15.1783 0.639656 15.0716 0.63916 14.7655C0.63916 13.9854 0.63916 13.2053 0.63916 12.4252C0.63916 12.1185 0.74734 12.0093 1.05104 12.0078C1.32794 12.0078 1.60534 12.0078 1.89465 12.0078V11.3736H1.10166C0.785055 11.3736 0.631218 11.2679 0.634196 11.0541C0.637173 10.8402 0.792995 10.7409 1.11059 10.7409H1.8346C1.85142 10.7387 1.86802 10.735 1.88423 10.73V10.1082C1.60336 10.1082 1.3205 10.1082 1.04062 10.1082C0.746346 10.1082 0.635685 9.99854 0.635189 9.70526C0.635189 8.91921 0.635189 8.133 0.635189 7.34662C0.635189 7.04888 0.740393 6.94417 1.03566 6.94218C1.31355 6.94218 1.59145 6.94218 1.88522 6.94218V6.30551C1.63313 6.30551 1.38154 6.30551 1.12994 6.30551C1.04975 6.30828 0.969487 6.30329 0.890258 6.29062C0.816292 6.27762 0.749646 6.23798 0.702922 6.17919C0.656199 6.1204 0.632632 6.04652 0.636676 5.97153C0.638091 5.89611 0.668082 5.82404 0.720587 5.76988C0.773091 5.71572 0.844195 5.6835 0.919535 5.67974C1.16021 5.66684 1.40238 5.6728 1.64355 5.67131C1.72295 5.67131 1.80185 5.67131 1.89167 5.67131V4.0873H1.51155C1.15277 4.0873 0.793491 4.08036 0.434708 4.09028C0.24167 4.09624 0.0987515 4.0347 0.0024806 3.86747L0 3.68187ZM6.65659 6.30551C4.76144 6.28566 3.19431 7.84981 3.16751 9.78863C3.14121 11.6674 4.71976 13.2514 6.63773 13.2718C8.53784 13.2916 10.1184 11.7374 10.1412 9.82684C10.1635 7.89695 8.61128 6.32784 6.65659 6.30551ZM14.2585 6.30551C12.3584 6.2931 10.7848 7.86668 10.7754 9.79409C10.764 11.6937 12.3381 13.2604 14.2694 13.2718C16.1715 13.2832 17.7431 11.7106 17.7521 9.78416C17.7625 7.88554 16.1914 6.32089 14.2585 6.30799V6.30551ZM5.70777 16.1217C5.70777 15.9277 5.70777 15.7555 5.70777 15.5828C5.70777 15.3247 5.81843 15.1858 6.01842 15.1858C6.21841 15.1858 6.33949 15.3272 6.34197 15.5937C6.34197 15.7654 6.34197 15.9371 6.34197 16.1162H6.98063C6.98063 15.9009 6.97517 15.6979 6.98063 15.4949C6.97908 15.4545 6.98578 15.4142 7.00032 15.3764C7.01487 15.3387 7.03696 15.3043 7.06524 15.2754C7.09352 15.2464 7.12741 15.2236 7.16482 15.2082C7.20223 15.1928 7.24239 15.1851 7.28285 15.1858C7.47539 15.1808 7.60391 15.3128 7.60987 15.5331C7.61533 15.7282 7.60987 15.9237 7.60987 16.1197H8.22124C8.23116 16.0999 8.24059 16.0889 8.24059 16.0785C8.24059 15.9053 8.24059 15.7311 8.24555 15.5585C8.24853 15.3227 8.36664 15.1843 8.56216 15.1853C8.75768 15.1863 8.87528 15.3247 8.87776 15.5619C8.87776 15.746 8.87776 15.9296 8.87776 16.1167H9.51147C9.51147 15.9182 9.51147 15.7351 9.51147 15.5505C9.51444 15.3257 9.63007 15.1902 9.81914 15.1858C10.0176 15.1808 10.1407 15.3173 10.1432 15.5515C10.1432 15.7411 10.1432 15.9301 10.1432 16.1142H11.086V14.5555H4.7664V16.1217H5.70777ZM15.5224 14.5585H13.6452V16.1192H14.264C14.264 15.9207 14.264 15.7306 14.264 15.5406C14.267 15.3203 14.3895 15.1843 14.5796 15.1843C14.7696 15.1843 14.8917 15.3183 14.8952 15.5396C14.8982 15.7297 14.8952 15.9197 14.8952 16.1172H15.521L15.5224 14.5585ZM1.2803 7.58382V9.46458H1.88721V7.58382H1.2803ZM1.8877 14.5377V12.6574H1.2808V14.5402L1.8877 14.5377Z" fill="url(#paint0_linear_1_6132)"/>
<path d="M7.8822 9.41776C7.76559 9.24854 7.73879 9.10661 7.83854 8.90861C8.0817 8.42676 8.04398 7.91613 7.89908 7.40897C7.88369 7.35587 7.86484 7.30377 7.84945 7.25067C7.84945 7.24571 7.84945 7.23975 7.85789 7.20898C8.23878 7.38197 8.57492 7.64002 8.84045 7.96327C8.85783 7.98811 8.86687 8.01782 8.86625 8.04813C8.87767 8.53941 8.37051 9.24804 7.8822 9.41776Z" fill="url(#paint1_linear_1_6132)"/>
<path d="M9.31941 8.79102C9.47088 9.17652 9.53298 9.59136 9.50103 10.0043C9.49626 10.0465 9.47654 10.0856 9.44545 10.1145C9.07972 10.4306 8.3041 10.6718 7.78503 10.3884C7.83465 10.2147 7.88427 10.0773 8.10609 10.0078C8.61474 9.84652 8.94971 9.46193 9.20626 9.01035C9.23951 8.95129 9.26829 8.89026 9.31941 8.79102Z" fill="url(#paint2_linear_1_6132)"/>
<path d="M3.98447 10.7728C3.84053 10.4006 3.78285 10.0005 3.81575 9.60267C3.81843 9.54883 3.84128 9.49798 3.87977 9.46024C4.35368 9.11585 4.86778 8.964 5.44739 9.15059C5.47508 9.16182 5.50167 9.17561 5.52679 9.19178C5.48908 9.39673 5.39628 9.51483 5.1824 9.58877C4.68616 9.75551 4.35566 10.1347 4.10456 10.5813C4.07429 10.6349 4.047 10.6905 4.01772 10.7446C4.01524 10.7485 4.00879 10.7515 3.98447 10.7728Z" fill="url(#paint3_linear_1_6132)"/>
<path d="M6.28598 8.57078C6.11825 8.67003 5.9798 8.71519 5.77733 8.61098C5.28506 8.3569 4.76351 8.3971 4.24742 8.56135C4.19779 8.57773 4.14817 8.59758 4.05884 8.63033C4.23168 8.23546 4.49479 7.88667 4.82703 7.61204C4.86269 7.58897 4.90592 7.58061 4.94761 7.58872C5.50688 7.69293 5.96987 7.94303 6.24777 8.46507C6.26313 8.4993 6.27591 8.53464 6.28598 8.57078Z" fill="url(#paint4_linear_1_6132)"/>
<path d="M7.64797 12.4559C7.26312 12.609 6.84775 12.6699 6.43515 12.6336C6.39338 12.6295 6.35488 12.6092 6.32797 12.577C5.98655 12.1026 5.83172 11.589 6.01087 11.0094C6.02377 10.9779 6.03886 10.9474 6.05602 10.9181C6.23864 10.9712 6.37213 11.0277 6.44111 11.2461C6.59345 11.725 6.94777 12.0535 7.37454 12.3046C7.45443 12.3507 7.53532 12.3934 7.64797 12.4559Z" fill="url(#paint5_linear_1_6132)"/>
<path d="M7.03125 11.0142C7.21536 10.8901 7.3682 10.8911 7.56719 10.9888C8.03912 11.2201 8.53734 11.1873 9.0311 11.0355C9.09016 11.0171 9.14822 10.9963 9.20678 10.9769C9.21124 10.9769 9.21819 10.9769 9.24449 10.9839C9.07258 11.3657 8.81538 11.703 8.49268 11.9699C8.46343 11.9898 8.42879 12.0002 8.39343 11.9997C7.88677 12.0007 7.20047 11.5039 7.03125 11.0142Z" fill="url(#paint6_linear_1_6132)"/>
<path d="M5.66223 7.12596C6.03775 6.97959 6.4415 6.92005 6.84328 6.95178C6.89668 6.95381 6.94727 6.97618 6.98471 7.0143C7.32613 7.48176 7.47252 7.99289 7.30578 8.56605C7.29216 8.59925 7.27556 8.63114 7.25616 8.66133C7.05766 8.62361 6.9341 8.54521 6.86462 8.33232C6.69888 7.82566 6.31876 7.49169 5.86271 7.24059L5.66223 7.12596Z" fill="url(#paint7_linear_1_6132)"/>
<path d="M5.43506 10.168C5.55813 10.3481 5.55962 10.5014 5.46335 10.6994C5.23706 11.1659 5.26932 11.6592 5.40827 12.148C5.42613 12.2125 5.44598 12.2765 5.47526 12.3762C5.19754 12.2586 4.94322 12.0921 4.72445 11.8845C4.40884 11.5937 4.39643 11.5371 4.5453 11.1317C4.72048 10.6553 5.06388 10.2821 5.43506 10.168Z" fill="url(#paint8_linear_1_6132)"/>
<path d="M7.28664 9.79806C7.28666 9.88161 7.26999 9.96433 7.2376 10.0414C7.20521 10.1184 7.15776 10.1882 7.09804 10.2466C7.03831 10.3051 6.96751 10.351 6.8898 10.3817C6.81209 10.4124 6.72903 10.4272 6.64549 10.4254C6.52017 10.4239 6.3981 10.3853 6.29472 10.3144C6.19134 10.2436 6.1113 10.1436 6.0647 10.0273C6.01811 9.9109 6.00706 9.78335 6.03296 9.66072C6.05885 9.5381 6.12052 9.4259 6.21018 9.33833C6.29984 9.25075 6.41345 9.19173 6.53665 9.16872C6.65985 9.14572 6.78711 9.15976 6.90233 9.20907C7.01755 9.25838 7.11556 9.34076 7.18397 9.44578C7.25237 9.55079 7.2881 9.67274 7.28664 9.79806Z" fill="url(#paint9_linear_1_6132)"/>
<path d="M13.129 9.19369C13.1007 9.42692 12.9657 9.52121 12.7593 9.59614C12.2725 9.7733 11.9489 10.1465 11.7038 10.5916C11.6715 10.6496 11.6412 10.7097 11.5991 10.7901C11.4476 10.4094 11.3858 9.99905 11.4184 9.59068C11.4251 9.54272 11.447 9.49817 11.481 9.46364C11.8502 9.09345 12.6724 8.96095 13.129 9.19369Z" fill="url(#paint10_linear_1_6132)"/>
<path d="M16.9247 8.78918C17.0764 9.17256 17.1382 9.58557 17.1054 9.99654C17.1028 10.0391 17.0853 10.0794 17.0557 10.1102C16.6846 10.4322 15.8955 10.6744 15.3943 10.3876C15.4246 10.1742 15.5402 10.066 15.7526 9.99059C16.2489 9.8164 16.5744 9.43679 16.823 8.9867C16.8538 8.93807 16.8786 8.88049 16.9247 8.78918Z" fill="url(#paint11_linear_1_6132)"/>
<path d="M15.4913 9.41445C15.3513 9.23133 15.3647 9.0775 15.458 8.88247C15.6843 8.40956 15.6486 7.91232 15.5076 7.41856C15.4908 7.35951 15.4734 7.30095 15.458 7.2419C15.458 7.23793 15.464 7.23148 15.4739 7.2146C15.8432 7.3828 16.1698 7.63195 16.4297 7.94358C16.4542 7.97767 16.467 8.01873 16.4664 8.0607C16.4664 8.5361 16.0059 9.21446 15.5627 9.40055C15.5393 9.40685 15.5154 9.41149 15.4913 9.41445Z" fill="url(#paint12_linear_1_6132)"/>
<path d="M13.0429 10.1661C13.1372 10.3304 13.1868 10.4663 13.0836 10.6688C12.8385 11.1482 12.8737 11.6613 13.0186 12.1665C13.037 12.2295 13.0558 12.292 13.0821 12.3813C12.7006 12.2119 12.3629 11.9572 12.0951 11.637C12.0693 11.6037 12.0572 11.5618 12.0614 11.5199C12.1547 10.9338 12.4211 10.4634 12.968 10.184C12.9922 10.1753 13.0174 10.1693 13.0429 10.1661Z" fill="url(#paint13_linear_1_6132)"/>
<path d="M13.2654 7.12716C13.6402 6.98117 14.0429 6.92097 14.444 6.95099C14.4976 6.95336 14.5489 6.97343 14.5899 7.00806C14.9373 7.35196 15.0861 8.16579 14.8936 8.6134C14.8836 8.63098 14.8719 8.64759 14.8589 8.66303C14.6762 8.61588 14.5447 8.55485 14.4748 8.336C14.3145 7.8353 13.9383 7.50232 13.4892 7.24874C13.4257 7.21251 13.3612 7.17926 13.2654 7.12716Z" fill="url(#paint14_linear_1_6132)"/>
<path d="M13.652 10.9218C13.8728 10.9615 13.985 11.0533 14.0544 11.2612C14.2117 11.7316 14.5611 12.0552 14.9819 12.3033C15.0744 12.3511 15.1583 12.414 15.23 12.4894C14.9963 12.539 14.7626 12.5862 14.5278 12.6323C14.4851 12.6377 14.4419 12.6399 14.3988 12.6388C13.9418 12.6537 13.8927 12.6264 13.7085 12.2006C13.5309 11.7857 13.4728 11.3624 13.652 10.9218Z" fill="url(#paint15_linear_1_6132)"/>
<path d="M11.6641 8.62785C11.8328 8.24552 12.0857 7.90625 12.404 7.63537C12.4456 7.60099 12.499 7.58425 12.5529 7.58872C13.1196 7.69244 13.587 7.94701 13.8624 8.48196C13.8755 8.51187 13.8868 8.54252 13.8962 8.57376C13.728 8.66408 13.59 8.71718 13.3865 8.61247C12.8943 8.35839 12.3722 8.3971 11.8556 8.56037C11.804 8.57575 11.7539 8.5956 11.6641 8.62785Z" fill="url(#paint16_linear_1_6132)"/>
<path d="M14.6423 11.0144C14.8026 10.9097 14.9435 10.871 15.145 10.9757C15.6 11.2119 16.0878 11.1935 16.5732 11.0536C16.6555 11.0298 16.7369 11.004 16.8664 10.9598C16.7816 11.1121 16.7215 11.2352 16.6476 11.3493C16.5767 11.4583 16.4984 11.5622 16.4134 11.6605C16.0754 12.052 15.9772 12.0719 15.4958 11.859C15.0542 11.6635 14.7381 11.3513 14.6423 11.0144Z" fill="url(#paint17_linear_1_6132)"/>
<path d="M14.8953 9.79523C14.894 9.91997 14.8557 10.0415 14.7854 10.1445C14.7151 10.2476 14.6159 10.3275 14.5003 10.3743C14.3847 10.4211 14.2578 10.4326 14.1356 10.4075C14.0134 10.3823 13.9014 10.3215 13.8137 10.2329C13.726 10.1442 13.6664 10.0315 13.6426 9.90909C13.6188 9.78664 13.6317 9.65989 13.6797 9.54477C13.7278 9.42965 13.8088 9.33132 13.9126 9.26215C14.0164 9.19299 14.1384 9.15608 14.2631 9.15607C14.3468 9.15587 14.4297 9.17231 14.5069 9.20445C14.5842 9.23658 14.6543 9.28376 14.7131 9.34325C14.7719 9.40273 14.8184 9.47333 14.8496 9.55093C14.8809 9.62852 14.8965 9.71157 14.8953 9.79523Z" fill="url(#paint18_linear_1_6132)"/>
</g>
<defs>
<linearGradient id="paint0_linear_1_6132" x1="9.26728" y1="3.50995" x2="8.58394" y2="16.7876" gradientUnits="userSpaceOnUse">
<stop offset="0.495281" stop-color="white"/>
<stop offset="1" stop-color="#A4A4A4"/>
</linearGradient>
<linearGradient id="paint1_linear_1_6132" x1="8.30785" y1="7.21876" x2="7.98564" y2="9.37967" gradientUnits="userSpaceOnUse">
<stop offset="0.495281" stop-color="white"/>
<stop offset="1" stop-color="#A4A4A4"/>
</linearGradient>
<linearGradient id="paint2_linear_1_6132" x1="8.62508" y1="8.79864" x2="8.49912" y2="10.5126" gradientUnits="userSpaceOnUse">
<stop offset="0.495281" stop-color="white"/>
<stop offset="1" stop-color="#A4A4A4"/>
</linearGradient>
<linearGradient id="paint3_linear_1_6132" x1="4.6448" y1="9.0776" x2="4.52149" y2="10.7714" gradientUnits="userSpaceOnUse">
<stop offset="0.495281" stop-color="white"/>
<stop offset="1" stop-color="#A4A4A4"/>
</linearGradient>
<linearGradient id="paint4_linear_1_6132" x1="5.14395" y1="7.59049" x2="5.10514" y2="8.67392" gradientUnits="userSpaceOnUse">
<stop offset="0.495281" stop-color="white"/>
<stop offset="1" stop-color="#A4A4A4"/>
</linearGradient>
<linearGradient id="paint5_linear_1_6132" x1="6.76994" y1="10.9257" x2="6.64273" y2="12.6421" gradientUnits="userSpaceOnUse">
<stop offset="0.495281" stop-color="white"/>
<stop offset="1" stop-color="#A4A4A4"/>
</linearGradient>
<linearGradient id="paint6_linear_1_6132" x1="8.10959" y1="10.9229" x2="8.07076" y2="12.0032" gradientUnits="userSpaceOnUse">
<stop offset="0.495281" stop-color="white"/>
<stop offset="1" stop-color="#A4A4A4"/>
</linearGradient>
<linearGradient id="paint7_linear_1_6132" x1="6.49662" y1="6.95108" x2="6.37058" y2="8.65977" gradientUnits="userSpaceOnUse">
<stop offset="0.495281" stop-color="white"/>
<stop offset="1" stop-color="#A4A4A4"/>
</linearGradient>
<linearGradient id="paint8_linear_1_6132" x1="4.9787" y1="10.1777" x2="4.65362" y2="12.3372" gradientUnits="userSpaceOnUse">
<stop offset="0.495281" stop-color="white"/>
<stop offset="1" stop-color="#A4A4A4"/>
</linearGradient>
<linearGradient id="paint9_linear_1_6132" x1="6.63679" y1="9.16357" x2="6.54406" y2="10.4244" gradientUnits="userSpaceOnUse">
<stop offset="0.495281" stop-color="white"/>
<stop offset="1" stop-color="#A4A4A4"/>
</linearGradient>
<linearGradient id="paint10_linear_1_6132" x1="12.2475" y1="9.08552" x2="12.1227" y2="10.7887" gradientUnits="userSpaceOnUse">
<stop offset="0.495281" stop-color="white"/>
<stop offset="1" stop-color="#A4A4A4"/>
</linearGradient>
<linearGradient id="paint11_linear_1_6132" x1="16.2321" y1="8.79682" x2="16.1054" y2="10.5136" gradientUnits="userSpaceOnUse">
<stop offset="0.495281" stop-color="white"/>
<stop offset="1" stop-color="#A4A4A4"/>
</linearGradient>
<linearGradient id="paint12_linear_1_6132" x1="15.9129" y1="7.22433" x2="15.5904" y2="9.37603" gradientUnits="userSpaceOnUse">
<stop offset="0.495281" stop-color="white"/>
<stop offset="1" stop-color="#A4A4A4"/>
</linearGradient>
<linearGradient id="paint13_linear_1_6132" x1="12.587" y1="10.1759" x2="12.2604" y2="12.3421" gradientUnits="userSpaceOnUse">
<stop offset="0.495281" stop-color="white"/>
<stop offset="1" stop-color="#A4A4A4"/>
</linearGradient>
<linearGradient id="paint14_linear_1_6132" x1="14.1001" y1="6.95109" x2="13.9738" y2="8.66146" gradientUnits="userSpaceOnUse">
<stop offset="0.495281" stop-color="white"/>
<stop offset="1" stop-color="#A4A4A4"/>
</linearGradient>
<linearGradient id="paint15_linear_1_6132" x1="14.365" y1="10.9294" x2="14.2368" y2="12.6399" gradientUnits="userSpaceOnUse">
<stop offset="0.495281" stop-color="white"/>
<stop offset="1" stop-color="#A4A4A4"/>
</linearGradient>
<linearGradient id="paint16_linear_1_6132" x1="12.7516" y1="7.5928" x2="12.7131" y2="8.67363" gradientUnits="userSpaceOnUse">
<stop offset="0.495281" stop-color="white"/>
<stop offset="1" stop-color="#A4A4A4"/>
</linearGradient>
<linearGradient id="paint17_linear_1_6132" x1="15.726" y1="10.9187" x2="15.6874" y2="11.9974" gradientUnits="userSpaceOnUse">
<stop offset="0.495281" stop-color="white"/>
<stop offset="1" stop-color="#A4A4A4"/>
</linearGradient>
<linearGradient id="paint18_linear_1_6132" x1="14.247" y1="9.16166" x2="14.1545" y2="10.4194" gradientUnits="userSpaceOnUse">
<stop offset="0.495281" stop-color="white"/>
<stop offset="1" stop-color="#A4A4A4"/>
</linearGradient>
</defs>
</svg>
