<svg width="20" height="20" viewBox="0 0 20 20" fill="none" xmlns="http://www.w3.org/2000/svg">
<g clip-path="url(#clip0_1_5294)">
<path d="M0.574766 0.570093C0.0934579 1.04673 0 1.16355 0 1.28037C0 1.3972 0.126168 1.54673 0.817757 2.24299L1.63551 3.06542V3.93458V4.80374L1.14019 4.82243C0.686916 4.83645 0.640187 4.84579 0.556075 4.9486C0.434579 5.09813 0.443925 5.26168 0.584112 5.3972C0.686916 5.50467 0.728972 5.51402 1.16822 5.51402H1.64019L1.62617 5.96729L1.61215 6.42523L1.10748 6.4486C0.672897 6.46729 0.588785 6.48598 0.53271 6.56075C0.439252 6.69159 0.453271 6.83645 0.565421 6.98131C0.658879 7.09813 0.67757 7.1028 1.14953 7.1028H1.63551V7.57009V8.03738H1.14953C0.67757 8.03738 0.658879 8.04206 0.565421 8.15888C0.397196 8.37383 0.457944 8.59813 0.705607 8.68692C0.78972 8.71495 1.03271 8.73832 1.24299 8.73832H1.63551V9.18224V9.62617H1.16822C0.728972 9.62617 0.686916 9.63551 0.584112 9.74299C0.434579 9.88785 0.434579 10.0654 0.584112 10.2103C0.686916 10.3178 0.728972 10.3271 1.16822 10.3271H1.64019L1.62617 10.7804L1.61215 11.2383L1.10748 11.2617C0.672897 11.2804 0.588785 11.2991 0.53271 11.3738C0.439252 11.5047 0.453271 11.6495 0.565421 11.7944C0.658879 11.9112 0.67757 11.9159 1.14953 11.9159H1.63551V12.3832V12.8505H1.14953C0.67757 12.8505 0.658879 12.8551 0.565421 12.972C0.453271 13.1168 0.439252 13.2617 0.53271 13.3925C0.588785 13.4673 0.672897 13.486 1.10748 13.5047L1.61215 13.528L1.62617 13.9813L1.64019 14.4393H1.16822C0.728972 14.4393 0.686916 14.4486 0.584112 14.5561C0.434579 14.7009 0.434579 14.8785 0.584112 15.0234C0.686916 15.1308 0.728972 15.1402 1.16822 15.1402H1.63551V16.0374V16.9346L0.817757 17.757C0.135514 18.4439 0 18.6028 0 18.715C0 18.8271 0.102804 18.9533 0.574766 19.4252C1.04673 19.8972 1.1729 20 1.28505 20C1.3972 20 1.55607 19.8645 2.24299 19.1822L3.06542 18.3645H3.96262H4.85981V18.8551C4.85981 19.285 4.87383 19.3598 4.95327 19.4393C5.07477 19.5607 5.28037 19.5607 5.41121 19.4393C5.50467 19.3505 5.51402 19.2944 5.51402 18.8551V18.3645H5.98131H6.4486V18.8458C6.4486 19.2897 6.45794 19.3364 6.55607 19.4299C6.69159 19.5561 6.86916 19.5607 7.01402 19.4439C7.11215 19.3645 7.12617 19.3131 7.14019 18.8598L7.15888 18.3645H7.59813H8.03738V18.8318C8.03738 19.271 8.04673 19.3131 8.15421 19.4159C8.29907 19.5654 8.47663 19.5654 8.6215 19.4159C8.72897 19.3131 8.73832 19.271 8.73832 18.8318V18.3645H9.18224H9.62617V18.757C9.62617 19.1869 9.68692 19.4159 9.81308 19.486C9.95794 19.5654 10.1168 19.5374 10.2243 19.4252C10.3178 19.3271 10.3271 19.2664 10.3271 18.8411V18.3645H10.7944H11.2617V18.8458C11.2617 19.2897 11.271 19.3364 11.3692 19.4299C11.4953 19.5467 11.6682 19.5607 11.8037 19.4673C11.8785 19.4112 11.8972 19.3271 11.9159 18.8925L11.9393 18.3879L12.3972 18.3738L12.8505 18.3598V18.8318C12.8505 19.271 12.8598 19.3131 12.9673 19.4159C13.1121 19.5654 13.2897 19.5654 13.4346 19.4159C13.5421 19.3131 13.5514 19.271 13.5514 18.8318V18.3645H13.9907H14.4299L14.4486 18.8598C14.4626 19.3131 14.4766 19.3645 14.5748 19.4439C14.7243 19.5654 14.9159 19.5561 15.0374 19.4252C15.1308 19.3271 15.1402 19.2664 15.1402 18.8411V18.3645H16.0374H16.9346L17.757 19.1822C18.4439 19.8645 18.6028 20 18.715 20C18.8271 20 18.9533 19.8972 19.4252 19.4252C19.8972 18.9533 20 18.8271 20 18.715C20 18.6028 19.8645 18.4439 19.1822 17.757L18.3645 16.9346V16.0374V15.1402H18.7804C19.2804 15.1402 19.4065 15.0981 19.4813 14.9159C19.528 14.7991 19.528 14.7523 19.4673 14.6355C19.3785 14.4673 19.2897 14.4393 18.7757 14.4393H18.3645V13.972V13.5047H18.8505C19.3271 13.5047 19.3411 13.5 19.4393 13.3785C19.5561 13.229 19.5327 13.0561 19.3832 12.9299C19.3084 12.8645 19.2009 12.8505 18.8271 12.8505H18.3645V12.3832V11.9159H18.8271C19.2009 11.9159 19.3084 11.9019 19.3832 11.8318C19.5327 11.7103 19.5561 11.5374 19.4393 11.3879C19.3411 11.2664 19.3271 11.2617 18.8505 11.2617H18.3645V10.7944V10.3271H18.8131C19.0561 10.3271 19.2991 10.3037 19.3505 10.2757C19.5748 10.1589 19.5561 9.78505 19.3178 9.67757C19.2523 9.64953 19.014 9.62617 18.785 9.62617H18.3645V9.18692V8.74766L18.8364 8.72897C19.2897 8.71495 19.3131 8.71028 19.4252 8.57944C19.5561 8.42523 19.5421 8.25234 19.3832 8.11682C19.3084 8.0514 19.2009 8.03738 18.8271 8.03738H18.3645V7.57009V7.1028H18.8271C19.2009 7.1028 19.3084 7.08879 19.3832 7.01869C19.5327 6.8972 19.5561 6.7243 19.4393 6.57477C19.3411 6.45327 19.3271 6.4486 18.8505 6.4486H18.3645V5.98131V5.51402H18.8131C19.0561 5.51402 19.2991 5.49065 19.3505 5.46262C19.5748 5.34579 19.5561 4.97196 19.3178 4.86449C19.2523 4.83645 19.014 4.81308 18.785 4.81308H18.3645V3.93925V3.06075L19.1589 2.26636C19.771 1.65421 19.9579 1.43458 19.9813 1.31776C20.014 1.16822 19.9907 1.14019 19.4299 0.579439C18.9579 0.107477 18.8271 0 18.715 0C18.6028 0 18.4439 0.135515 17.757 0.817759L16.9346 1.63552H16.0374H15.1402V1.15421C15.1402 0.733646 15.1262 0.658878 15.0467 0.570093C14.9252 0.443926 14.7196 0.439253 14.5748 0.556076C14.472 0.640188 14.4626 0.686916 14.4486 1.14019L14.4299 1.63552H13.9907H13.5514V1.1729C13.5514 0.780375 13.5374 0.696262 13.4533 0.588785C13.3224 0.420561 13.0794 0.420561 12.9486 0.588785C12.8645 0.696262 12.8505 0.780375 12.8505 1.17757V1.64019L12.3972 1.62617L11.9393 1.61215L11.9252 1.1215C11.9159 0.686916 11.9019 0.621496 11.8178 0.54673C11.6869 0.439253 11.472 0.443926 11.3551 0.560749C11.2757 0.640188 11.2617 0.714954 11.2617 1.14486V1.63552H10.7944H10.3271V1.14486C10.3271 0.714954 10.3131 0.640188 10.2336 0.560749C10.1168 0.443926 9.90187 0.439253 9.76168 0.556076C9.66355 0.635515 9.64953 0.686916 9.63551 1.14019L9.61682 1.63552H9.17757H8.73832V1.1729C8.73832 0.780375 8.7243 0.696262 8.64019 0.588785C8.57009 0.5 8.5 0.467291 8.38785 0.467291C8.2757 0.467291 8.20561 0.5 8.13551 0.588785C8.0514 0.696262 8.03738 0.780375 8.03738 1.1729V1.63552H7.59813H7.15888L7.14019 1.14019C7.12617 0.686916 7.11215 0.635515 7.01402 0.556076C6.87383 0.439253 6.65888 0.443926 6.54206 0.560749C6.46262 0.640188 6.4486 0.714954 6.4486 1.14486V1.63552H5.98131H5.51402V1.14486C5.51402 0.714954 5.5 0.640188 5.42056 0.560749C5.30374 0.443926 5.08878 0.439253 4.95794 0.54673C4.87383 0.621496 4.85981 0.686916 4.85047 1.1215L4.83645 1.61215L3.95327 1.62617L3.06542 1.63552L2.24299 0.817759C1.56075 0.144861 1.3972 0 1.28505 0C1.17757 0 1.04206 0.107477 0.574766 0.570093ZM4.25234 3.85514C4.25234 3.87851 4.16355 3.99065 4.05607 4.09813L3.85514 4.29907L2.35047 2.79439L0.841121 1.28505L1.06075 1.06542L1.28505 0.841122L2.76636 2.32243C3.58411 3.14019 4.25234 3.8271 4.25234 3.85514ZM17.6542 2.78972L16.1449 4.29907L15.9252 4.07944L15.7009 3.85514L17.2056 2.35047L18.715 0.841122L18.9346 1.06075L19.1589 1.28505L17.6542 2.78972ZM15.7243 2.85047L15.215 3.36449L15.0093 3.16355L14.8084 2.96729H10H5.19159L4.99065 3.16355L4.78505 3.36449L4.2757 2.85047L3.76168 2.33645H10H16.2383L15.7243 2.85047ZM15.4299 4.56542L16.3551 5.49065V10V14.5093L15.4346 15.4299L14.5093 16.3551H10H5.49065L4.57009 15.4346L3.64486 14.5093V9.97664V5.44393L4.54206 4.54673L5.44392 3.64486H9.97663H14.5093L15.4299 4.56542ZM3.31776 4.78505C3.31776 4.80841 3.23364 4.91589 3.13084 5.02804L2.94393 5.23365V10V14.7664L3.13084 14.972C3.23364 15.0841 3.31776 15.1916 3.31776 15.215C3.31776 15.2383 3.09813 15.4766 2.8271 15.7477L2.33645 16.2383V10V3.76168L2.8271 4.25234C3.09813 4.52337 3.31776 4.76168 3.31776 4.78505ZM17.6636 10.0093V16.2383L17.1495 15.7243L16.6402 15.215L16.8224 15.014L17.0093 14.8131V9.98598V5.15888L16.8224 4.97664L16.6355 4.79439L17.1355 4.28972C17.4112 4.01402 17.6449 3.78505 17.6495 3.78505C17.6589 3.78505 17.6636 6.58879 17.6636 10.0093ZM2.79439 17.6495L1.28505 19.1589L1.06542 18.9393L0.841121 18.715L2.34579 17.2103L3.85514 15.7009L4.07477 15.9206L4.29907 16.1449L2.79439 17.6495ZM18.9393 18.9346L18.715 19.1589L17.2103 17.6542L15.7009 16.1449L15.9206 15.9252L16.1449 15.7009L17.6495 17.2056L19.1589 18.715L18.9393 18.9346ZM9.99065 17.0093H14.8131L15.014 16.8224L15.215 16.6402L15.7243 17.1495L16.2383 17.6636H10H3.76168L4.2757 17.1495L4.78505 16.6355L4.97664 16.8224L5.16822 17.0093H9.99065Z" fill="white"/>
<path d="M5.58829 8.18225L5.4668 8.2757V9.97664C5.4668 11.5748 5.47147 11.6776 5.55558 11.7804C5.63969 11.8879 5.6724 11.8925 6.34997 11.9065C7.1911 11.9252 7.47147 11.8645 7.76119 11.6028C8.05558 11.3365 8.14904 11.1122 8.15371 10.7009C8.15371 10.4019 8.13502 10.3178 8.02287 10.1308C7.95278 10.0093 7.85465 9.88318 7.80325 9.8458C7.71446 9.78505 7.71446 9.7757 7.78455 9.62617C7.98549 9.2243 7.90138 8.73832 7.57427 8.41122C7.2939 8.13084 7.11166 8.08411 6.3453 8.08411C5.77521 8.08411 5.70044 8.09346 5.58829 8.18225ZM7.08829 8.88785C7.24717 9.03271 7.23782 9.30841 7.0696 9.43925C6.96212 9.52337 6.89203 9.53271 6.54624 9.52337L6.14437 9.50935L6.13035 9.14486L6.11633 8.78505H6.54624C6.92474 8.78505 6.99483 8.79907 7.08829 8.88785ZM7.34063 10.3692C7.49483 10.528 7.52287 10.757 7.40605 10.9766C7.30792 11.1729 7.13502 11.2196 6.60698 11.2056L6.14437 11.1916L6.13035 10.7103L6.11633 10.2336H6.65839C7.19577 10.2336 7.20511 10.2336 7.34063 10.3692Z" fill="white"/>
<path d="M8.5336 8.18234L8.41211 8.2758V9.99543C8.41211 11.5749 8.41678 11.7197 8.49622 11.7898C8.63641 11.9207 8.79996 11.93 8.94015 11.8225L9.06632 11.7244V9.99543C9.06632 8.33188 9.06164 8.26646 8.97286 8.17767C8.85136 8.05617 8.69248 8.06085 8.5336 8.18234Z" fill="white"/>
<path d="M10.4214 8.12618C9.85128 8.30842 9.52885 8.78973 9.43072 9.57945C9.29054 10.7337 9.67839 11.6402 10.4027 11.8505C11.0616 12.0421 11.6363 11.7196 11.9214 10.9953C12.0195 10.7523 12.0289 10.6449 12.0289 10C12.0289 9.35515 12.0195 9.24767 11.9214 9.00468C11.6971 8.42992 11.3139 8.12618 10.7999 8.09814C10.655 8.09347 10.4868 8.10281 10.4214 8.12618ZM11.0382 8.87852C11.5055 9.243 11.4915 10.8131 11.0195 11.1402C10.7485 11.3318 10.3653 11.1636 10.2111 10.7851C10.0429 10.3692 10.0709 9.49067 10.2672 9.07945C10.398 8.7944 10.7999 8.6916 11.0382 8.87852Z" fill="white"/>
<path d="M13.0679 8.14953C12.3202 8.42055 12.0212 9.18691 12.4417 9.78037C12.5959 9.99999 12.8903 10.1822 13.3015 10.3084C13.9464 10.5047 14.1333 10.7617 13.8343 11.0467C13.5539 11.3131 13.1427 11.243 12.9184 10.8878C12.7828 10.6729 12.61 10.6075 12.4324 10.7056C12.1614 10.8598 12.1987 11.1589 12.5305 11.5C12.7922 11.7663 13.0772 11.8878 13.4557 11.8832C13.8015 11.8832 14.0305 11.7991 14.2735 11.5794C14.7268 11.1822 14.7828 10.5561 14.4043 10.1355C14.2034 9.91121 13.9791 9.78971 13.5071 9.64485C13.3202 9.58878 13.1146 9.49065 13.0539 9.43457C12.7548 9.1542 13.0726 8.74766 13.5445 8.79906C13.7128 8.81775 13.7828 8.85513 13.8857 8.9813C14.1473 9.29906 14.2034 9.34579 14.3202 9.34579C14.4698 9.34579 14.6707 9.1542 14.6707 9.00467C14.6707 8.8271 14.409 8.46728 14.1707 8.31775C13.7969 8.07943 13.423 8.02336 13.0679 8.14953Z" fill="white"/>
</g>
<defs>
<clipPath id="clip0_1_5294">
<rect width="20" height="20" fill="white"/>
</clipPath>
</defs>
</svg>
