<svg width="20" height="20" viewBox="0 0 20 20" fill="none" xmlns="http://www.w3.org/2000/svg">
<g clip-path="url(#clip0_1_5273)">
<path d="M18.5258 7.21752H17.525C17.4535 7.02407 17.3748 6.83455 17.2883 6.64699L18.0011 5.94137C18.2903 5.68627 18.4713 5.31445 18.4713 4.90065C18.4713 4.54325 18.3362 4.21733 18.1139 3.97141L18.1152 3.97272L16.0311 1.88865C15.7865 1.66699 15.4605 1.5319 15.1031 1.5319C14.6887 1.5319 14.3168 1.71421 14.0624 2.00275L14.0611 2.00407L13.3521 2.71231C13.1652 2.6264 12.9764 2.54771 12.7829 2.47623L12.7881 1.47551C12.7901 1.44796 12.7914 1.41583 12.7914 1.38304C12.7914 0.643321 12.2117 0.0393468 11.4818 0H11.4785H8.53002C7.79618 0.0386911 7.21579 0.643321 7.21579 1.3837C7.21579 1.41583 7.2171 1.44796 7.21907 1.4801V1.47551V2.47492C7.02561 2.5464 6.83608 2.62509 6.64852 2.71165L5.94419 2.00079C5.68908 1.71028 5.31659 1.52731 4.90212 1.52731C4.54471 1.52731 4.21878 1.6624 3.97351 1.88471L3.97482 1.8834L1.89002 3.96813C1.66836 4.21274 1.53327 4.53866 1.53327 4.89606C1.53327 5.31117 1.71558 5.683 2.00479 5.93678L2.0061 5.93809L2.71305 6.64568C2.62649 6.83389 2.54779 7.02341 2.47565 7.21752L1.47555 7.21293C1.44801 7.21096 1.41588 7.20965 1.38374 7.20965C0.643998 7.20965 0.0393481 7.79002 0 8.5199V8.52318V11.4709C0.0386923 12.2047 0.643998 12.7858 1.3844 12.7858C1.41653 12.7858 1.44867 12.7844 1.48015 12.7825H1.47555H2.47565C2.54714 12.9759 2.62583 13.1655 2.7124 13.353L2.00151 14.0553C1.71099 14.3111 1.52868 14.6836 1.52868 15.0994C1.52868 15.4568 1.66377 15.7833 1.88609 16.0292L1.88478 16.0279L3.96957 18.112C4.19189 18.333 4.49815 18.4694 4.83654 18.4694C4.84113 18.4694 4.84572 18.4694 4.85031 18.4694H4.84966C5.2779 18.4609 5.66285 18.2812 5.9396 17.9959L5.94026 17.9953L6.64787 17.2877C6.83608 17.3743 7.02626 17.4529 7.22038 17.5251L7.21579 18.5245C7.21382 18.552 7.21251 18.5842 7.21251 18.6163C7.21251 19.356 7.7929 19.9607 8.52281 20H8.52608H11.4746C12.2078 19.9607 12.7881 19.3567 12.7881 18.617C12.7881 18.5842 12.7868 18.552 12.7849 18.5206V18.5252V17.5244C12.979 17.4523 13.1685 17.3736 13.3567 17.287L14.0578 17.9946C14.3352 18.2799 14.7195 18.4596 15.1464 18.4688H15.1477H15.149C15.153 18.4688 15.1582 18.4688 15.1628 18.4688C15.5005 18.4688 15.8068 18.333 16.0304 18.114L18.1139 16.0306C18.3336 15.8083 18.4687 15.5027 18.4687 15.1649C18.4687 15.159 18.4687 15.1531 18.4687 15.1466C18.4602 14.7197 18.2818 14.3367 17.9978 14.0599L17.2889 13.351C17.3748 13.1641 17.4535 12.9753 17.525 12.7818L18.5251 12.7864C18.5526 12.7884 18.5841 12.7897 18.6163 12.7897C19.3567 12.7897 19.9613 12.2093 20 11.4788V11.4755V8.52777C19.9607 7.79395 19.3567 7.21359 18.6163 7.21359C18.5841 7.21359 18.552 7.2149 18.5199 7.21687H18.5244L18.5258 7.21752ZM18.3618 11.1476L16.944 11.1404C16.9269 11.1404 16.9125 11.1489 16.8954 11.1502C16.8344 11.1561 16.778 11.1673 16.7243 11.185L16.7295 11.1837C16.5262 11.2283 16.359 11.3562 16.2632 11.5293L16.2613 11.5326C16.2298 11.5791 16.2016 11.6322 16.18 11.6886L16.178 11.6939C16.1727 11.7096 16.1603 11.7208 16.1557 11.7372C16.0049 12.2644 15.8101 12.7228 15.5668 13.1504L15.5832 13.1189C15.574 13.1353 15.5746 13.1543 15.5661 13.1714C15.5471 13.2127 15.5314 13.2619 15.5196 13.3123L15.5189 13.3176C15.5038 13.3648 15.4927 13.4199 15.4874 13.4763V13.4796C15.4861 13.4973 15.4848 13.5176 15.4848 13.5379C15.4848 13.675 15.5248 13.8029 15.5937 13.9104L15.5917 13.9078C15.6212 13.9655 15.6547 14.0147 15.6927 14.0599L15.692 14.0586C15.7032 14.0711 15.7065 14.0868 15.7183 14.0986L16.721 15.1026L15.1018 16.7204L14.1076 15.7178C14.0945 15.704 14.0761 15.7 14.0624 15.6876C14.023 15.6548 13.9784 15.6246 13.9312 15.5991L13.9273 15.5971C13.7994 15.5256 13.6459 15.4836 13.4833 15.4836C13.482 15.4836 13.4807 15.4836 13.4794 15.4836C13.4295 15.4889 13.3843 15.4981 13.341 15.5099L13.3469 15.5086C13.28 15.5217 13.221 15.5413 13.1659 15.5669L13.1705 15.565C13.156 15.5722 13.1397 15.5715 13.1252 15.5794C12.7278 15.8063 12.2681 16.0017 11.7854 16.1427L11.7395 16.1538C11.7218 16.1591 11.71 16.1716 11.693 16.1781C11.6379 16.1998 11.59 16.2247 11.5461 16.2542L11.5487 16.2522C11.4995 16.2791 11.4575 16.308 11.4182 16.3407L11.4195 16.3394C11.3847 16.3735 11.3526 16.4116 11.3244 16.4516L11.3224 16.4542C11.2549 16.5283 11.207 16.6208 11.1873 16.7237L11.1867 16.727C11.1709 16.7755 11.1585 16.8319 11.1532 16.8903V16.8936C11.1519 16.9106 11.1434 16.925 11.1434 16.9428L11.1427 18.3605H8.85333L8.86054 16.9467C8.86054 16.9283 8.85136 16.9126 8.85005 16.8949C8.8448 16.8345 8.833 16.7788 8.81595 16.7257L8.81726 16.7309C8.77267 16.5257 8.64347 16.3571 8.46903 16.2607L8.4651 16.2588C8.41919 16.2279 8.36672 16.2004 8.31098 16.1788L8.30574 16.1768C8.29 16.1716 8.27819 16.1591 8.2618 16.1545C7.73322 16.0037 7.2735 15.8082 6.84461 15.5643L6.87609 15.5807C6.861 15.5722 6.8433 15.5728 6.82821 15.5656C6.781 15.544 6.72591 15.5256 6.6682 15.5138L6.66295 15.5131C6.60262 15.4941 6.5331 15.4836 6.46096 15.4836C6.31603 15.4836 6.18159 15.5269 6.06945 15.6017L6.07207 15.6004C6.02223 15.6266 5.9796 15.6555 5.94026 15.6882L5.94157 15.6869C5.9278 15.6994 5.91009 15.7033 5.89697 15.7164L4.89425 16.7191L3.27442 15.1L4.27911 14.1058C4.29223 14.0927 4.29682 14.075 4.30862 14.0619C4.34338 14.0206 4.37486 13.974 4.40174 13.9248L4.40371 13.9209C4.42798 13.8829 4.45027 13.8396 4.46864 13.7937L4.4706 13.7884C4.49552 13.6966 4.51126 13.5911 4.51389 13.4822V13.4802C4.50864 13.4258 4.4988 13.3766 4.48503 13.3287L4.48634 13.3346C4.47323 13.273 4.45552 13.2186 4.43191 13.1674L4.43388 13.172C4.42601 13.1556 4.42667 13.1379 4.41748 13.1222C4.18992 12.7254 3.99449 12.2664 3.85481 11.7837L3.84366 11.7391C3.83907 11.7221 3.82595 11.7096 3.82005 11.6932C3.79775 11.6368 3.77283 11.5883 3.74266 11.5437L3.74463 11.547C3.7184 11.4985 3.68954 11.4565 3.65741 11.4178L3.65872 11.4191C3.62462 11.3844 3.58724 11.3529 3.54789 11.3247L3.54527 11.3227C3.50592 11.2893 3.46132 11.2591 3.41411 11.2335L3.41017 11.2316C3.37279 11.2145 3.32754 11.1994 3.28163 11.1883L3.27639 11.187C3.22589 11.1699 3.16687 11.1575 3.10654 11.1522H3.10326C3.08621 11.1509 3.07243 11.1424 3.05538 11.1424L1.63754 11.1417V8.85173L3.05538 8.85894C3.16031 8.85763 3.25934 8.83599 3.35049 8.79861L3.34525 8.80058C3.38066 8.78484 3.41017 8.7691 3.43837 8.75139L3.43509 8.75336C3.49411 8.72254 3.54527 8.68778 3.59183 8.64844L3.59052 8.64909C3.61872 8.62352 3.64429 8.59729 3.6679 8.56909L3.66921 8.56777C3.70594 8.52515 3.73873 8.47728 3.76562 8.42678L3.76758 8.42219C3.78529 8.39137 3.803 8.3553 3.81743 8.31792L3.81939 8.31268C3.82595 8.29431 3.83841 8.27989 3.84366 8.26153C3.99449 7.73362 4.18926 7.27392 4.43322 6.8457L4.41683 6.87717C4.42601 6.86143 4.42535 6.84307 4.43322 6.82733C4.45355 6.7834 4.4706 6.73093 4.48241 6.67716L4.48306 6.67191C4.49618 6.61552 4.50405 6.55059 4.50405 6.4837C4.50405 6.27582 4.42994 6.08565 4.30731 5.93678L4.30862 5.93809C4.29747 5.92498 4.29354 5.90858 4.28108 5.89678L3.27967 4.89409L4.89884 3.27497L5.89435 4.27897C5.93042 4.30848 5.97042 4.33602 6.01239 4.35897L6.01633 4.36094C6.04387 4.38258 6.0747 4.40357 6.10683 4.42259L6.11077 4.42455C6.21569 4.48226 6.3403 4.51767 6.47211 4.52161H6.47342L6.4767 4.52226C6.48457 4.52226 6.49179 4.51636 6.499 4.51636C6.62098 4.51112 6.73443 4.47964 6.83543 4.42783L6.83084 4.4298C6.84526 4.42259 6.86166 4.42586 6.87674 4.41799C7.2735 4.19109 7.73256 3.99502 8.21523 3.85533L8.26048 3.84419C8.27688 3.8396 8.28803 3.82714 8.30377 3.82189C8.36345 3.79894 8.41525 3.77205 8.46313 3.73992L8.4605 3.74188C8.50575 3.71696 8.54445 3.69008 8.58052 3.66057L8.5792 3.66188C8.61724 3.62516 8.65134 3.58515 8.68151 3.54187L8.68348 3.53925C8.71364 3.50252 8.74184 3.46121 8.76611 3.41793L8.76808 3.41399C8.78644 3.37334 8.80283 3.32546 8.81398 3.27628L8.81529 3.27103C8.83103 3.22316 8.84284 3.16742 8.84808 3.10906V3.10578C8.84939 3.08807 8.85792 3.07364 8.85792 3.05594L8.85858 1.63814H11.148L11.1408 3.052C11.1408 3.07037 11.15 3.08545 11.1506 3.10381C11.1559 3.1648 11.1677 3.22054 11.1847 3.27431L11.1834 3.26907C11.1959 3.32415 11.2123 3.37202 11.2326 3.41793L11.2306 3.41268C11.2568 3.46055 11.2844 3.50187 11.3159 3.5399L11.3146 3.53859C11.346 3.5845 11.3808 3.6245 11.4182 3.66122C11.4529 3.69008 11.4916 3.71631 11.5323 3.73992L11.5362 3.74188C11.5808 3.77205 11.6326 3.79894 11.6871 3.81992L11.6923 3.82189C11.7087 3.82779 11.7205 3.84025 11.7375 3.84484C12.2648 3.99502 12.7232 4.19044 13.1508 4.43439L13.12 4.41799C13.1344 4.42586 13.1501 4.42259 13.1646 4.4298C13.261 4.47964 13.3744 4.51112 13.4944 4.51636H13.4964C13.5043 4.51636 13.5122 4.52226 13.52 4.52226L13.5384 4.51702C13.665 4.51177 13.7823 4.47833 13.8866 4.42324L13.882 4.42521C13.9207 4.40357 13.9535 4.38193 13.9843 4.35701L13.9824 4.35832C14.027 4.33405 14.0656 4.30848 14.1011 4.27962L14.0997 4.28094L15.1038 3.2789L16.723 4.89868L15.7189 5.89285C15.7058 5.90596 15.7012 5.92367 15.6888 5.93744C15.654 5.97875 15.6225 6.02531 15.5956 6.0745L15.5937 6.07843C15.5386 6.15909 15.5032 6.2568 15.4966 6.36304V6.36435C15.4881 6.40108 15.4835 6.4437 15.4835 6.48698C15.4835 6.55059 15.494 6.61158 15.513 6.66863L15.5117 6.6647C15.5248 6.72634 15.5425 6.78012 15.5661 6.83127L15.5642 6.82668C15.572 6.84307 15.5714 6.86143 15.5806 6.87783C15.8081 7.27392 16.0035 7.73231 16.1432 8.21431L16.1544 8.2589C16.1596 8.27858 16.1727 8.293 16.1793 8.31137C16.195 8.35202 16.2114 8.38547 16.2298 8.41826L16.2278 8.41432C16.3662 8.67467 16.6338 8.85042 16.9427 8.85632L18.3612 8.85697L18.3618 11.1476ZM10.0003 6.55781C8.09916 6.55781 6.55737 8.09955 6.55737 10.0007C6.55737 11.9018 8.09916 13.4435 10.0003 13.4435C11.9015 13.4435 13.4433 11.9018 13.4433 10.0007C13.4407 8.1002 11.9008 6.56043 10.0003 6.55781ZM10.0003 11.8041C9.00416 11.8041 8.19687 10.9968 8.19687 10.0007C8.19687 9.00453 9.00416 8.19726 10.0003 8.19726C10.9965 8.19726 11.8038 9.00453 11.8038 10.0007C11.8025 10.9961 10.9958 11.8027 10.0003 11.8041Z" fill="white"/>
</g>
<defs>
<clipPath id="clip0_1_5273">
<rect width="20" height="20" fill="white"/>
</clipPath>
</defs>
</svg>
